<?xml version="1.0" encoding="UTF-8" standalone="no"?>
<!-- Created with Inkscape (http://www.inkscape.org/) -->

<svg
   xmlns:dc="http://purl.org/dc/elements/1.1/"
   xmlns:cc="http://creativecommons.org/ns#"
   xmlns:rdf="http://www.w3.org/1999/02/22-rdf-syntax-ns#"
   xmlns:svg="http://www.w3.org/2000/svg"
   xmlns="http://www.w3.org/2000/svg"
   xmlns:sodipodi="http://sodipodi.sourceforge.net/DTD/sodipodi-0.dtd"
   xmlns:inkscape="http://www.inkscape.org/namespaces/inkscape"
   width="506.34714"
   height="508.11774"
   id="svg2"
   version="1.1"
   inkscape:version="0.48.2 r9819"
   sodipodi:docname="mapa.svg">
  <defs
     id="defs4" />
  <sodipodi:namedview
     id="base"
     pagecolor="#ffffff"
     bordercolor="#666666"
     borderopacity="1.0"
     inkscape:pageopacity="0.0"
     inkscape:pageshadow="2"
     inkscape:zoom="1.08"
     inkscape:cx="317.66497"
     inkscape:cy="291.89807"
     inkscape:document-units="px"
     inkscape:current-layer="layer34"
     showgrid="false"
     width="700px"
     inkscape:showpageshadow="false"
     inkscape:window-width="1280"
     inkscape:window-height="934"
     inkscape:window-x="-4"
     inkscape:window-y="-4"
     inkscape:window-maximized="1"
     fit-margin-top="0"
     fit-margin-left="0"
     fit-margin-right="0"
     fit-margin-bottom="0" />
  <metadata
     id="metadata7">
    <rdf:RDF>
      <cc:Work
         rdf:about="">
        <dc:format>image/svg+xml</dc:format>
        <dc:type
           rdf:resource="http://purl.org/dc/dcmitype/StillImage" />
        <dc:title></dc:title>
      </cc:Work>
    </rdf:RDF>
  </metadata>
<style type="text/css">
	path { cursor: pointer; }
</style>  




<g style="stroke-width:1px;stroke:black;">	
  
<g id="norte" class="regiao"><!-- Região NORTE -->
<g
     inkscape:groupmode="layer"
     id="pa"
     inkscape:label="para"
     style="display:inline"
     transform="translate(-36.05404,-190.90844)">
    <path
       fill="#42bd17"
       d="m 282.84758,227.47886 -1.53768,-0.76884 -1.15326,0.76884 -0.6407,1.66581 -1.40953,0.25628 -1.15326,-0.6407 -2.69093,-0.38442 -2.05024,-0.38441 -2.56279,0 -0.6407,-0.51256 -0.89698,1.15325 -1.40953,1.79396 c 0,0 0.51255,1.40954 1.02511,1.40954 0.51256,0 1.15326,1.28139 1.53768,1.79395 0.38442,0.51256 0.12814,2.17838 0.12814,2.17838 l -2.17838,0.12814 -2.30651,-0.25628 -1.2814,-0.89698 -4.35675,0.76884 -1.53767,1.02511 -1.15326,-0.76883 -1.28139,-0.89698 -2.05024,-0.25628 -2.05023,0.38442 -1.15326,1.79395 -0.6407,1.02512 -2.17837,1.02512 -1.15326,0.51256 -1.15326,0.76883 -7.68838,0.12814 -0.12814,2.81908 -1.15326,2.05023 -1.66581,1.2814 -2.05024,0.51256 -1.40953,0.12814 -0.38442,12.81396 0.38442,3.45978 0.51256,2.43465 1.02511,2.81907 c 0,0 1.66582,2.81908 2.17838,2.81908 0.51256,0 2.56279,1.15325 2.56279,1.15325 0,0 1.15326,3.58791 1.66582,4.10047 0.51256,0.51256 1.53767,3.45977 1.53767,3.45977 0,0 1.2814,1.66582 1.79396,2.05024 0.51256,0.38442 1.79395,0.12814 2.94721,0.38442 1.15326,0.25628 5.12559,-0.12814 5.63815,0.25628 0.51256,0.38442 2.43465,1.40953 2.43465,1.40953 l 2.94721,2.17838 -19.34909,55.61262 -1.40953,1.40953 c 0,0 0,1.9221 0.51255,2.05024 0.51256,0.12814 2.81908,2.69093 2.81908,2.69093 l 2.05023,2.30652 c 0,0 1.02512,2.05023 1.2814,2.56279 0.25628,0.51256 1.79395,2.43465 1.79395,2.43465 0,0 1.53768,1.9221 2.05024,2.43466 0.51256,0.51256 1.92209,2.17837 2.30651,2.81907 0.38442,0.6407 0.76884,1.15326 0.89698,2.05023 0.12814,0.89698 -1.02512,3.84419 -1.02512,3.84419 0,0 -0.12814,1.15326 -0.12814,1.9221 0,0.76884 0.38442,2.56279 0.38442,2.56279 l 9.86676,10.6356 78.54962,6.40698 7.81652,-0.89698 1.66582,-0.89698 1.02511,-3.71605 0.25628,-3.58791 2.81907,-2.30651 c 0,0 3.2035,-2.43465 3.58792,-2.94721 0.38441,-0.51256 1.66581,-2.43466 1.66581,-2.43466 0,0 1.02512,-1.66581 1.66582,-2.69093 0.6407,-1.02512 0.76884,-2.05024 0.89698,-2.56279 0.12813,-0.51256 0.38441,-2.05024 0.38441,-2.94722 0,-0.89697 -0.25628,-1.66581 -0.51255,-2.81907 -0.25628,-1.15326 -0.51256,-2.30651 -0.51256,-2.30651 l -0.6407,-1.53768 1.66581,-6.40698 1.9221,-1.9221 2.17837,-0.51256 2.30652,-1.15325 1.53767,-3.2035 1.66582,-2.05023 2.17837,-2.43466 c 0,0 0.6407,-3.20349 0.6407,-3.71605 0,-0.51255 -0.12814,-3.45977 -0.12814,-3.45977 l -1.53767,-1.66581 -2.17838,-1.02512 -1.53767,-0.12814 -0.6407,-0.51256 0.76884,-3.97233 3.07535,-2.56279 3.45977,-2.30652 3.97233,-3.20349 2.56279,-2.94721 4.74117,-3.71605 2.05024,-1.79396 4.10047,-5.38186 1.66581,-2.05024 1.02512,-5.25372 c 0,0 0.76884,-2.5628 1.02512,-3.07536 0.25628,-0.51256 0,-2.81907 0,-2.81907 l 1.66581,-3.20349 1.15326,-2.69093 -0.12814,-3.71606 1.66581,-3.07535 0,-1.79395 c 0,0 -1.79395,-1.15326 -2.30651,-1.2814 -0.51256,-0.12814 -2.81907,-1.40954 -2.81907,-1.40954 l -2.81907,-0.12814 c 0,0 -0.6407,-1.15325 -2.05024,-1.15325 -1.40954,0 -3.97233,0 -3.97233,0 l -2.81907,-0.25628 -3.33163,-1.2814 -1.53768,-0.25628 -2.43465,1.15326 -1.2814,1.2814 -1.66582,0.76883 c 0,0 -1.66581,0.89698 -1.53767,1.66582 0.12814,0.76884 -1.02512,2.69093 -1.02512,2.69093 l -1.79396,0.51256 0.51256,3.33163 0.89698,2.5628 -3.20349,3.07535 -2.17838,1.92209 -3.84419,0 -1.02511,-0.38442 -1.66582,0.38442 -1.2814,2.69094 -2.30651,2.05023 0.51256,-3.58791 1.66581,-4.10047 -0.51255,-0.6407 -1.40954,0.6407 -2.30651,1.02512 -2.43466,0 -1.53767,-1.53768 c 0,0 1.53767,-1.28139 2.30651,-1.28139 0.76884,0 3.20349,-0.89698 3.20349,-0.89698 0,0 2.81907,-1.40954 3.71605,-1.66582 0.89698,-0.25628 3.58791,-0.89698 3.58791,-0.89698 l 2.69094,-0.89697 1.66581,-3.33163 c 0,0 0.12814,-1.02512 1.40954,-2.17838 1.28139,-1.15326 2.17837,-1.53768 2.17837,-2.81907 0,-1.2814 0,-2.69094 -0.38442,-3.45977 -0.38442,-0.76884 -1.28139,-2.5628 -1.28139,-2.5628 0,0 -1.15326,-1.15325 -1.66582,-1.15325 -0.51256,0 -2.17837,0 -2.81907,0 -0.6407,0 -2.81907,-0.6407 -2.81907,-0.6407 0,0 -1.2814,-1.02512 -2.17838,-0.89698 -0.89698,0.12814 -2.05023,-0.12814 -2.43465,0.51256 -0.38442,0.6407 -2.17838,1.02512 -2.17838,1.02512 0,0 -2.17837,1.02511 -2.81907,0.64069 -0.6407,-0.38441 -1.9221,-0.64069 -1.9221,-0.64069 l -2.69093,-0.51256 -1.79395,-1.2814 -2.94722,0.76884 -2.43465,2.43465 -1.79396,3.33163 -0.51255,3.84419 0.12814,3.07536 1.28139,2.17837 2.5628,3.71605 3.20349,0.51256 2.56279,0.76884 1.9221,1.79395 -2.17838,0.89698 -2.05023,2.05024 c 0,0 -1.15326,2.05023 -1.66582,0.89697 -0.51256,-1.15325 -2.05023,-3.33163 -2.05023,-3.33163 0,0 -1.15326,-1.40953 -1.66582,-2.05023 -0.51256,-0.6407 -1.79396,-1.2814 -1.79396,-2.43466 0,-1.15325 0,-2.05023 0,-2.05023 l -2.30651,-2.17838 -1.40954,-0.25627 -3.84419,1.15325 c 0,0 -0.76883,0.38442 -1.53767,1.40954 -0.76884,1.02512 -3.58791,3.20349 -3.58791,3.20349 0,0 -1.79396,0.25628 -2.30652,0 -0.51256,-0.25628 -1.66581,-1.92209 -1.66581,-1.92209 0,0 -1.40954,-0.6407 -0.38442,-1.15326 1.02512,-0.51256 2.30651,-0.76884 2.30651,-0.76884 0,0 0.51256,0.12814 0.51256,-1.15326 0,-1.28139 0,-1.66581 0,-1.66581 l -2.05023,-0.76884 c 0,0 -0.76884,-0.25628 -1.2814,-0.51256 -0.51256,-0.25628 -1.79396,-1.2814 -2.05024,-2.43465 -0.25628,-1.15326 -0.64069,-3.45977 -0.64069,-3.45977 0,0 0,-0.25628 -0.6407,-2.05024 -0.6407,-1.79395 -1.53768,-3.33163 -1.53768,-3.33163 l -1.92209,-0.89698 -2.05024,-0.76884 c 0,0 -1.40953,-0.12814 -1.40953,-1.79395 0,-1.66582 -0.12814,-3.07535 -0.12814,-3.07535 0,0 -0.89698,-2.5628 -0.89698,-3.33164 0,-0.76883 -0.25628,-2.05023 -0.25628,-2.05023 l -1.53768,-1.9221 c 0,0 -0.25628,0.76884 -0.76884,-0.89697 -0.51255,-1.66582 -1.02511,-2.69094 -1.02511,-2.69094 0,0 -1.02512,-1.28139 -2.05024,-2.05023 -1.02512,-0.76884 -2.69093,-1.40954 -2.69093,-1.40954 l -1.02512,-0.38442 -2.81907,-2.81907 c 0,0 -1.66582,-1.02512 -2.30652,-1.02512 -0.64069,0 -3.45977,-0.89698 -3.97233,-1.15325 -0.51255,-0.25628 -3.07535,-0.51256 -3.07535,-1.02512 0,-0.51256 -1.15325,-2.30652 -1.15325,-2.30652 l 0,-2.05023 1.15325,-1.79396 z"
       id="path3991-7"
       inkscape:connector-curvature="0" />
  </g>
<g
     inkscape:groupmode="layer"
     id="ap"
     inkscape:label="amapa"
     style="display:inline"
     transform="translate(-36.05404,-190.90844)">
    <path
       fill="#21f59e"
       d="m 283.31682,228.18971 -0.89697,2.05024 0.12814,2.05023 c 0,0 0.25627,1.53768 0.89697,1.79396 0.6407,0.25628 2.43466,0.89698 2.43466,0.89698 l 3.58791,1.40953 2.56279,1.2814 2.69093,1.40954 c 0,0 1.02512,0.64069 1.66582,1.40953 0.6407,0.76884 2.43465,1.66582 2.94721,2.05024 0.51256,0.38442 1.40954,1.66581 1.40954,1.66581 l 2.94721,4.48489 1.9221,3.58791 c 0,0 0.12814,2.17838 0.25628,3.07535 0.12814,0.89698 0.89697,3.2035 0.89697,3.2035 0,0 1.2814,1.15325 1.79396,1.53767 0.51256,0.38442 2.43465,1.79396 2.43465,1.79396 l 3.33163,5.38186 0.51256,3.33164 2.5628,2.94721 2.81907,0.76884 2.43465,0 c 0,0 0.25628,-2.94722 0.89698,-3.84419 0.6407,-0.89698 4.22861,-6.27885 4.22861,-6.27885 0,0 3.07535,-2.56279 3.45977,-2.69093 0.38442,-0.12814 1.53768,-2.43465 2.5628,-3.33163 1.02511,-0.89698 2.43465,-3.84419 2.43465,-3.84419 l 6.02256,-5.25373 c 0,0 2.17838,-3.07535 2.69094,-3.45977 0.51256,-0.38442 3.84419,-2.81907 3.84419,-2.81907 0,0 0.38442,-2.69094 -0.25628,-3.33164 -0.6407,-0.64069 -2.81907,-3.20349 -2.81907,-3.20349 0,0 -1.40954,-1.53767 -2.05024,-1.53767 -0.6407,0 -2.56279,0.51256 -3.58791,-0.12814 -1.02512,-0.6407 -2.56279,-1.79396 -2.56279,-1.79396 0,0 -1.66582,-2.05023 -1.79396,-2.56279 -0.12814,-0.51256 -1.53768,-3.45977 -1.53768,-3.45977 l -0.51255,-3.33163 -0.6407,-3.07536 c 0,0 -0.89698,-2.05023 -0.89698,-3.07535 0,-1.02512 0.25628,-4.22861 0.25628,-4.22861 0,0 -0.6407,-1.66581 -0.89698,-2.94721 -0.25628,-1.2814 0,-1.66582 -0.38442,-2.69093 -0.38442,-1.02512 -1.15325,-2.05024 -1.79395,-2.5628 -0.6407,-0.51256 -1.15326,-1.15325 -1.66582,-1.66581 -0.51256,-0.51256 -1.92209,-2.81908 -1.92209,-2.81908 0,0 -0.89698,0.76884 -0.89698,1.2814 0,0.51256 -0.51256,4.22861 -0.51256,4.22861 l 0.12814,1.66582 -2.30651,3.07535 -1.79396,1.53767 -2.81907,2.17838 -0.51256,3.45977 -1.79396,3.07535 -1.53767,2.05024 c 0,0 -0.25628,-1.79396 -0.6407,0.51256 -0.38442,2.30651 -1.79396,3.58791 -1.79396,4.10046 0,0.51256 -1.28139,3.97233 -1.28139,3.97233 l -1.9221,0.76884 -2.43465,-1.15325 c 0,0 -1.2814,-0.6407 -1.9221,-1.15326 -0.6407,-0.51256 -1.92209,-0.89698 -1.92209,-0.89698 0,0 -1.2814,0.12814 -1.2814,0.6407 0,0.51256 -1.66582,1.79395 -1.66582,1.79395 l -2.43465,1.40954 c 0,0 -1.02512,0.6407 -1.92209,0 -0.89698,-0.6407 -2.69094,-2.43465 -2.69094,-2.43465 0,0 -1.79395,-1.53768 -2.69093,-2.17838 -0.89698,-0.6407 -2.69093,-0.51256 -2.69093,-0.51256 l -1.2814,0 z"
       id="path3994"
       inkscape:connector-curvature="0" />
  </g>
<g
     inkscape:groupmode="layer"
     id="to"
     inkscape:label="tocantins"
     style="display:inline"
     transform="translate(-36.05404,-190.90844)">
    <path
       fill="#428c8b"
       d="m 345.85558,384.11024 0.17837,-4.4592 1.78368,-2.31878 3.03226,-2.49715 2.49715,-2.31879 3.38899,-5.5294 c 0,0 -0.5351,-0.89184 0.17837,-2.31879 0.71347,-1.42694 0.71347,-1.24857 0.71347,-2.67552 0,-1.42694 -0.5351,-2.85389 -0.5351,-2.85389 l -1.24858,-2.85389 0.89184,-3.56736 0.5351,-3.56736 1.78368,-1.60531 4.10247,-0.71347 c 0,0 0.35674,-0.71347 1.07021,-1.96205 0.71347,-1.24857 1.96205,-2.85389 1.96205,-2.85389 l 1.78368,-1.96204 c 0,0 0.89184,-0.53511 1.24857,-1.60532 0.35674,-1.07021 0.53511,-3.38899 0.53511,-3.38899 l 0.35673,-2.85389 0,-1.96205 -1.78368,-0.35673 -1.96205,-1.60531 -0.17836,-1.24858 2.67552,-1.42694 3.21062,0.5351 4.28083,2.49715 2.67552,0.71347 -0.35673,19.44212 -1.60532,1.78368 c 0,0 -2.14041,1.07021 -1.24857,1.24857 0.89184,0.17837 1.60531,1.60532 1.60531,1.60532 l 0.5351,1.96204 -1.42694,1.07021 0.35674,1.96205 3.56736,2.67552 4.9943,2.31879 2.14042,-0.35674 1.96205,-0.89184 1.78368,0 0,1.78368 -0.35674,1.78368 -1.96205,1.96205 -2.49715,3.74573 -1.42695,3.92409 -0.71347,1.42695 c 0,0 2.31879,0.71347 2.67552,1.24857 0.35674,0.53511 1.42695,2.49715 1.42695,2.49715 l 1.07021,0.71348 1.0702,1.96204 -1.0702,1.60532 0.5351,2.14041 2.31878,3.21063 2.49716,1.42694 2.85388,2.85389 -0.71347,1.78368 -3.56736,4.81594 -2.85389,4.9943 0.89184,1.96205 c 0,0 0.71348,1.60531 1.78368,1.96205 1.07021,0.35673 0.89184,-0.53511 1.24858,0.35673 0.35674,0.89184 0.35674,3.56736 0.35674,3.56736 0,0 -1.07021,2.14042 -1.07021,3.03226 0,0.89184 -0.17837,2.14042 0.71347,2.49715 0.89184,0.35674 1.24858,1.96205 1.24858,1.96205 l -0.89184,1.60531 -0.53511,3.38899 -3.03225,0.17837 -2.67552,1.07021 -1.78368,0.71347 -1.60532,1.24858 -2.49715,1.24857 -2.49715,1.42695 -2.14042,-0.89184 -1.60531,-1.24858 -1.60531,-1.24857 -0.17837,3.56736 -3.38899,0 -2.31879,-1.60532 -1.96204,-0.17836 -1.78368,0.71347 -1.96205,-1.78368 -1.78368,-1.96205 -1.42695,-1.78368 -0.5351,-0.17837 -0.89184,0.89184 -1.60531,0 -0.71348,-0.89184 -0.5351,0.71347 -1.42694,3.74573 -1.60532,1.24858 -8.56166,-5.52941 -1.78368,-1.60531 -0.17837,-1.96205 -1.07021,-1.78368 -1.24857,1.60531 -1.24858,3.03226 -1.60531,0.17837 -0.89184,-7.49146 0.17837,-9.4535 -0.35674,-4.10247 2.14042,-1.96205 1.07021,-3.56736 0.5351,-5.35104 1.78368,-4.10246 1.42694,-1.60531 1.78368,-1.42695 z"
       id="path3951"
       inkscape:connector-curvature="0" />
  </g>
 <g
     inkscape:groupmode="layer"
     id="ro"
     inkscape:label="rondonia"
     style="display:inline"
     transform="translate(-36.05404,-190.90844)" />
  <g
     inkscape:groupmode="layer"
     id="ac"
     inkscape:label="acre"
     style="display:inline"
     transform="translate(-36.05404,-190.90844)">
    <path
       fill="#428c8b"
       d="m 116.63625,399.51136 0.12024,-1.08219 0.96195,-1.20244 1.08219,-0.96195 0.84171,-0.96194 2.04414,0 1.32268,-0.48098 0.60121,-0.24049 2.40487,0 1.32268,-0.72146 c 0,0 0.24049,-1.44292 0.24049,-1.80365 0,-0.36073 1.68341,-1.9239 1.68341,-1.9239 l 0.72146,-1.20243 -0.8417,-1.20244 -40.762568,-19.11872 -4.449012,-3.00609 -1.923897,-0.24049 -5.050229,-0.8417 -4.929986,-0.96195 -4.449011,-0.96195 c 0,0 -4.689499,-0.84171 -5.290716,-1.08219 -0.601218,-0.24049 -4.208525,-1.20244 -4.208525,-1.20244 l -6.733639,-2.52511 -3.847793,-2.04414 -2.525115,-0.48098 -3.126332,-1.80365 -2.284628,-1.56317 -1.563166,1.56317 -0.961949,1.20243 -0.480974,1.80366 0.360731,2.52511 1.923897,2.64536 0,2.7656 c 0,0 0,1.80366 0.480974,2.28463 0.480974,0.48097 2.164384,2.28463 2.164384,2.28463 0,0 1.442923,1.68341 1.923897,2.04414 0.480974,0.36073 2.404871,2.04414 2.404871,2.04414 l 1.563166,1.20243 2.765602,1.80366 -0.120244,1.20243 -1.803653,1.08219 -1.923897,1.56317 0.961948,0.84171 1.803654,-0.36073 2.04414,0.36073 1.082192,0.24048 4.689499,0.24049 1.322679,1.44292 0,1.44293 0,4.80974 4.088281,-0.24049 1.683409,0.48097 0.601218,0.48098 c 0,0 0.721461,-0.12024 1.202436,0.12024 0.480974,0.24049 1.563166,0.24049 2.404871,0.24049 0.841705,0 2.284627,-0.60122 2.284627,-0.60122 l 1.563166,-1.20243 1.68341,-0.48098 1.082192,-1.20243 1.082192,-1.68341 1.68341,-2.04414 1.68341,-0.96195 1.563166,-0.36073 0.961948,0.96195 -0.36073,2.16438 0.120243,3.12633 -1.322679,2.52512 -0.240487,2.40487 0.120244,2.40487 -0.841705,1.56316 -1.322679,2.64536 c 0,0 1.683409,1.32268 2.164384,1.32268 0.480974,0 1.563166,0.60122 2.04414,1.08219 0.480974,0.48098 1.923897,2.28463 1.923897,2.28463 l 2.164384,0.60122 0.601218,-1.68341 2.284627,-0.60122 1.68341,-0.24049 2.885845,-0.24048 1.442923,-0.60122 1.442922,-0.12024 1.803654,0.12024 0.601217,1.20244 1.322676,1.20243 2.04414,0.36073 c 0,0 1.44293,0.12025 2.16439,0.12025 0.72146,0 2.16438,-0.60122 2.16438,-0.60122 l 1.20244,-1.32268 1.08219,-1.20244 0.72146,-1.20243 0.72146,-1.56317 0.84171,-0.36073 0.60121,-0.36073 0,0.36073 0.12025,0.12024 -0.48098,-0.8417 0.24049,0.12024"
       id="path3013"
       inkscape:connector-curvature="0" />
    <path
       fill="none;"
       d="m 114.47186,399.99233 -0.8417,-0.72146 -0.60122,-0.72146 -1.56317,-0.96195"
       id="path3015"
       inkscape:connector-curvature="0" />
  </g>
  <g
     inkscape:groupmode="layer"
     id="am"
     inkscape:label="amazonas"
     style="display:inline"
     transform="translate(-36.05404,-190.90844)">
    <path
       fill="#10fe9c"
       d="m 176.53327,230.62311 2.45544,3.10161 1.03387,4.26471 4.78165,7.23709 0.3877,2.19697 0.12923,2.71391 0.12924,5.16935 -0.25847,4.52318 0.12923,3.74778 0.90464,3.36008 0.12923,1.9385 3.10161,4.00625 3.48931,3.10161 1.80927,-0.64617 1.16311,-1.80927 0.7754,-1.93851 1.1631,-2.45544 2.45544,-2.71391 1.16311,-0.64617 2.32621,0.3877 2.3262,0.77541 1.55081,2.3262 3.10161,0.90464 2.19697,-1.29234 0.12923,-3.10161 0.12924,-1.29234 1.80927,-0.90463 1.80927,-1.93851 0.3877,-2.06774 0.51694,-2.06774 2.06774,-1.1631 1.9385,-0.12923 1.93851,0 1.5508,0 1.16311,1.29233 2.84314,0.3877 1.68004,-0.64616 -0.12924,3.36007 0.77541,2.84314 0.3877,2.97238 1.5508,2.97238 1.80927,1.29233 2.06774,1.42157 0.64617,1.93851 0.90464,1.29234 1.42157,2.58467 0.7754,1.80927 0.90464,1.68004 10.08023,0.25847 2.45544,1.80927 2.32621,2.32621 -19.77276,55.44127 -1.29234,1.9385 1.03387,3.10161 1.68004,1.55081 2.58467,2.3262 1.03387,2.84315 -1.03387,1.1631 -0.3877,3.74778 -1.29234,5.42781 0,4.13548 -1.80927,4.78165 -4.00624,0.7754 -2.97238,-0.7754 -1.80927,2.19698 -30.24069,-0.51694 -3.74778,-1.1631 -1.42157,-0.77541 -1.93851,-0.64616 -1.42157,-0.38771 -1.5508,-0.7754 -2.19698,-1.1631 -1.68004,-1.42157 -1.68003,-1.68004 -1.68004,-1.68004 -1.03387,-1.42157 -1.03387,-0.64617 -5.94475,0.3877 -0.64617,0.3877 -1.55081,1.29234 -1.42157,1.80927 -0.64617,1.68004 -4.13548,-0.12923 0,1.68004 -1.03387,2.19697 -0.51693,1.29234 -6.07399,3.61854 -1.42157,0.51694 -1.1631,-0.12924 -2.19697,1.16311 -1.03387,1.5508 -0.51694,1.29234 -1.80927,1.29233 -1.55081,0.25847 -1.29233,1.29234 -2.84314,0.12923 -0.38771,0.25847 -3.36007,-2.58467 -4.52318,-0.64617 -1.29234,1.03387 -1.1631,1.80927 -1.29234,1.5508 -1.42157,1.68004 -0.64617,0.77541 -42.776364,-19.77276 -2.843142,-1.80928 -3.48931,-0.51693 -4.264713,-0.90464 -3.877012,-1.03387 -5.55705,-0.64617 -3.747778,-1.29233 -4.652414,-1.16311 -3.230844,-1.1631 -4.135479,-1.80927 -3.230843,-1.29234 -4.910882,-1.93851 -1.809272,-1.1631 -1.292337,-1.42157 0.129234,-1.1631 0.258467,-1.80928 0.646169,-1.1631 2.326207,-0.90464 1.809272,-0.3877 1.292337,-0.51693 0.387702,-2.32621 0,-4.52318 -0.129234,-3.48931 c 0,0 -0.387701,-2.06774 0.387701,-2.45544 0.775402,-0.3877 1.938506,-2.19697 1.938506,-2.19697 l 0.904636,-2.97238 1.550805,-1.1631 1.809272,-1.68004 2.196973,-1.68004 2.843142,-1.42157 4.264713,-2.06774 c 0,0 1.292337,-1.03387 2.326207,-1.03387 1.03387,0 3.360077,-0.51694 3.360077,-0.51694 l 2.326207,-1.29233 1.938506,0 c 0,0 1.292337,-0.64617 1.809272,-0.77541 0.516935,-0.12923 1.421571,-0.64616 1.421571,-0.64616 l 1.421571,-1.03387 8.65866,0.25846 c 0,0 0.516935,-2.3262 0.904636,-2.97237 0.387701,-0.64617 1.03387,-3.48931 1.03387,-3.48931 l 1.421571,-3.36008 1.421571,-4.39395 0.516934,-3.74777 2.455441,-5.81552 0.775403,-3.61855 0.775402,-1.9385 c 0,0 -0.516935,-15.37882 -0.516935,-15.89575 0,-0.51694 -1.03387,-3.23084 -1.03387,-3.23084 l -1.938506,-1.55081 -2.972375,-0.7754 -1.421571,-2.06774 0.516935,-3.10161 -1.163104,-1.42157 -0.129234,-1.68004 0,-3.10161 2.584675,-0.25847 2.067739,-1.03387 2.06774,-0.90463 1.550805,-0.64617 1.938506,0.64617 0.904636,1.1631 1.421571,-0.3877 0.646168,-0.90464 -0.387701,-4.26471 c 0,0 -0.646168,-0.90463 -1.292337,-0.90463 -0.646169,0 -2.713908,0 -3.230843,0 -0.516935,0 -5.427817,0.12923 -5.427817,0.12923 l 0.258468,-8.27096 19.514289,0.51694 0.90464,-1.93851 1.1631,-1.29234 0.77541,0.12924 1.03387,1.1631 0.25846,1.42157 0.7754,0.64617 0.90464,-0.12923 0.64617,-0.77541 0.64617,-0.90463 0.51693,-0.90464 1.68004,-1.5508 0.7754,-1.42157 0.90464,-0.77541 1.03387,0.64617 0.3877,1.68004 0.51694,2.06774 0.12923,1.1631 1.68004,0.3877 0.51693,0.77541 0.51694,1.5508 0.12923,1.93851 -0.12923,1.68004 -1.03387,1.5508 0.3877,1.03387 0.90464,0.3877 1.80927,-0.3877 1.03387,-1.5508 1.80927,0.12923 1.1631,1.80927 0.25847,1.55081 0.90464,1.9385 13.82801,0.12924 1.1631,-1.55081 2.84314,0 1.29234,-0.7754 2.58467,-1.80927 2.58468,-2.19698 1.68004,-1.42157 1.80927,-1.5508 1.29233,-0.7754 2.19698,-1.16311 0.51693,-1.1631 0.3877,-1.80927 1.29234,-1.55081 1.80927,-0.90463 1.29234,-1.03387 3.36008,0.51693 2.06774,0 1.68004,-0.51693 z"
       id="path3008"
       inkscape:connector-curvature="0" />
  </g>
  <g
     inkscape:groupmode="layer"
     id="rr"
     inkscape:label="roraima"
     style="display:inline"
     transform="translate(-36.05404,-190.90844)">
    <path
       fill="#428c8b"
       d="m 154.86576,203.07135 0.73816,1.18106 0.14763,0.88579 0,0.73816 0,1.03342 0.73816,0.59053 0.4429,0.73816 0.59052,0.73816 1.03343,0 1.03342,0 0.88579,0.44289 0.29526,0.73816 0.59053,0.73816 1.03342,0.29526 0.29527,1.03342 0,0.8858 -0.14764,1.03342 -0.29526,2.06684 -0.44289,0.4429 -0.29527,0.73816 -0.14763,1.47632 0.14763,1.47631 -0.29526,0.4429 -0.88579,1.03342 -0.29527,1.03342 0.14764,1.47632 0.14763,1.77158 0.73816,1.47632 1.03342,1.18106 1.47632,0.44289 1.03342,0.59053 2.06684,0.14763 1.47632,-0.29526 1.47632,0 1.32869,-0.88579 0.88579,-0.29527 1.47632,0.14763 1.18105,0.4429 0.88579,1.62395 0.88579,1.18105 1.03342,0.59053 0.8858,1.18106 0.29526,2.06684 0.59053,1.77158 0.88579,1.91922 1.03342,0.88579 1.18105,1.47632 0.29527,1.18105 0.59053,0.88579 0.73815,1.47632 1.18106,0.88579 0.14763,17.86345 0.59053,0.59052 0.14763,1.03343 0.14763,1.91921 0.29526,1.18106 1.03343,1.03342 0.59052,1.91921 1.03343,0.4429 1.03342,1.32868 1.03342,1.47632 1.18106,0.73816 0.88579,0.4429 1.32868,-0.4429 0.88579,-0.73816 0.73816,-1.62395 0.14764,-1.77158 1.03342,-1.47632 0.44289,-1.32868 1.03343,-1.03343 0.73816,-0.73816 1.32868,-0.88579 1.18106,0 1.47631,0.14763 1.03343,0.59053 1.47631,0 0.59053,1.32869 1.03342,0.73816 0.29527,0.88579 1.03342,0.44289 0.73816,0.29527 1.62395,-0.4429 1.32869,-0.59053 0.73815,-1.47631 0,-1.47632 -0.14763,-1.18106 0,-1.03342 1.32869,-0.44289 1.18105,-0.8858 0.73816,-0.73815 0.4429,-1.03343 0.44289,-1.32868 -0.14763,-1.47632 0.59053,-0.73816 0.59053,-0.88579 1.47631,-0.4429 2.36211,-0.14763 2.80501,0.14763 0.44289,0.4429 1.18106,0.73816 1.03342,0 2.06684,0.14763 1.47632,-0.14763 -0.14763,-11.51528 -2.65737,-2.65738 -1.47632,-1.62394 -1.62395,-1.77159 -1.18105,-0.88579 -1.32869,-1.91921 -1.18105,-0.73816 -1.03343,-3.69079 -0.29526,-1.91922 -1.18106,-1.32868 -1.18105,-1.18106 -0.88579,-0.73816 0.14763,-3.69079 0.73816,-2.95264 0.59053,-2.21448 -0.29527,-2.3621 0.73816,-1.77159 1.03343,-1.03342 0.88579,-0.88579 0.73816,-1.47632 1.03342,-1.03342 0.29526,-1.32869 -0.73816,-0.88579 -1.03342,-1.03342 -1.03342,-1.32869 -0.29527,-2.65737 -0.14763,-1.77158 -2.21447,-0.29526 -2.21448,0.14763 0,-1.47632 1.18105,-1.03342 0.88579,-1.03343 0.73816,-1.62395 0.29527,-1.03342 -1.18106,-1.77158 -1.03342,-1.32869 -2.36211,-0.29526 -2.21448,0 -1.62395,0 -1.03342,0.73816 -1.32869,0.73816 0.4429,1.77158 0.88579,1.18105 0.29526,1.77159 -0.44289,1.03342 -0.88579,1.03342 -1.32869,0 -0.73816,1.62395 -1.18105,-0.44289 -2.21448,0 -1.03342,-1.18106 -0.73816,-0.29526 -1.62395,0.59053 -1.77158,1.18105 -0.88579,1.03342 -1.03343,0.88579 -0.73815,0.88579 -0.4429,1.32869 -4.42895,-0.14763 -3.83843,-0.4429 -1.91921,0.88579 -1.03343,1.18106 -0.44289,1.47632 -0.73816,1.62395 -1.03342,1.32868 -1.03343,1.18106 -1.18105,0 -1.32869,-0.88579 -1.18105,-1.32869 -1.03342,-0.88579 -2.80501,0.44289 -1.32868,-0.59052 -0.8858,-1.03343 -1.03342,0.14764 -1.47632,1.47631 -2.3621,-0.59052 -0.8858,-1.18106 -1.03342,-1.47632 -1.18105,-0.59052 -3.2479,0.14763 -1.18106,-1.32869 -1.03342,-1.62395 -1.32869,-1.03342 z"
       id="path2999"
       inkscape:connector-curvature="0" />
 </g>   
  <g
     inkscape:groupmode="layer"
     id="ro"
     inkscape:label="rondonia"
     style="display:inline"
     transform="translate(-36.05404,-190.90844)">
	<path
       fill="#40bd17"
       d="m 198.50812,374.39133 -2.61127,-1.36781 -3.97908,-1.11912 -1.86519,-0.99477 -3.23301,-1.11911 -2.11389,-1.6165 -1.6165,-1.61651 -2.23823,-1.86519 -1.36781,-1.49216 -1.24346,-1.36781 -4.22778,0.62174 -1.24346,0.12434 -1.6165,1.24346 -1.36781,1.61651 -0.87043,1.24346 -0.37304,1.36781 -2.23823,-0.49739 -1.49216,0.12435 -0.74607,1.98954 -0.99477,2.48693 -1.61651,2.23823 -3.35735,1.36781 -2.36258,1.6165 -1.49215,-0.62173 -1.6165,0.74608 -1.49216,1.24346 -0.49738,1.8652 -1.8652,1.36781 -1.74085,0.62173 -1.74085,1.24346 -2.48692,-0.37304 -2.36258,-0.37304 -1.36781,-1.36781 -2.11389,-0.87042 -2.11389,0 -1.6165,1.11912 -1.24346,1.49215 -2.11389,2.73562 -0.87042,1.6165 c 0,0 0.24869,1.36781 0.87042,1.36781 0.62173,0 1.6165,0.37304 2.11389,0.24869 0.49738,-0.12434 1.36781,-1.11911 1.36781,-1.11911 0,0 0.37304,-1.11912 0.87042,-1.11912 0.49739,0 1.98954,-0.74608 2.61127,-0.74608 0.62174,0 1.36781,-0.24869 1.8652,-0.24869 0.49738,0 0.62173,-0.62173 2.73562,-0.12435 2.11389,0.49739 1.6165,0.2487 2.48692,0.2487 0.87043,0 1.49216,0 1.98955,0 0.49738,0 1.74084,0.24869 1.74084,0.24869 l 0.12435,2.48693 c 0,0 -0.49739,1.86519 -0.49739,2.36258 0,0.49738 -0.74607,2.48692 -0.62173,2.98431 0.12435,0.49738 0.2487,2.61127 0.2487,3.35735 0,0.74607 0,2.48692 0,2.48692 l -0.2487,2.98431 c 0,0 0.37304,0.99477 0.87043,1.98955 0.49738,0.99477 0.74608,1.86519 1.36781,2.23823 0.62173,0.37304 0.74607,3.10866 0.74607,3.10866 0,0 0.37304,0.99477 0.49739,1.49215 0.12435,0.49739 0.62173,1.74085 1.11912,2.11389 0.49738,0.37304 1.6165,1.6165 1.6165,1.6165 l 1.49215,0.87043 c 0,0 0,1.36781 0.74608,1.98954 0.74608,0.62173 1.11912,1.24346 1.11912,1.24346 0,0 0.12435,0.37304 0.62173,0.62173 0.49739,0.24869 0.37304,0.49739 1.24346,0.74608 0.87043,0.24869 1.11912,0.24869 1.74085,0.37304 0.62173,0.12434 1.36781,0.12434 1.6165,0.62173 0.2487,0.49738 1.24347,0.49738 1.24347,0.49738 l 1.74085,-1.11911 1.11911,-0.74608 c 0,0 0.87043,-0.12435 1.36781,-0.12435 0.49739,0 -1.11912,-1.11911 0.74608,0.12435 1.86519,1.24346 2.85996,2.73562 2.85996,2.73562 l 1.36781,0.49738 c 0,0 1.36781,-0.49738 1.98954,-0.74607 0.62174,-0.2487 1.36781,-0.62174 1.36781,-0.62174 l 0.49739,0.74608 1.49216,1.24347 c 0,0 0.24869,0.87042 0.74607,0.99477 0.49739,0.12434 2.48693,1.74084 2.48693,1.74084 0,0 0.62173,0.62174 1.11912,0.87043 0.49738,0.24869 1.98954,1.6165 1.98954,1.6165 0,0 0.99477,0.24869 1.86519,0.37304 0.87043,0.12435 2.73562,0 2.73562,0 0,0 1.11912,-0.12435 1.36781,0.49739 0.24869,0.62173 0.24869,0.99477 0.49739,1.49215 0.24869,0.49739 1.49215,0.99477 1.49215,0.99477 l 0.99477,0.24869 c 0,0 1.74085,0.62174 2.11389,1.24347 0.37304,0.62173 0.99477,1.11911 0.99477,1.11911 0,0 0.37304,0.2487 0.87042,0 0.49739,-0.24869 1.24347,-1.24346 1.74085,-1.24346 0.49739,0 1.98954,-0.37304 1.98954,-0.37304 l 1.74085,0.62173 1.6165,0.37304 c 0,0 0.12435,0.24869 0.74608,0.62173 0.62173,0.37304 2.98431,0.37304 2.98431,0.37304 l 2.23824,-1.86519 2.11388,-2.48693 1.6165,-3.233 0.2487,-1.98954 1.74085,-1.74085 c 0,0 -0.12435,-1.24346 0.49738,-1.24346 0.62173,0 1.8652,-2.23824 2.11389,-2.73562 0.24869,-0.49739 1.24346,-0.49739 1.24346,-1.98954 0,-1.49216 -0.49738,-3.23301 -0.49738,-3.23301 l -0.99477,-1.49215 -0.74608,-2.73562 -0.37304,-1.6165 1.36781,-1.61651 c 0,0 0.87042,-1.36781 0.74608,-1.86519 -0.12435,-0.49739 -0.49739,-1.74085 -0.49739,-1.74085 0,0 -0.49738,-0.99477 -1.36781,-1.24346 -0.87042,-0.2487 -2.48692,-0.37304 -2.48692,-0.37304 l -2.73562,0.12434 c 0,0 -1.11912,-0.74607 -1.74085,-0.87042 -0.62173,-0.12435 -3.10866,-0.62173 -3.10866,-0.62173 l -2.85996,-0.12435 c 0,0 -0.62174,-0.87042 -1.11912,-1.24346 -0.49739,-0.37304 -1.36781,-0.74608 -1.98954,-1.36781 -0.62173,-0.62173 -2.11389,-1.86519 -2.11389,-1.86519 0,0 -1.24346,-1.24347 -0.99477,-1.74085 0.24869,-0.49739 -0.62173,-2.73562 -0.62173,-2.73562 l 0.37304,-2.61127 1.36781,-2.48693 0.37304,-3.10866 0.49738,-1.98954 0,-2.11389 -0.87042,-1.98954 -0.49739,-1.74085 0.24869,-1.11911 z"
       id="path3018-8"
       inkscape:connector-curvature="0" />
  </g>
</g><!-- Fim Região NORTE -->  
<g id="nordeste" class="regiao"><!-- Região NORDESTE -->  
  <g
     inkscape:groupmode="layer"
     id="pe"
     inkscape:label="pernambuco"
     style="display:inline"
     transform="translate(-36.05404,-190.90844)">
	<path
       fill="#9cb8e7"
       d="m 504.85185,374.61561 -0.83857,0.30494 -1.1435,0.83856 -1.90582,2.43946 -0.60987,1.1435 -0.99103,1.75336 -1.1435,-1.3722 -1.29596,-3.27802 0.15247,-0.99103 -2.13453,-0.15247 -1.1435,-1.06726 -1.1435,-0.0762 -1.14349,0.15246 -5.03139,-3.04932 -2.21076,-0.83857 -1.67713,-0.0762 -1.52466,1.44843 -2.21076,0.99103 -3.35426,1.67713 -1.29596,1.21973 -1.67713,2.59192 -2.36323,2.0583 -3.20179,0.99103 -2.0583,-1.44843 c 0,0 -1.60089,-1.06726 -1.75336,-1.3722 -0.15247,-0.30493 -1.52466,-1.44843 -1.75336,-1.75336 -0.2287,-0.30493 -1.44843,-1.60089 -1.44843,-1.60089 l -1.29596,-1.29597 c 0,0 -0.6861,-1.06726 -0.53364,-1.37219 0.15247,-0.30494 -0.2287,-1.1435 0.30494,-1.44843 0.53363,-0.30494 2.28699,-1.3722 2.28699,-1.3722 l 1.06726,-0.38117 c 0,0 0.83857,-1.21973 1.06727,-1.52466 0.2287,-0.30493 1.29596,-1.44843 1.44843,-1.75336 0.15246,-0.30493 0.83856,-1.67713 0.99103,-1.98206 0.15246,-0.30493 0.60986,-1.21973 0.60986,-1.21973 l -0.0762,-3.27803 -0.9148,-3.20179 c 0,0 -0.0762,-1.60089 0.38117,-1.82959 0.4574,-0.2287 1.60089,-0.4574 1.60089,-0.4574 l 2.59193,0.4574 6.47982,0.4574 3.12556,0 2.21076,0.53363 2.13452,2.82062 1.52467,2.5157 c 0,0 1.06726,0.0762 1.67713,-0.0762 0.60986,-0.15246 1.98206,-1.06726 2.51569,-1.37219 0.53363,-0.30494 1.21973,-0.83857 1.67713,-0.9148 0.4574,-0.0762 1.1435,0.53363 1.1435,0.53363 0,0 1.60089,0.30493 1.98206,0.30493 0.38116,0 0.99103,-0.38116 1.37219,-0.2287 0.38117,0.15247 0.83857,0.4574 1.3722,0.60987 0.53363,0.15247 1.8296,0.30493 1.8296,0.30493 l 2.05829,0.0762 c 0,0 1.6009,0.15246 1.98206,-0.15247 0.38117,-0.30493 1.21973,-1.1435 1.6009,-1.44843 0.38116,-0.30493 1.14349,-1.1435 1.52466,-1.44843 0.38117,-0.30493 1.21973,-1.52466 1.21973,-1.52466 l 0.83856,-0.38117 3.88789,-0.30493 2.0583,0.15247 0.4574,0.99103 -0.38117,0.99103 -1.37219,1.82959 c 0,0 -1.3722,1.67713 -1.3722,2.0583 0,0.38116 0.38117,1.60089 0.38117,1.60089 l 1.14349,0.6861 1.1435,-0.38117 5.10762,-0.53363 2.36323,-1.21973 4.04035,-1.06726 1.8296,-0.4574 2.36323,-0.30493 2.28699,-1.44843 2.36323,-1.44843 2.66816,-2.74439 1.90582,-1.52467 1.98207,-1.52466 0.38116,0.4574 0.9148,2.43946 -0.15247,3.88789 -0.91479,5.10762 0,4.42152 -0.0762,2.21076 -1.21973,2.287 -0.76233,2.05829 -1.52466,1.75336 -1.44843,0.76233 c 0,0 -1.06727,-0.0762 -1.1435,0.30494 -0.0762,0.38116 -2.21076,0.76233 -2.21076,0.76233 l -0.83856,-0.0762 -1.6009,-1.21973 c 0,0 -0.6861,-0.83856 -1.06726,-0.68609 -0.38117,0.15246 -1.21973,0.0762 -1.75337,0.68609 -0.53363,0.60987 -1.82959,0.6861 -2.43946,1.06727 -0.60986,0.38116 -2.13452,0.6861 -2.21076,1.1435 -0.0762,0.45739 -1.14349,1.21973 -1.44843,1.75336 -0.30493,0.53363 -1.29596,0.9148 -1.82959,1.52466 -0.53363,0.60987 -2.5157,0.6861 -2.5157,0.6861 l -2.21076,0 -2.28699,-0.99103 -1.90583,-1.52466 c 0,0 -0.2287,0.0762 -0.53363,-0.53364 -0.30493,-0.60986 -1.06726,-1.44843 -1.06726,-1.44843 l -1.29597,-0.53363 -0.99103,-0.99103 -0.53363,-0.60986 z"
       id="path3978-9"
       inkscape:connector-curvature="0" />
  </g>
  <g
     inkscape:groupmode="layer"
     id="pi"
     inkscape:label="piaui"
     style="display:inline"
     transform="translate(-36.05404,-190.90844)">
    <path
       fill="#ffd5ce"
       d="m 437.76589,329.4731 1.58792,-4.23445 0.70574,-0.70575 0.70574,-2.82297 -1.41148,-2.99941 -0.35287,-2.82297 0.35287,-1.76435 1.23505,-2.11723 1.94079,-2.29367 0.70574,-2.64653 c 0,0 0,-1.23505 0.70575,-1.76436 0.70574,-0.52931 2.64653,-1.58792 2.64653,-1.58792 l 2.82297,-0.88218 1.76436,-1.58792 c 0,0 0.17644,-1.05862 0.88218,-2.29367 0.70574,-1.23505 0.17643,-1.94079 0.88218,-1.94079 0.70574,0 2.64653,0.88218 2.64653,0.88218 l 2.29367,0.88218 0.35287,2.29366 c 0,0 -1.05862,1.58792 -1.05862,2.11723 0,0.52931 -1.41148,1.58792 -1.41148,2.29367 0,0.70574 0,2.82297 0,2.82297 0,0 0.88218,1.58792 1.94079,2.82297 1.05862,1.23505 2.11723,2.99941 2.11723,2.99941 l 1.05861,3.70515 c 0,0 -0.5293,1.41148 0,2.82297 0.52931,1.41148 -0.35287,3.52871 0.17644,4.58733 0.52931,1.05861 0.52931,3.35227 0.52931,4.05802 0,0.70574 -0.17644,0.88218 0.17643,2.11723 0.35287,1.23505 0,2.4701 0.52931,3.70515 0.52931,1.23505 1.05861,2.64653 1.41149,3.52871 0.35287,0.88218 0.70574,1.76436 0.88217,3.52871 0.17644,1.76436 0.35288,2.64654 0.70575,3.35228 0.35287,0.70575 0.5293,0.70575 1.23505,1.05862 0.70574,0.35287 1.58792,0.35287 2.11723,1.23505 0.5293,0.88218 0.70574,2.4701 0.70574,2.4701 l -0.70574,1.94079 -1.41149,1.23505 c 0,0 -1.23505,1.76436 -1.23505,2.4701 0,0.70574 0.88218,4.41089 0.88218,4.41089 l 0.52931,2.99941 c 0,0 0,0.70574 -0.70575,1.76436 -0.70574,1.05861 -1.94079,2.9994 -1.94079,2.9994 l -2.11723,2.99941 c 0,0 -1.58792,0 -1.94079,0.70574 -0.35287,0.70575 -1.41149,1.41149 -1.41149,1.41149 l -2.9994,0.35287 -1.9408,1.76436 -1.76435,1.94079 -1.9408,2.64654 -2.64653,2.11723 -2.64654,0 -1.05861,1.94079 -1.58792,1.05861 -1.9408,0.70575 -4.58733,-2.4701 -2.11722,-1.23505 -2.64654,0 -2.4701,0.17643 -1.05861,2.99941 0,3.52871 -0.17644,3.35228 -1.76436,3.52872 -2.4701,2.29366 -3.17584,0.35287 -2.11723,0.35287 -2.64653,1.9408 -3.52872,1.58792 -3.88159,-1.23505 -2.11722,-1.9408 -2.29367,-2.11722 -2.4701,-1.76436 -2.82297,0 0.70574,-0.17644 c 0,0 0.52931,-0.5293 1.23505,-1.41148 0.70575,-0.88218 0.17644,-2.11723 1.05862,-2.99941 0.88218,-0.88218 1.05861,-1.58792 1.41148,-2.29366 0.35287,-0.70575 0.17644,-1.58793 0.17644,-1.58793 0,0 -1.23505,-0.88217 -1.23505,-2.29366 0,-1.41149 -1.05862,-2.11723 -1.05862,-3.52871 0,-1.41149 -0.17643,-3.35228 -0.17643,-3.35228 l 0.17643,-2.64654 1.05862,-2.11723 2.82297,-5.4695 1.23505,-6.35169 1.58792,-2.4701 3.35228,-1.41149 2.99941,-0.88217 3.88158,-1.41149 2.99941,-2.4701 c 0,0 2.29367,-2.29366 2.99941,-2.82297 0.70574,-0.52931 1.94079,-1.58792 2.99941,-1.58792 1.05861,0 2.9994,0 2.9994,0 l 1.76436,1.94079 c 0,0 0.52931,-0.35287 1.41149,-0.70574 0.88217,-0.35287 0.5293,-1.05862 1.94079,-1.05862 1.41148,0 2.82297,-0.70574 2.82297,-0.70574 0,0 1.76436,-0.35287 2.29366,-1.05861 0.52931,-0.70575 -0.5293,-1.41149 -0.70574,-2.82298 -0.17643,-1.41148 -0.88218,-1.76435 -0.88218,-2.64653 0,-0.88218 -1.05861,-3.17584 -1.05861,-3.17584 l -0.70574,-2.11723 -1.05862,-3.52872 z"
       id="path3959-0"
       inkscape:connector-curvature="0" />
  </g>
  
  
  <g
     inkscape:groupmode="layer"
     id="se"
     inkscape:label="sergipe"
     style="display:inline"
     transform="translate(-36.05404,-190.90844)">
        inkscape:connector-curvature="0" />
    <path
       fill="#fe4c26"
       d="m 503.47561,409.63415 1.89024,0.67073 2.13415,0.30488 c 0,0 0.79268,-0.12196 1.28049,-0.60976 0.4878,-0.4878 1.15853,-1.70732 1.28049,-2.0122 0.12195,-0.30487 0.97561,-2.19512 1.09756,-2.62195 0.12195,-0.42683 0.60975,-2.13414 0.60975,-2.13414 l 1.03659,-1.15854 1.15853,-0.91463 1.58537,-1.40244 0.85366,-1.28049 1.21951,-0.91463 0.36585,-0.24391 0.48781,-0.30487 1.58537,-1.28049 c 0,0 0.85365,-0.24391 0.79268,-0.79269 -0.061,-0.54878 -0.12195,-1.03658 -0.42683,-1.28048 -0.30488,-0.24391 -1.64634,-1.40244 -1.95122,-1.52439 -0.30488,-0.12195 -2.56098,-1.46342 -2.56098,-1.46342 0,0 -0.7317,-0.85366 -1.15853,-1.28049 -0.42683,-0.42683 -1.7683,-1.52439 -1.7683,-1.52439 l -1.82926,-1.21951 -2.5,-1.70732 -2.2561,-0.85365 c 0,0 -1.82927,-0.67074 -2.56098,-0.73171 -0.7317,-0.061 -2.19512,-0.42683 -2.19512,-0.42683 0,0 -0.73171,0.73171 -0.60975,1.15854 0.12195,0.42683 0.42682,2.07317 0.42682,2.07317 l 0.12196,1.52439 c 0,0 0.18292,1.52439 0.7317,1.70731 0.54878,0.18293 0.97561,0.85366 1.21952,1.03659 0.2439,0.18293 0.30487,1.95122 0.30487,1.95122 l -0.30487,2.07317 -0.73171,1.15854 -1.03659,1.70731 -1.21951,0.54878 -2.86585,1.15854 -0.30488,1.76829 c 0,0 -0.12195,2.0122 -0.061,2.31708 0.061,0.30487 -0.2439,0.67073 0.73171,1.52439 0.97561,0.85365 1.89024,2.31707 2.2561,2.80487 0.36585,0.48781 0.97561,0.79269 1.46341,1.09757 0.48781,0.30487 1.70732,1.09756 1.70732,1.09756 z"
       id="path3986"
       inkscape:connector-curvature="0" />
  </g>
  <g
     inkscape:groupmode="layer"
     id="al"
     inkscape:label="alagoas"
     style="display:inline"
     transform="translate(-36.05404,-190.90844)">
    <path
       fill="#fadcd2"
       d="m 500.24184,380.202 0.91479,-2.21076 1.90583,-2.43946 1.75336,-0.76234 2.5157,0.9148 3.12556,1.8296 c 0,0 -0.83857,0.2287 0.30493,0.99103 1.14349,0.76233 2.05829,1.52466 2.05829,1.52466 0,0 1.75336,0.53363 2.0583,0.60987 0.30493,0.0762 1.14349,0.0762 1.67713,0.15246 0.53363,0.0762 2.59192,-0.6861 2.59192,-0.6861 0,0 1.52467,-0.83856 1.8296,-0.91479 0.30493,-0.0762 1.21973,-1.21973 1.21973,-1.21973 l 1.44843,-1.06727 1.90583,-1.1435 2.05829,-0.60986 1.29596,-0.30493 c 0,0 1.3722,0.30493 1.67713,0.60986 0.30494,0.30493 2.13453,0.6861 2.13453,0.6861 0,0 0.6861,-0.38117 1.1435,-0.38117 0.4574,0 1.98206,-0.68609 1.98206,-0.68609 0,0 1.3722,-0.9148 1.67713,-0.9148 0.30493,0 1.29596,-0.99103 1.29596,-0.99103 l 0.2287,0.76233 -2.36323,0.53363 0.4574,1.29596 0.15247,1.44843 -1.90583,2.287 -1.75336,1.82959 -1.75336,1.1435 -0.99103,0.76233 -1.1435,2.0583 c 0,0 -1.44843,1.75336 -1.3722,2.13452 0.0762,0.38117 0,1.21973 -0.0762,1.52467 -0.0762,0.30493 -1.21973,1.52466 -1.21973,1.52466 l -1.21973,1.98206 -1.21976,0.53363 -1.52466,1.52467 -2.0583,0.15246 c 0,0 -1.60089,-1.82959 -1.98206,-1.98206 -0.38117,-0.15247 -2.36323,-1.29596 -2.36323,-1.29596 l -1.82959,-1.8296 -1.67713,-1.52466 -2.21076,-1.8296 -2.43946,-1.37219 -2.21076,-0.83857 -2.43946,-0.76233 -2.0583,-0.38116 -0.76233,-0.6861 z"
       id="path3981"
       inkscape:connector-curvature="0" />
  </g>
  <g
     inkscape:groupmode="layer"
     id="pb"
     inkscape:label="paraiba"
     style="display:inline"
     transform="translate(-36.05404,-190.90844)">
    <path
       fill="#c9c9ff"
       d="m 494.52435,360.30515 1.44843,-0.30493 1.06726,0.38116 c 0,0 0.60987,0.53363 0.99103,0.53363 0.38117,0 2.66816,0.0762 2.66816,0.0762 l 1.75337,-0.0762 c 0,0 0.60986,-0.30493 1.44843,-0.68609 0.83856,-0.38117 1.44843,-1.29597 1.44843,-1.29597 l 0.53363,-0.76233 1.06726,-1.29596 0.76233,-1.1435 c 0,0 2.21076,-0.2287 2.66816,-0.2287 0.4574,0 3.35426,0.2287 3.35426,0.2287 l 0.0762,0.76233 c 0,0 -0.76233,0.6861 -0.91479,1.06727 -0.15247,0.38116 -1.67713,2.43946 -1.67713,2.43946 0,0 -0.53364,1.21973 -0.38117,1.60089 0.15247,0.38117 0.15247,0.60987 0.38117,1.1435 0.2287,0.53363 0.30493,0.9148 0.60986,1.1435 0.30493,0.2287 0.76233,0.15246 1.44843,0.0762 0.6861,-0.0762 0.15247,-0.30493 1.3722,-0.4574 1.21973,-0.15247 0.76233,-0.30493 1.98206,-0.2287 1.21973,0.0762 2.13453,-0.38117 2.43946,-0.38117 0.30493,0 1.29596,-0.38116 1.75336,-0.60986 0.4574,-0.2287 0.4574,-0.76233 1.29596,-0.76233 0.83857,0 1.1435,-0.38117 2.287,-0.4574 1.1435,-0.0762 1.1435,-0.4574 1.98206,-0.4574 0.83857,0 1.1435,-0.2287 1.90583,-0.2287 0.76233,0 1.06726,-0.38116 1.60089,-0.4574 0.53364,-0.0762 1.29597,-0.60986 1.90583,-0.99103 0.60987,-0.38116 1.1435,-1.06726 1.44843,-1.29596 0.30494,-0.2287 1.29597,-0.99103 1.6009,-1.21973 0.30493,-0.2287 1.60089,-1.3722 1.60089,-1.3722 l 0.6861,-0.9148 1.06727,-0.91479 c 0,0 0.53363,-0.9148 0.83856,-1.06727 0.30493,-0.15246 1.06726,-0.83856 1.06726,-0.83856 l 1.52467,-0.60987 c 0,0 -0.60987,-1.37219 -0.9148,-1.98206 -0.30493,-0.60986 -0.9148,-1.52466 -0.9148,-2.43946 0,-0.9148 -0.2287,-1.60089 -0.2287,-1.60089 0,0 0.0762,-0.60987 -0.60986,-1.29597 -0.6861,-0.6861 -1.44843,-1.60089 -1.44843,-1.60089 l -0.38117,-0.4574 -4.65022,0.0762 -1.21973,0.6861 -1.44843,1.21973 -0.9148,0.60986 -1.37219,0.38117 -1.21973,-0.9148 -1.8296,-1.37219 -0.4574,-0.99103 -1.37219,0.22869 -1.1435,0.76234 -0.99103,0.76233 c 0,0 0.15247,1.44843 0.15247,1.75336 0,0.30493 -0.4574,3.20179 -0.4574,3.20179 l -1.1435,0.9148 -1.98206,0.15246 -1.6009,-1.37219 c 0,0 -0.4574,-0.6861 -0.83856,-0.6861 -0.38117,0 -3.58296,-0.38117 -3.58296,-0.38117 0,0 -1.52466,0 -1.82959,-0.22869 -0.30494,-0.2287 -0.60987,-0.99104 -0.60987,-0.99104 l 2.89686,-3.73542 0.4574,-1.52466 c 0,0 0.76233,-0.99103 0.30493,-0.99103 -0.4574,0 -0.4574,-0.30494 -1.1435,-0.30494 -0.68609,0 -0.91479,-0.0762 -1.37219,-0.0762 -0.4574,0 -1.29597,0 -1.29597,0 l -2.05829,0.9148 c 0,0 -1.3722,0.83856 -1.8296,0.83856 -0.4574,0 -1.98206,1.29597 -1.98206,1.29597 l -1.60089,0.83856 -1.67713,0.76233 -1.29597,-0.2287 -1.44843,-0.4574 -0.91479,-0.99103 -1.1435,-0.2287 -0.38117,0.30494 -1.29596,2.13452 -0.15247,2.7444 -0.38116,1.75336 -0.60987,1.44843 -0.60986,1.52466 c 0,0 0,2.13453 0.38116,2.287 0.38117,0.15246 0.83857,1.90582 0.83857,1.90582 l 0.0762,1.21973 -0.60986,1.21973 -0.99103,0.83857 -0.0762,0.0762 0.4574,0.53363 1.21973,0.60987 1.29597,0.38117 z"
       id="path3971"
       inkscape:connector-curvature="0" />
  </g>
  <g
     inkscape:groupmode="layer"
     id="ma"
     inkscape:label="maranhao"
     style="display:inline"
     transform="translate(-36.05404,-190.90844)">
    <path
       fill="#fe4a29"
       d="m 397.93132,275.20581 -1.40328,1.40328 -1.20282,2.40563 0,2.6061 -0.80187,2.20516 -1.00235,2.80657 -1.20282,2.20516 0,2.6061 -1.00234,3.40798 -0.40094,2.80657 -0.60141,2.20516 -1.80422,2.40563 -2.20516,2.40563 -1.80422,3.00704 -1.60376,0.80187 -2.00469,1.80423 -2.40563,1.60375 -2.00469,2.20516 -2.20516,2.6061 -2.00469,1.40328 -2.40563,1.20282 -1.80423,2.20516 -2.20516,1.60375 -1.40328,2.20516 -0.40094,1.40329 0.20047,1.80422 2.00469,0 1.80422,-1.00235 2.20516,-1.00234 2.6061,0.20047 c 0,0 3.20751,2.00469 4.00939,2.20516 0.80187,0.20047 1.60375,1.20281 1.60375,1.20281 l -0.40094,18.64364 -1.80422,2.20516 -1.00235,1.20281 1.80423,1.60376 -0.80188,2.6061 0.20047,2.6061 3.20751,2.40563 3.2075,1.60375 3.40798,1.20281 2.40563,-0.40093 2.20516,-0.80188 0,1.40328 -1.20282,1.80423 -4.00938,3.80891 -1.60376,6.01407 2.80658,2.0047 c 0,0 0.80187,0.20047 1.60375,1.60375 0.80188,1.40329 1.00235,2.40563 1.00235,2.40563 l 0.20046,1.40329 0.60141,5.21219 2.40563,2.40563 3.40798,1.60376 c 0,0 0.40094,1.40328 1.60375,1.80422 1.20282,0.40094 2.20516,-0.40094 2.20516,-0.40094 l 1.60376,-4.20985 1.40328,-3.20751 -1.60375,-4.00938 -0.80188,-5.61314 0,-3.40797 c 0,0 2.80657,-3.40798 3.20751,-4.41033 0.40094,-1.00234 1.40328,-6.81595 1.40328,-6.81595 l 1.40329,-3.60844 2.80656,-1.60376 4.20986,-2.00469 3.2075,-0.20047 2.6061,-1.40328 2.40563,-2.40563 1.80423,-1.80422 1.60375,-1.20282 2.40563,-0.60141 1.60375,0.80188 1.20282,1.00235 2.40563,-0.80188 1.00234,-0.60141 2.0047,-0.40094 2.80656,-0.80187 1.40329,-2.20517 -4.81126,-12.83002 2.6061,-3.00704 1.20281,-2.80657 1.60376,-2.80657 0.40093,-3.00704 -1.80422,-3.60844 -0.20047,-2.6061 1.00235,-2.20516 1.80422,-1.80422 1.80422,-3.60845 1.60376,-2.6061 3.80891,-2.00469 1.80422,-1.20281 1.00235,-3.00704 c 0,0 1.00235,-1.20282 0.20047,-1.20282 -0.80188,0 -3.20751,0 -3.20751,0 0,0 -1.60375,-0.6014 -2.40563,0.20047 -0.80187,0.80188 -2.6061,1.00235 -2.6061,1.00235 l -2.00469,-2.40563 c 0,0 -3.00704,-1.60376 -4.00938,-2.20516 -1.00235,-0.60141 -2.00469,-1.60376 -3.00704,-1.60376 -1.00235,0 -3.20751,0.20047 -4.00938,0.40094 -0.80188,0.20047 -3.60845,1.60375 -3.60845,1.60375 l -2.20516,0.80188 -2.80657,1.00235 -1.80422,1.60375 -1.40328,2.00469 -1.40329,1.60376 -1.80422,2.6061 c 0,0 -1.20282,-0.80188 -0.80188,-1.60376 0.40094,-0.80187 1.40329,-5.2122 1.40329,-5.2122 l 0.6014,-2.6061 -0.40094,-2.6061 -1.60375,-1.20281 1.60375,-2.40563 0.80188,-1.80422 -2.6061,-2.00469 -4.61079,-3.00704 c 0,0 0.20047,-1.00235 -1.20281,0 -1.40329,1.00234 -2.20516,1.20281 -2.20516,1.20281 l -1.00235,-1.80422 -2.40563,-2.40563 -2.00469,-1.40328 -1.60376,-0.80188 z"
       id="path3968"
       inkscape:connector-curvature="0"
       sodipodi:nodetypes="ccccccccccccccccccccccccccccccscccccccccccccccccscccccsccccccscccccccccccccccccccccccccccccccscsccssscccccccsccccccccscccccc" />
  </g>
  <g
     inkscape:groupmode="layer"
     id="rn"
     inkscape:label="rio-grande-norte"
     style="display:inline"
     transform="translate(-36.05404,-190.90844)">
    <path
       fill="#f98868"
       d="m 510.95783,322.95687 -2.9994,0.70575 -1.58792,1.41148 -1.76436,0.88218 -1.41149,0.70574 -0.70574,2.29367 -1.23505,1.94079 -1.23505,3.70515 -1.76436,2.11723 -1.23505,2.4701 -1.94079,1.94079 1.58792,1.9408 2.64654,0.70574 2.9994,-1.41149 3.35228,-2.11723 1.9408,-0.88217 1.94079,-0.52931 1.94079,0.52931 -0.35287,1.58792 -1.58792,1.76435 -1.58792,2.11723 0.70574,1.76436 c 0,0 0.70574,0.17644 1.41149,0.35287 0.70574,0.17644 2.4701,0.17644 2.4701,0.17644 l 2.29366,0.17643 1.94079,1.9408 1.41149,0.70574 2.4701,-1.41149 c 0,0 0.35287,-0.17643 0.52931,-1.58792 0.17643,-1.41148 -0.17644,-3.88158 -0.17644,-3.88158 l 1.05861,-0.88218 1.76436,-0.17644 0.52931,1.23505 2.64654,1.76436 2.29366,-0.35287 1.41149,-1.05862 c 0,0 2.64653,-1.76435 3.52871,-1.58792 0.88218,0.17644 1.94079,0 1.94079,0 l 2.29367,0.17644 -0.35287,-2.64654 -0.88218,-4.23446 -1.23505,-4.23445 -1.58792,-2.29367 c 0,0 -1.23505,-1.58792 -2.4701,-1.58792 -1.23505,0 -3.52872,-1.05861 -3.52872,-1.05861 l -4.05802,0 -3.17584,-1.41149 -1.41149,0 -4.05802,-1.41148 c -0.9884,-0.7621 -0.17331,-1.27543 -2.9652,-2.28629 -0.68428,-0.12229 -1.17703,2.09759 -1.76436,1.94079"
       id="path3965"
       inkscape:connector-curvature="0"
       sodipodi:nodetypes="ccccccccccccccccccccccccccccsccccccccccccccsccccccc" />
  </g>
  <g
     inkscape:groupmode="layer"
     id="ce"
     inkscape:label="ceara"
     style="display:inline"
     transform="translate(-36.05404,-190.90844)">
    <path
       fill="#8b7df8"
       d="m 457.85068,298.25587 -1.05861,2.4701 -1.58792,1.76436 -0.52931,2.99941 0.35287,2.29366 1.05862,2.29367 1.23505,2.29366 1.58792,3.35228 0.88218,5.11664 0,3.70515 0.35287,3.52871 c 0,0 0,1.94079 0.17643,2.64654 0.17644,0.70574 0.52931,2.64653 0.52931,2.64653 l 1.23505,5.11664 0.88218,3.52871 0.88218,2.29367 1.94079,2.4701 1.41149,1.05861 0.35287,1.58792 -0.88218,2.99941 -1.23505,1.94079 -0.17644,0.35287 0.17644,0.35287 0.88218,10e-6 -0.35287,0.17643 0.17643,0.35287 0.17644,0 0.52931,-0.35287 -1.05862,-0.35287 1.23505,0.17643 4.58733,0.35288 c 0,0 4.23446,0.17643 4.9402,0.17643 0.70574,0 3.70515,0 3.70515,0 l 1.76436,0.70574 1.05861,2.4701 1.94079,3.17585 c 0,0 0.88218,0 1.76436,0 0.88218,0 2.4701,-1.76436 2.4701,-1.76436 0,0 1.23505,-1.41149 2.11723,-1.58792 0.88218,-0.17644 1.23505,-1.23505 1.23505,-1.23505 l 1.05861,-1.23505 -1.23505,-1.94079 -0.70574,-2.64654 c 0,0 0.17644,-1.76436 0.88218,-2.64654 0.70574,-0.88217 0.52931,-4.76376 0.52931,-4.76376 l 1.58792,-2.64654 3.17584,-2.64653 1.41149,-2.29367 1.41148,-2.82297 3.17585,-7.05743 3.88158,-2.4701 2.82297,-0.70574 0.70575,-0.70574 -2.82298,-3.35228 -3.35227,-2.29366 c 0,0 -2.11723,-1.41149 -2.82298,-1.76436 -0.70574,-0.35287 -4.76376,-2.4701 -4.76376,-2.4701 l -1.76436,-2.11723 c 0,0 -1.23505,-1.94079 -2.29366,-2.4701 -1.05862,-0.52931 -5.99882,-3.52871 -5.99882,-3.52871 l -2.9994,-2.29367 -4.58733,-2.99941 -4.05802,-1.05861 -4.4109,-2.4701 -2.64653,0.17644 -1.58792,1.76435 -2.99941,0.17644 -3.70515,-0.17644 z"
       id="path3962"
       inkscape:connector-curvature="0"
       sodipodi:nodetypes="cccccccccccccccccccccccccccccccsccccsccccccscccccccccccsccscccccccccc" />
  </g>
  <g
     inkscape:groupmode="layer"
     id="ba"
     inkscape:label="bahia"
     style="display:inline"
     transform="translate(-36.05404,-190.90844)">
    <path
       fill="#ff846c"
       d="m 406.15502,398.11849 -1.94079,-2.11723 -2.82298,-1.58792 -2.82297,0 -2.11723,0.88218 -1.05861,2.9994 -3.35228,4.05803 -1.58792,2.9994 0.17644,1.23505 1.58792,2.82298 1.23505,1.05861 1.23505,1.23505 -0.88218,1.23505 -0.35287,4.05802 0.35287,1.58792 1.23505,1.76436 0,1.94079 -0.70574,2.99941 -0.52931,2.4701 0.70574,11.11545 0,2.4701 2.4701,2.4701 0.52931,4.23446 0.52931,3.88158 0.17643,2.11723 2.82297,1.41149 4.9402,-1.41149 3.88159,-2.82297 4.41089,-3.88159 2.4701,-1.94079 c 0,0 1.76436,-0.35287 2.64654,-0.35287 0.88218,0 3.17584,-0.35287 3.17584,-0.35287 l 1.41149,-0.52931 1.05861,-0.88218 1.23505,-0.70574 1.41149,0.70574 -1.23505,1.41149 -0.70575,1.41148 0.88218,4.23446 2.82297,0.88218 2.29367,-1.23505 2.4701,-1.05861 3.17584,1.41148 2.82297,2.11723 2.11723,2.64654 1.58792,1.58792 3.70515,-0.17644 3.35228,1.41149 3.88159,2.82297 3.52871,3.88158 c 0,0 0,1.05862 0.70574,1.05862 0.70575,0 4.9402,-0.70574 4.9402,-0.70574 l 2.64654,0 2.64654,0.35287 4.05802,2.11723 2.29366,2.11722 -0.35287,1.76436 -2.64654,1.58792 -1.41148,2.82297 -0.70574,2.99941 -2.29367,3.88159 -2.11723,2.29366 3.88159,4.76377 1.05861,1.41148 2.99941,3.17584 3.35228,2.4701 1.76436,0.52931 1.41148,-2.29366 1.58792,-4.58733 1.05862,-5.82238 1.41148,-4.76376 1.76436,-4.76377 0.70574,-3.52871 1.05862,-4.58733 0.88218,-3.17584 1.05861,-2.29367 -1.76436,-2.11723 0.35287,-16.58495 -0.88217,-0.70575 0,-1.76435 -1.23505,-2.11723 c 0,0 -1.41149,-0.88218 -0.70575,-0.88218 0.70575,0 1.58792,-0.88218 1.58792,-0.88218 0,0 1.23505,-0.17644 0.52931,-1.41149 -0.70574,-1.23505 -1.23505,-2.29366 -1.23505,-2.29366 l 1.76436,-1.05861 1.05861,-1.76436 1.76436,-1.58792 c 0,0 0.70574,-1.41149 0,-1.58792 -0.70574,-0.17644 -1.76436,-0.52931 -1.76436,-0.52931 l -0.17643,-0.88218 1.41148,-1.23505 0.35287,-1.23505 1.76436,-0.70574 1.76436,0.17643 0.52931,1.41149 0.88217,1.76436 1.23505,1.05861 1.9408,-2.29366 1.58792,-2.4701 1.76436,-1.58793 0.70574,-1.94079 1.23505,-2.29366 1.05861,-2.82297 1.76436,-1.58793 0.52931,-1.05861 -3.52872,-0.35287 -2.9994,-2.11723 -1.23505,-1.76436 -2.11723,-2.4701 0.17643,-2.29366 0,-2.29367 2.11723,-0.70574 2.11723,-0.52931 1.23505,-2.11723 c 0,0 0.17644,-1.58792 0.70574,-2.29366 0.52931,-0.70574 0.52931,-2.4701 0.52931,-2.4701 l -1.76436,-1.23505 -1.58792,-2.11723 0,-2.99941 0,-2.82297 -2.11723,-1.94079 -1.58792,-2.82297 c 0,0 0.52931,-2.11723 -0.88218,-1.94079 -1.41148,0.17643 -3.70515,-1.76436 -3.70515,-1.76436 l -1.58792,0.52931 -1.94079,-1.58793 -3.17584,-1.76435 -1.9408,-0.88218 -1.58792,0.17643 -1.76436,1.41149 -2.9994,1.58792 -3.88159,2.11723 -1.41148,2.11723 -1.9408,2.29366 -1.23505,0.88218 -2.64653,0.70574 -2.11723,-1.76435 c 0,0 -1.23505,-0.52931 -1.58792,-1.23505 -0.35287,-0.70575 -1.76436,-2.29367 -1.76436,-2.29367 l -1.76436,-1.76435 -1.23505,-1.41149 -1.05861,-0.35287 -4.58733,2.29366 -3.17584,4.23446 -1.9408,1.76436 -1.41148,-0.35287 -2.29367,1.05861 -1.23505,1.76436 -1.23505,1.41148 -1.76435,-0.5293 c 0,0 -0.88218,-0.17644 -1.58792,-0.52931 -0.70575,-0.35287 -2.11723,-1.41149 -2.11723,-1.41149 l -1.05862,-0.70574 -1.76435,0.17644 -2.29367,-0.35288 -1.23505,-0.5293 -1.94079,1.05861 -1.05862,1.76436 -0.17643,6.52812 -1.05862,3.35228 -0.88217,1.76436 -2.64654,1.94079 -3.35228,0 -1.76436,0.88218 -0.88217,0.5293 -2.11723,1.9408 -2.4701,0.88218 -2.99941,-0.88218 -1.41149,-1.58792 z"
       id="path3954"
       inkscape:connector-curvature="0" />
  </g>
</g> <!-- Fim Região NORDESTE -->  

<g id="centro-oeste" class="regiao"> <!-- Região CENTRO-OESTE -->  
  <g
     inkscape:groupmode="layer"
     id="go"
     inkscape:label="goias"
     style="display:inline"
     transform="translate(-36.05404,-190.90844)">
    <path
       fill="#e7d5bd"
       d="m 346.88596,426.83333 -2.41228,-1.44737 -0.96491,-0.77192 -0.38596,-1.1579 0,-2.31579 -1.35088,-1.44737 -0.77193,0 -1.25439,1.92983 -0.77193,1.92982 -0.86842,1.83333 -1.25438,0.57895 -0.0965,2.50877 0.19298,2.31579 -0.28948,2.31579 -0.67543,1.25439 -1.1579,1.83333 -0.0965,1.35088 -0.28947,2.02632 -0.86842,1.15789 -1.06141,1.0614 c 0,0 -0.0965,1.44737 0.0965,2.02632 0.19299,0.57895 0.0965,2.12281 0.0965,2.60526 0,0.48246 -0.28947,2.12281 -0.28947,2.12281 0,0 -0.86842,1.0614 -0.86842,1.44737 0,0.38596 -1.25439,1.64035 -1.25439,1.64035 l -1.73684,0.86842 -1.64035,1.44737 -0.67544,0.86842 -1.35088,2.79825 -0.77192,3.47368 -1.64036,1.92982 -1.25438,1.1579 -1.83334,0.28947 -5.30701,6.6579 -0.19299,1.44737 -1.73684,2.31578 -1.25438,1.25439 -2.60527,2.79825 -1.0614,1.44736 -0.86842,2.12281 0.28947,2.31579 0.19299,3.57018 -0.77193,2.02631 -1.44737,2.31579 -0.96492,1.44737 7.14036,5.78947 2.60526,1.64036 c 0,0 2.89474,0.28947 3.66667,0.67543 0.77193,0.38597 3.47368,1.06141 3.47368,1.06141 0,0 2.41228,0.86842 3.2807,1.44737 0.86842,0.57894 3.18421,1.92982 3.57018,2.1228 0.38596,0.19299 2.79824,2.02632 3.18421,2.41228 0.38596,0.38597 3.18421,1.54386 3.18421,1.54386 l 0.48245,-0.38596 0.57895,-1.54386 2.31579,-1.54386 2.50877,-1.44737 1.25439,-1.25439 0.67544,-1.35087 0.86842,-1.44737 1.15789,-1.0614 0.96492,0 2.31578,-0.38597 2.12281,-0.48246 1.64035,-0.48245 1.44737,-0.67544 1.25439,0.38596 1.0614,0.67544 c 0,0 0.96491,0.86842 1.35088,0.86842 0.38596,0 0.86842,-0.0965 0.86842,-0.0965 l 1.73684,-2.79824 1.64035,-1.1579 3.2807,-0.67544 3.28071,0.48246 1.0614,0.96491 c 0,0 1.73684,0.28948 2.60526,0.48246 0.86842,0.19298 2.60527,0.19298 2.60527,0.19298 l 0.86842,-0.0965 1.35087,0.86842 2.70176,-1.0614 2.31579,-1.83334 2.1228,-2.70175 0.38597,-1.73684 0.28947,-1.92983 0.57895,-1.35087 -0.38596,-1.64036 -1.06141,-1.64035 -0.19298,-1.35087 1.64035,-1.35088 0.38597,-3.18421 c 0,0 -0.38597,-1.83333 -1.06141,-2.31579 -0.67544,-0.48246 -2.41228,-2.70175 -2.41228,-2.70175 l -1.54386,-3.18422 -0.86842,-1.15789 0.1237,0.23959 4.60437,0.0499 1.25439,-2.60526 1.54386,-0.96491 1.92982,-1.64035 c 0,0 0.19298,-1.64035 -0.0965,-2.2193 -0.28947,-0.57895 -1.25439,-3.57018 -1.25439,-3.57018 l 0.57895,-2.21929 2.60526,-1.83334 0.67544,-1.73684 0.86842,-2.12281 0.19299,-1.25438 3.08772,2.1228 2.60526,1.44737 1.83333,0.48246 -0.48245,-8.97369 -1.83334,-2.60526 -1.35087,-1.92982 0,-14.18421 -3.76316,0 -1.73684,0.19298 -1.73685,1.0614 -2.2193,1.06141 -2.21929,1.64035 c 0,0 -1.1579,0.57894 -1.54386,0.77193 -0.38597,0.19298 -1.92983,0.77193 -1.92983,0.77193 l -1.44737,-1.35088 c 0,0 -0.67543,-1.0614 -1.35087,-1.25439 -0.67544,-0.19298 -1.1579,0 -1.1579,0 0,0 -0.77193,0.77193 -0.77193,1.1579 0,0.38596 -0.19298,1.25438 -0.19298,1.25438 l -0.86842,1.1579 -1.73684,-0.48246 -1.64035,-1.25438 c 0,0 -1.54386,-1.1579 -1.92983,-1.1579 -0.38596,0 -1.0614,0.0965 -1.0614,0.0965 l -0.67544,0.48246 -0.96491,0.48245 -1.44737,-1.0614 c 0,0 -0.86842,-0.77193 -0.96491,-1.15789 -0.0965,-0.38597 -1.1579,-2.41228 -1.1579,-2.41228 0,0 -0.57895,-1.25439 -1.15789,-1.25439 -0.57895,0 -1.25439,0 -1.25439,0 l -1.15789,1.25439 -0.57895,-0.77193 -0.86842,-0.19299 -1.35088,0.38597 -1.0614,1.44737 -0.67544,1.64035 -1.06141,1.73684 -1.54385,-1.0614 -1.83334,-0.77193 -1.35088,-0.77193 z"
       id="path3937"
       inkscape:connector-curvature="0"
       sodipodi:nodetypes="cccccccccccccccccccccscscccccccccccccccccccccccscsccccccccccccccccccsccccccsccccccccccccccsccccccccccccccccccccccccccccccccsccccsccccccscccccccccccc" />
  </g>
  <g
     inkscape:groupmode="layer"
     id="df"
     inkscape:label="distrito-federal"
     style="display:inline"
     transform="translate(-36.05404,-190.90844)">
    <path
       fill="#70614c"
       d="m 366.18221,470.0817 15.35672,0 1.62219,-0.54073 0.10815,-1.94663 0.75702,-0.54073 -0.10815,-1.29775 -0.32443,-1.62219 -0.10815,-1.83848 -1.73034,-1.18961 c 0,0 -2.5955,-1.08146 -3.02808,-1.08146 -0.43259,0 -4.21769,0.10815 -4.21769,0.10815 l -3.35253,0.10815 -0.21629,1.29775 -3.46067,-0.32444 -1.51405,-0.32444 -0.10814,2.05477 -1.51404,1.08146 0.32443,2.16292 0,1.62219 1.08146,0.10815 0.32444,0.86517 z"
       id="path3934"
       inkscape:connector-curvature="0" />
  </g>
<g
     inkscape:groupmode="layer"
     id="ms"
     inkscape:label="mato-grosso-sul"
     style="display:inline"
     transform="translate(-36.05404,-190.90844)">
    <path
       fill="#957a45"
       d="m 304.1949,493.71398 -3.0789,-1.53944 -1.23155,-1.53945 -0.76973,-0.92367 0,-2.15523 0,-2.771 0,-2.30917 0,-1.38551 -1.53945,0.30789 -1.23155,0.76973 -0.61578,1.53944 -0.61578,1.6934 -0.76973,1.53944 -0.92366,0.30789 -1.84734,0.46184 -2.46312,-0.46184 -1.84734,-1.07761 -1.69339,-1.53945 -1.07761,1.07762 -1.07762,1.53944 -2.771,0.30789 -3.69468,-0.76972 -1.69339,-1.23156 -1.3855,-1.53945 -2.15523,-0.61578 -2.77101,-0.30789 -1.53944,-0.76972 -1.38551,-0.92367 -0.76972,0.76973 -3.38679,1.23155 -2.61706,0.30789 -1.3855,0.30789 -1.69339,1.84734 -1.6934,0.92367 -2.00128,1.69339 -2.771,0.15395 -3.69468,0.46183 -0.92367,2.15523 2.00128,2.00128 -0.15394,3.84862 -1.07761,3.38679 0,2.771 0.76972,1.23156 0.15394,2.61706 -1.23155,2.46312 -2.92495,2.771 -1.53945,2.30918 c 0,0 0.46183,1.23155 0.76972,1.84733 0.30789,0.61578 0.92367,1.6934 1.53945,2.15523 0.61578,0.46183 1.23156,1.07761 1.23156,1.07761 l -0.92367,2.46312 -1.69339,0.61578 0,2.46312 0.46183,2.771 0.15395,2.30917 0,2.92496 c 0,0 -0.15395,1.23155 0.76972,1.84733 0.92367,0.61578 1.23156,1.23156 1.23156,1.23156 l 0,2.46312 -0.15395,2.61706 -1.07761,2.30917 -0.92367,1.69339 -0.30789,1.84734 2.30917,0.61578 1.53945,-1.53945 1.69339,0.15395 1.38551,1.23156 4.31045,0.76972 3.23284,0.15394 2.15523,-0.15394 2.30917,-0.92367 3.23284,-0.30789 1.84734,0.30789 c 0,0 4.4644,2.30917 5.23412,2.77101 0.76972,0.46183 1.53945,2.46311 1.53945,2.46311 l 0.15394,4.00257 0,4.77229 c 0,0 0.61578,2.00128 0.76973,2.61706 0.15394,0.61578 2.00128,3.54073 2.30917,4.15651 0.30789,0.61578 1.84734,2.46311 1.84734,2.46311 l 1.23155,0.92367 2.15523,-2.46311 2.15523,-1.53945 1.84734,-0.76973 1.23155,1.38551 1.38551,2.92495 0,2.30917 0.76972,2.46312 c 0,0 -0.15394,0.61578 0.76973,0.30789 0.92366,-0.30789 1.3855,-1.23156 1.3855,-1.23156 l 0.30789,-2.30917 c 0,0 -0.61578,-1.53945 0.15394,-2.15523 0.76973,-0.61578 1.6934,-2.30917 1.6934,-2.30917 l 2.771,-3.54073 1.3855,-2.46312 1.84734,-2.61706 1.23156,-3.0789 1.53945,-1.84733 c 0,0 3.54073,-2.00129 4.15651,-2.15523 0.61578,-0.15395 2.92495,-2.46312 2.92495,-2.46312 l 4.15651,-1.69339 2.771,-2.61706 1.6934,-3.69468 2.771,-4.15651 1.23156,-2.15522 1.23156,-2.61706 2.00128,-2.61707 0.30789,-3.38678 0.92367,-1.84734 2.61706,-1.69339 2.92495,-1.53945 1.23156,-0.92367 0,-3.54073 0.92367,-3.23284 c 0,0 -0.15395,-1.23156 0,-2.15523 0.15394,-0.92366 1.23156,-1.23155 0.15394,-1.84733 -1.07761,-0.61578 -4.00256,-2.61706 -4.00256,-2.61706 0,0 -2.46312,-2.00129 -3.0789,-2.30918 -0.61578,-0.30789 -2.771,-1.53944 -2.771,-1.53944 l -2.46312,-1.38551 c 0,0 -1.07761,-0.30789 -2.15523,-0.30789 -1.07761,0 -4.77228,-0.92367 -4.77228,-0.92367 l -2.30918,-0.61578 -1.07761,-1.23155 -2.77101,-2.15523 -2.46311,-2.00128 z"
       id="path3910"
       inkscape:connector-curvature="0" />
  </g>
  <g
     inkscape:groupmode="layer"
     id="mt"
     inkscape:label="mato-grosso"
     style="display:inline"
     transform="translate(-36.05404,-190.90844)">
    <path
       fill="#c6ae72"
       d="m 199.04127,373.76764 29.76318,0.69757 2.09272,-2.55777 3.7204,0.23252 2.55778,0 1.86019,-3.02282 0.69758,-5.11555 0.69757,-3.48787 0.23253,-4.6505 1.16262,-2.55777 0.69758,0.23253 2.55777,1.86019 2.09272,3.48788 1.62768,2.55777 -0.23253,3.7204 -0.46505,4.18545 1.62768,2.32524 8.37089,8.60342 4.88302,0.69758 17.90442,1.62767 19.29956,1.62768 19.99714,1.39514 16.27674,1.8602 6.74322,0 -3.02283,6.74322 -0.9301,5.34808 -0.69757,2.79029 -1.62767,2.55778 0.23252,7.90584 0,7.90585 0.23253,6.04564 0.23252,4.6505 -2.09272,4.18545 -0.69758,4.65049 c 0,0 -2.09272,1.39515 -1.62767,3.02283 0.46505,1.62767 -0.23253,5.81312 -0.23253,5.81312 l -1.8602,3.02282 -3.25534,1.8602 c 0,0 -1.8602,1.39515 -1.8602,2.55777 0,1.16263 -1.16263,3.7204 -1.16263,3.7204 l -1.8602,3.7204 -3.72039,1.16262 -2.09273,2.55778 -1.39515,1.8602 -2.79029,5.34807 -2.32525,2.55777 -2.32525,1.8602 c 0,0 -1.39515,1.16262 -1.39515,2.32525 0,1.16262 0.23252,4.18544 0.23252,4.18544 l 0.23253,3.48788 -2.7903,3.95292 -0.69757,0.69757 -2.7903,-1.62767 -1.8602,-2.7903 -0.23252,-3.25535 0,-5.11554 -3.02283,1.39515 -1.39515,3.95292 -3.72039,1.39515 -3.25535,-1.16263 -1.8602,-2.09272 -3.25535,2.55777 -1.8602,0.69758 -4.18545,-1.16263 -1.39514,-1.39515 -1.62768,-1.39514 -2.09272,-0.23253 -3.48787,-0.69757 -1.16263,-1.16263 -0.9301,-0.23252 -2.09272,1.8602 -3.25535,0.23252 -2.32525,0 -1.39515,2.32525 -2.7903,1.39515 -1.39514,1.16262 -1.8602,0.23253 -3.7204,0.23252 -1.62767,-0.9301 -1.16263,-3.25534 -2.09272,-1.16263 -2.7903,-2.55777 -2.09272,-2.09273 0,-4.65049 1.39514,-2.55778 0.46505,-2.09272 -0.46505,-0.9301 -1.39514,0.23253 -1.8602,1.16262 -2.09273,0.9301 -11.16119,0.23252 -1.62767,-1.39515 -1.39515,0 -1.39515,1.39515 -3.95292,-0.69757 -0.9301,-1.8602 -0.23253,-5.11555 -1.39515,-2.79029 -2.55777,-2.7903 1.62767,-2.55778 0.69758,-4.41797 1.8602,-3.02282 -0.9301,-5.34807 -1.8602,-4.18545 -1.8602,-2.55777 3.02282,-2.7903 1.8602,-1.8602 0.69758,-2.32525 0.23252,-2.7903 1.8602,-1.62767 1.62767,-2.09272 1.8602,-3.48788 0.46505,-1.62767 -0.69757,-1.8602 -0.69758,-2.32525 -0.9301,-2.09272 -0.23252,-1.39515 0.9301,-1.62767 0.9301,-1.16263 0,-1.62767 -0.46505,-1.16263 -1.62768,-1.39515 -2.09272,0 -2.7903,0 -1.8602,-0.46505 c 0,0 -2.32525,-0.23252 -3.25534,-0.23252 -0.9301,0 -3.02283,-0.69758 -3.02283,-0.69758 l -2.32525,-1.39514 -2.79029,-2.32525 -1.39515,-1.8602 -0.23253,-3.7204 0.9301,-2.55777 1.62767,-4.18545 0.69758,-3.02282 -0.69758,-2.7903 -0.93009,-1.8602 0,-2.7903 z"
       id="path3905"
       inkscape:connector-curvature="0" />
  </g>  
</g> <!-- Fim Região CENTRO-OESTE -->  
  
<g id="sudeste" class="regiao"> <!-- Região SUDESTE -->  
  <g
     inkscape:groupmode="layer"
     id="mg"
     inkscape:label="minas-gerais"
     style="display:inline"
     transform="translate(-36.05404,-190.90844)">
    <path
       fill="#f0e7ae"
       d="m 338.49684,505.98616 -1.51404,0.54072 -2.27107,1.62219 -0.54073,0.86517 0,1.4059 -0.43258,1.51404 -0.32444,1.51405 -0.21629,1.94662 -0.10815,1.73034 0.64888,0.43258 1.62219,-0.10814 2.16292,-1.18961 2.48736,-0.86517 1.1896,0.75702 2.8118,1.29776 1.94662,0.64887 2.05478,0.10815 1.1896,-0.10815 0.86517,-0.75702 c 0,0 0.21629,-0.21629 0.86517,-0.10815 0.64887,0.10815 1.94662,0.10815 1.94662,0.10815 l 1.4059,0.43258 1.08146,0.86517 -0.10814,0.86517 0.21629,2.05477 c 0,0 -0.64888,1.83848 -0.21629,1.94663 0.43258,0.10815 0.43258,0.32444 1.40589,0.43258 0.97332,0.10815 1.51405,0 2.16292,-0.21629 0.64888,-0.21629 0.64888,-0.86517 1.08146,-0.86517 0.43259,0 1.51404,-0.54073 2.16292,-0.54073 0.64888,0 0.86517,-0.97331 0.86517,-0.97331 l 1.08146,-0.75702 1.83848,0.32444 4.21769,-0.10815 1.4059,0 0.97331,-1.08146 1.94663,-1.83848 1.83848,-0.43258 1.62219,0.10814 1.51404,0.64888 1.51405,2.70365 -0.10815,2.16292 0.32444,1.51404 0.64887,2.05477 0.32444,1.73034 c 0,0 -0.64887,1.1896 -0.64887,1.62219 0,0.43258 -0.10815,1.29775 -0.10815,1.29775 l 2.70365,4.65027 1.62219,1.4059 c 0,0 1.29775,0.54073 1.83848,0.54073 0.54073,0 1.94663,0 1.94663,0 l 0.75702,1.18961 -1.18961,2.27106 -1.29775,2.16292 c 0,0 0.21629,1.83848 0.43259,2.27107 0.21629,0.43258 0.86516,2.37921 0.86516,2.37921 l 0.43259,2.27106 1.08146,2.37921 c 0,0 1.62219,1.94663 1.83848,2.37922 0.21629,0.43258 2.48736,2.70364 2.48736,2.70364 l 3.02808,0.2163 2.48736,-1.08146 2.27106,-1.4059 1.73034,-0.97331 3.78511,-1.4059 2.81179,-0.75702 1.83848,-1.08146 1.18961,-0.10815 0.97331,-1.51404 1.83848,-0.32444 2.70365,-0.43258 2.91994,-0.54073 1.73034,-1.29776 2.16292,-0.21629 3.24438,-0.32444 c 0,0 6.38061,-1.40589 6.81319,-1.40589 0.43259,0 4.21769,-1.4059 4.21769,-1.4059 l 2.8118,-2.05477 1.73033,-3.13624 0.97332,-3.7851 0.10814,-3.56882 2.37922,-0.64888 0.54072,-1.62219 3.24438,-5.51544 4.2177,-2.37921 2.48735,-4.10955 1.4059,-3.78511 1.08146,-2.5955 1.62219,-3.67696 1.29775,-4.32584 1.94663,-3.89325 2.16292,-2.05478 1.62219,-2.16292 1.08146,-2.27106 0.86516,-0.43259 -1.40589,-1.94662 -1.51405,-1.73034 -1.1896,-1.29775 c 0,0 -1.4059,-1.4059 -0.75702,-2.48736 0.64887,-1.08146 1.73033,-2.37921 2.16291,-3.02808 0.43259,-0.64888 1.51405,-3.35253 1.51405,-3.35253 l 1.29775,-3.67696 1.51404,-1.4059 2.59551,-2.16292 c 0,0 0.43258,-1.1896 -0.10815,-1.73033 -0.54073,-0.54073 -1.73034,-1.62219 -1.73034,-1.62219 l -1.62218,-0.64888 -2.91995,-1.73033 c 0,0 -1.1896,-0.43259 -1.62218,-0.54073 -0.43259,-0.10815 -2.16292,-0.10815 -2.16292,-0.10815 l -7.46207,0.21629 -1.73034,-2.81179 -3.02809,-2.27107 c 0,0 -1.40589,-0.97331 -1.94662,-1.40589 -0.54073,-0.43259 -2.37922,-1.62219 -2.37922,-1.62219 l -2.81179,-0.43259 -2.81179,0.10815 -2.05478,-2.16292 -1.29775,-1.73034 -1.4059,-1.62218 -2.05477,-0.86517 c 0,0 -1.62219,-1.29775 -2.05477,-1.29775 -0.43259,0 -1.08146,-0.2163 -1.73034,0.10814 -0.64887,0.32444 -1.08146,-0.21629 -1.73033,0.54073 -0.64888,0.75702 -1.4059,0.43259 -1.83849,0.97332 -0.43258,0.54073 -1.83848,0.64887 -1.83848,0.64887 0,0 -1.1896,-0.86517 -1.08146,-1.29775 0.10815,-0.43258 0,-1.73034 0,-1.73034 l -0.21629,-2.5955 1.51405,-0.86517 -0.2163,-1.29775 -0.64887,-0.64887 -2.16292,-0.10815 -1.08146,0.54073 -0.54073,1.08146 -1.94663,0.32444 -2.05477,0.10814 -1.4059,0 -0.97331,0.86517 -1.62219,0.21629 c 0,0 -1.29775,0.2163 -1.73034,1.08146 -0.43258,0.86517 -1.83848,2.05478 -1.83848,2.05478 l -2.27106,1.83848 -1.83848,1.51404 -1.4059,0.97331 -2.48736,1.08146 -1.29775,0.54073 -2.5955,0.75703 -2.27107,-1.29776 -3.02808,-0.75702 -2.05478,-1.94662 -1.83848,-1.4059 c 0,0 -0.75702,2.70365 -0.75702,3.13623 0,0.43258 -0.43258,1.83848 -0.43258,1.83848 l -1.73034,1.18961 -1.29775,0.43258 c 0,0 -1.51405,1.18961 -1.18961,1.62219 0.32444,0.43258 1.18961,3.46067 1.18961,3.46067 l 0.64887,1.94663 c 0,0 0.43259,0.10814 0.10815,0.64887 -0.32444,0.54073 -1.62219,2.05478 -1.62219,2.05478 l -1.51404,1.29775 -1.29775,-0.10815 -0.2163,2.70365 -4.0014,0.43259 c 0,0 0.2163,2.81179 0.64888,3.02808 0.43258,0.21629 1.62219,2.16292 1.62219,2.16292 0,0 1.73033,1.94663 1.94663,2.5955 0.21629,0.64888 0.43258,2.8118 0.43258,2.8118 0,0 -0.32444,0.54073 -0.54073,0.97331 -0.21629,0.43259 -1.94663,1.94663 -1.94663,1.94663 l 0.64888,1.83848 1.1896,1.94663 0.2163,0.32444 -0.97332,2.16292 -0.21629,2.5955 -1.62219,2.16292 -1.94663,1.73033 -1.29775,1.08146 -2.27106,0.43259 c 0,0 -0.43259,-1.4059 -1.4059,-1.08146 -0.97331,0.32443 -3.24438,0.43258 -3.24438,0.43258 l -2.5955,-0.86517 c 0,0 0.32444,-1.29775 -1.08146,-1.1896 -1.4059,0.10814 -4.43399,0.32444 -4.43399,0.32444 l -2.91994,0.75702 c 0,0 -0.54073,-0.21629 -1.40589,1.08146 -0.86517,1.29775 -1.4059,2.48735 -1.4059,2.48735 l -1.62219,-0.54073 c 0,0 -0.75702,-1.29775 -1.29775,-1.29775 -0.54073,0 -1.94663,-0.32444 -2.16292,0.32444 -0.21629,0.64888 -3.35253,1.29775 -4.21769,1.51404 -0.86517,0.2163 -3.24438,0 -3.24438,0 0,0 -1.4059,0.75703 -1.4059,1.4059 0,0.64888 -1.51404,1.73034 -1.51404,1.73034 0,0 0.32443,0.75702 -0.10815,1.29775 -0.43258,0.54073 -1.29775,0.75702 -1.29775,0.75702 z"
       id="path3931"
       inkscape:connector-curvature="0" />
  </g>
  <g
     inkscape:groupmode="layer"
     id="es"
     inkscape:label="espirito-santo"
     style="display:inline"
     transform="translate(-36.05404,-190.90844)">
    <path
       fill="#f6ff06"
       d="m 448.94621,531.08757 1.66449,1.73107 1.99739,1.46475 c 0,0 0.93212,0.19973 1.66449,0.26631 0.73238,0.0666 0.86554,0 1.86423,0.0666 0.99869,0.0666 1.73107,-0.46605 2.39687,-0.39947 0.66579,0.0666 1.99738,0.66579 1.99738,0.66579 l 1.06528,0.86554 0.79895,0.73237 0.59922,-1.19843 c 0,0 -1.13185,-1.46475 -0.3329,-2.19713 0.79896,-0.73237 1.33159,-1.59791 1.86423,-1.86423 0.53264,-0.26631 1.26501,-1.06527 1.59791,-1.26501 0.3329,-0.19974 1.59791,-1.73107 1.59791,-1.73107 0,0 0.39948,-1.13185 0.99869,-1.66449 0.59922,-0.53263 1.3316,-1.53133 1.53133,-1.86423 0.19974,-0.33289 0.0666,-1.26501 0.39948,-1.99738 0.3329,-0.73238 0.53264,-1.93081 0.53264,-1.93081 0,0 0.39948,-1.53133 0.46606,-2.06397 0.0666,-0.53264 0,-1.26501 0.39947,-1.79765 0.39948,-0.53264 1.46476,-2.19713 1.46476,-2.19713 0,0 1.26501,-1.33159 1.66449,-1.79764 0.39947,-0.46606 -1.19844,0.33289 0.86553,-1.3316 2.06397,-1.66449 1.73107,-1.46475 2.06397,-1.73107 0.3329,-0.26631 0.0666,-0.79895 0.59921,-1.79764 0.53264,-0.9987 0.59922,-1.19844 0.39948,-1.73107 -0.19974,-0.53264 -0.79895,-0.73238 -1.26501,-1.79765 -0.46606,-1.06528 -0.6658,-1.06528 -0.79896,-1.86423 -0.13316,-0.79896 0.39948,-2.53003 0.59922,-3.06266 0.19974,-0.53264 1.19843,-2.39687 1.19843,-2.39687 l -0.0666,-0.66579 -1.39817,-0.73238 -2.39686,-1.66449 c 0,0 -1.3316,-1.46475 -1.73107,-1.53133 -0.39948,-0.0666 -1.66449,-0.0666 -1.66449,-0.0666 0,0 -1.19844,0.53264 -1.13186,0.99869 0.0666,0.46606 -0.93211,1.93081 -0.93211,1.93081 l -1.26501,1.46475 -1.33159,1.53133 -1.46476,1.86423 -2.06396,4.86031 -0.73238,2.66319 -0.73237,2.13054 -1.39818,2.53003 -0.86553,2.19712 -0.39948,1.53134 -1.06527,1.46475 -1.19843,2.39686 c 0,0 -1.26502,1.46475 -1.46476,1.73107 -0.19973,0.26632 -2.2637,1.33159 -2.2637,1.33159 0,0 -1.99739,1.3316 -2.06397,1.93081 -0.0666,0.59922 -0.73238,1.59791 -0.99869,2.33029 -0.26632,0.73237 -1.13186,1.73107 -1.13186,1.73107 0,0 -0.73237,0.46605 -0.59921,0.86553 0.13316,0.39948 0.66579,1.33159 0.66579,1.33159 z"
       id="path3928"
       inkscape:connector-curvature="0" />
  </g>
  <g
     inkscape:groupmode="layer"
     id="rj"
     inkscape:label="rio-janeiro"
     style="display:inline"
     transform="translate(-36.05404,-190.90844)">
    <path
       fill="#ffa88a"
       d="m 413.94091,550.82074 2.40796,1.49065 2.17864,1.14665 0.80266,1.14665 -0.80266,1.14665 -0.34399,1.49065 0.91732,-0.344 4.35727,0.344 0.57332,0.68799 c 0,0 0.11467,0.91732 0.80266,0.91732 0.68799,0 0.344,-0.344 1.71998,-0.22933 1.37598,0.11466 1.03198,-0.57333 1.71997,-0.45866 0.68799,0.11466 0.91732,0.11466 1.94931,0.11466 1.03198,0 1.83464,-0.91732 1.83464,-0.91732 l 1.71998,-0.45866 0,-1.83464 0.91732,-2.2933 1.37598,-0.45866 c 0,0 0.45866,0.45866 0.57332,1.26131 0.11467,0.80266 -0.22933,1.83464 -0.22933,1.83464 l 0.344,1.26132 c 0,0 0.22933,0.22933 1.14665,0.344 0.91732,0.11466 9.97586,-0.22933 9.97586,-0.22933 l 0.22933,-3.43996 c 0,0 0.80265,-1.26131 1.60531,-1.26131 0.80266,0 1.49065,-1.49065 1.49065,-1.49065 0,0 0.45866,-0.68799 3.43995,-1.14665 2.98129,-0.45866 3.55462,-2.52263 3.55462,-2.52263 l 1.9493,-1.83464 0.91732,-1.37598 -1.14665,-2.17864 c 0,0 0.68799,-1.03198 0.80266,-1.49064 0.11466,-0.45867 1.37598,-3.43996 1.37598,-3.43996 0,0 -1.71998,-2.2933 -2.40797,-2.2933 -0.68799,0 -2.86663,0.11467 -3.66928,0.11467 -0.80266,0 -2.75196,0.11466 -3.43995,-0.344 -0.68799,-0.45866 -2.40797,-1.60531 -2.40797,-1.60531 0,0 -1.14665,-1.37598 -1.60531,-1.37598 -0.45866,0 -2.2933,0 -2.2933,0 l -0.57333,5.61859 -1.26131,2.86662 -0.68799,2.06398 -2.6373,1.49064 -3.21062,1.49065 c 0,0 -2.40797,0.80265 -2.86663,0.80265 -0.45866,0 -2.98129,0.22933 -2.98129,0.22933 l -4.35727,0.91732 -3.43996,-0.11466 -1.49064,1.60531 -4.47194,1.03199 -3.32529,0.34399 z"
       id="path3925"
       inkscape:connector-curvature="0" />
  </g>
  <g
     inkscape:groupmode="layer"
     id="sp"
     inkscape:label="sao-paulo"
     style="display:inline"
     transform="translate(-36.05404,-190.90844)">
    <path
       fill="#f6f75b"
       d="m 333.33136,518.59986 -0.68799,2.2933 -1.14665,1.26131 -2.40796,1.37598 -2.17864,0.688 -1.03199,1.14665 c 0,0 -1.14665,1.60531 -1.03198,2.17863 0.11466,0.57333 -0.22933,2.06397 -0.22933,2.06397 l -1.49065,2.06398 -1.03198,2.40796 -1.14665,2.17864 c 0,0 -1.26132,2.06397 -1.37599,2.52263 -0.11466,0.45866 -0.80265,0.80265 -0.91732,1.37598 -0.11466,0.57333 -1.49064,2.17864 -1.49064,2.17864 l -1.03199,1.9493 -0.80265,1.37598 -1.49065,1.14665 -1.49065,1.37599 -1.83464,1.26131 c 0,0 -1.83464,0.11467 -1.83464,0.91732 0,0.80266 -0.57332,1.03199 -0.57332,1.03199 l -0.45866,0.91732 2.86662,0.45866 c 0,0 1.71998,0.57332 2.29331,0.57332 0.57332,0 2.75196,-1.26131 3.21062,-1.26131 0.45866,0 2.2933,-0.91732 2.86662,-0.68799 0.57333,0.22933 4.47194,1.71997 4.47194,1.71997 0,0 3.89861,1.14665 5.04526,1.37598 1.14666,0.22933 1.71998,0.22933 3.78395,1.03199 2.06397,0.80266 3.89861,1.26132 3.89861,1.26132 l 2.29331,0.68799 c 0,0 2.63729,-1.03199 3.09595,-0.68799 0.45866,0.34399 2.40797,0 2.98129,0.34399 0.57333,0.344 2.52264,0.11467 2.86663,0.68799 0.344,0.57333 3.43995,1.60531 3.43995,1.60531 l 1.49065,1.83464 -0.344,2.17864 c 0,0 -0.22933,1.49065 0,1.94931 0.22933,0.45866 0.80266,1.49064 1.03199,1.9493 0.22933,0.45866 0.11467,1.94931 0.45866,2.52263 0.344,0.57333 0.22933,0.45866 0.91732,1.83464 0.68799,1.37599 1.71998,2.17864 1.83464,2.6373 0.11467,0.45866 0.11467,2.75196 0.11467,3.21062 0,0.45866 -0.22933,1.71998 -0.22933,1.71998 l 1.03198,1.49065 c 0,0 0.22933,0.11466 1.26132,0.34399 1.03198,0.22933 1.37598,-0.68799 1.83464,-0.68799 0.45866,0 1.49065,-0.80266 1.49065,-0.80266 l 2.52263,0.22934 0.68799,1.71997 -0.22933,3.21062 2.17863,0.68799 1.83464,-0.34399 2.6373,1.03198 1.60531,-1.49064 1.60531,-1.60531 c 0,0 0.68799,-1.60531 1.26132,-1.71998 0.57332,-0.11466 2.06397,-1.49064 2.86663,-1.49064 0.80265,0 2.17863,-0.91733 2.17863,-0.91733 0,0 1.37598,-1.49064 2.06397,-1.49064 0.68799,0 1.71998,-1.03199 1.71998,-1.03199 l 1.71998,-0.80265 c 0,0 1.71997,-1.60531 2.63729,-1.94931 0.91732,-0.34399 0.57333,-0.57332 2.06397,-1.14665 1.49065,-0.57332 1.60531,-1.49065 2.06398,-1.71998 0.45866,-0.22933 0.68799,-1.26131 1.49064,-1.49064 0.80266,-0.22933 2.52263,-1.49065 2.52263,-1.49065 0,0 1.14665,-1.26131 1.71998,-1.26131 0.57332,0 1.71997,0 1.71997,0 l 1.60532,0.22933 c 0,0 0.80265,1.71997 1.37598,1.71997 0.57332,0 1.60531,-0.68799 1.60531,-0.68799 l 0.57332,-1.26131 1.14665,-1.26132 0.68799,-0.45866 3.43996,-2.17864 3.21062,-0.45866 2.06397,-1.26131 -0.45866,-1.03199 -0.91732,-1.03198 0.68799,-1.03199 1.49065,-0.68799 c 0,0 0.80265,-0.45866 1.26131,-0.57332 0.45866,-0.11467 1.26132,-0.80266 1.26132,-0.80266 l 0.22933,-1.49065 c 0,0 -1.60531,-1.03198 -2.06397,-1.14665 -0.45866,-0.11466 -2.75197,-1.03198 -2.75197,-1.03198 l -0.91732,-0.91732 -2.17863,0 c 0,0 -1.14665,1.03198 -1.60531,1.37598 -0.45866,0.34399 -2.86663,0.45866 -2.86663,0.45866 l -1.83464,0.91732 -1.83464,0.45866 c 0,0 -0.57333,-0.22933 -0.91732,0.22933 -0.344,0.45866 -1.94931,1.37598 -1.94931,1.37598 0,0 0.80266,-0.45866 -0.45866,0.57333 -1.26132,1.03198 -3.89861,1.37598 -3.89861,1.37598 l -1.60531,-0.45866 -1.26132,-1.49065 -1.14665,-2.06397 -0.80266,-1.37598 -1.03198,-1.49065 -1.14665,-1.83464 -0.45866,-1.71998 -0.344,-1.9493 -0.68799,-1.49065 c 0,0 0,-0.80265 0.57333,-1.37598 0.57332,-0.57332 1.26131,-1.71997 1.26131,-1.71997 l 1.14665,-1.94931 -1.49064,-1.37598 -2.17864,-0.22933 -1.83464,-0.68799 -0.91732,-1.14665 -1.37598,-1.83464 -1.60531,-3.32529 1.14665,-1.94931 -0.344,-2.52263 -1.03198,-1.9493 0.22933,-1.94931 c 0,0 0,-1.03199 -0.344,-1.71998 -0.34399,-0.68799 -0.80265,-1.37598 -0.80265,-1.37598 l -1.71998,-2.06397 c 0,0 -0.57332,0 -1.83464,0.11467 -1.26132,0.11466 -1.94931,-0.344 -2.6373,0.22933 -0.68799,0.57332 -1.37598,1.14665 -1.37598,1.14665 l -1.14665,1.71997 -0.80265,0.45866 -1.94931,0 -3.21062,-0.11466 -2.17864,-0.45866 c 0,0 -1.26131,0.34399 -1.03198,0.80265 0.22933,0.45866 -0.57333,1.60531 -0.57333,1.60531 l -2.40797,-0.22933 -0.91732,1.26132 -2.63729,0.11466 -0.344,-2.17863 c 0,0 0.344,-1.26132 0.57333,-1.71998 0.22933,-0.45866 0,-1.60531 0,-1.60531 l -1.49065,-0.45866 c 0,0 -0.34399,-0.57332 -1.14665,-0.68799 -0.80265,-0.11466 -2.06397,-0.11466 -2.06397,-0.11466 l -1.49065,0.22933 -0.22933,1.14665 -1.26131,0.11466 -1.71998,0 -3.09596,-1.03198 c 0,0 -1.60531,-0.45866 -2.06397,-0.68799 -0.45866,-0.22933 -1.49064,-1.14666 -1.49064,-1.14666 l -1.14665,0.22934 -0.68799,0.91732 -0.57333,0.22933 -1.83464,0.68799 -0.80266,0.11466 -1.71997,0.344 z"
       id="path3922"
       inkscape:connector-curvature="0" />
  </g>
</g> <!-- Fim Região SUDESTE -->  
  
<g id="sul" class="regiao"> <!-- Região SUL-->  
  <g
     inkscape:groupmode="layer"
     id="rs"
     inkscape:label="rio-grande-sul"
     style="display:inline"
     transform="translate(-36.05404,-190.90844)">
    <path
       fill="#ff8342"
       d="m 297.71361,610.63232 2.27774,-0.13398 1.47383,0 1.33984,0.40195 1.47383,0.80391 c 0,0 1.33985,0.13398 2.14375,0.13398 0.80391,0 1.87579,0 2.54571,0 0.66992,0 3.34961,0 3.34961,0 l 1.60782,0.13399 1.33984,0.53594 2.14375,0.66992 1.33985,-0.13398 2.67969,0.40195 2.67969,1.7418 2.00977,0.40195 1.33984,0.40195 1.87579,1.20587 2.41172,2.5457 3.08164,2.41172 1.47383,2.00977 1.07188,2.14375 2.14375,1.33985 2.41172,1.47383 2.94766,0 2.54571,0.53594 c 0,0 -0.26797,1.07187 -0.26797,1.60781 0,0.53594 -1.33985,2.81368 -1.33985,2.81368 l -1.20586,2.81367 -0.53594,2.54571 c 0,0 0.40196,0.93789 0.93789,0.93789 0.53594,0 1.47383,-0.26797 1.47383,-0.26797 l 1.20587,0.40195 0.93789,0.66992 0.26797,1.07188 -5.89532,8.17306 -3.61758,6.56524 -4.42149,6.56524 -4.28751,4.42149 -1.33984,2.14375 -2.41173,1.20586 -2.94766,0.40196 -2.41172,2.27773 c 0,0 -2.00976,3.08165 -2.14375,3.61758 -0.13398,0.53594 -1.47383,2.00977 -1.47383,2.94766 0,0.9379 -0.53594,2.41173 -0.53594,2.94766 0,0.53594 -1.33984,4.01954 -1.33984,4.01954 l -6.02931,4.95743 c 0,0 -1.60781,1.20586 -2.14375,1.7418 -0.53594,0.53593 -3.61758,2.67969 -3.61758,2.67969 l -1.60781,1.60781 -1.47383,-2.41172 c 0,0 -0.9379,-2.14375 -0.9379,-2.81368 0,-0.66992 -0.13398,-2.00976 0.80391,-2.5457 0.93789,-0.53594 3.4836,-4.28751 3.4836,-4.28751 l -0.53594,-2.94766 -3.08164,-2.67969 c 0,0 -2.54571,-1.60781 -3.08165,-2.5457 -0.53593,-0.93789 -2.81367,-3.34962 -2.81367,-3.34962 l -3.61758,-3.21562 -2.94766,-2.14376 -2.67969,-2.14375 -3.4836,-1.07188 -2.54571,-1.33984 -2.00977,-2.67969 c 0,0 -1.47382,-2.00977 -2.14375,-2.14375 -0.66992,-0.13399 -2.00977,-0.26797 -2.00977,-0.26797 l -1.33984,1.33984 -1.07188,1.20586 -1.7418,1.60782 c 0,0 -1.33984,0.40195 -1.47383,-0.13399 -0.13398,-0.53593 -0.53593,-3.75156 -0.53593,-3.75156 l -0.40196,-1.87579 -1.47383,-1.47383 c 0,0 -1.33984,-1.47383 -1.87578,-1.60781 -0.53594,-0.13398 -1.33985,-0.80391 -1.33985,-0.80391 l -1.47383,-1.47383 -1.60781,-1.7418 c 0,0 -0.80391,-0.66992 -1.47383,-0.53593 -0.66992,0.13398 -1.87578,0.26796 -1.87578,0.26796 l -1.87579,2.27774 -1.47383,1.33985 -2.14375,0.93789 -2.27773,-1.87578 -0.13399,-1.60782 3.08164,-3.75157 3.88556,-3.21562 2.67969,-3.61759 1.60781,-2.00976 3.4836,-2.41173 c 0,0 0.13398,-0.53593 0.80391,-2.00976 0.66992,-1.47383 1.20586,-2.67969 1.20586,-2.67969 l 1.47383,-1.60782 2.81367,-2.00977 c 0,0 2.81368,-1.07187 3.75157,-1.07187 0.93789,0 2.14375,-1.60782 2.14375,-1.60782 l 1.47383,-2.81367 2.00977,-1.47383 2.67969,-0.66992 2.81367,-0.80391 1.07188,-1.47383 1.33984,-2.00977 3.08165,-1.47383 2.41172,-1.47383 1.7418,-1.60781 2.27774,-0.93789 z"
       id="path3919"
       inkscape:connector-curvature="0" />
  </g>
  <g
     inkscape:groupmode="layer"
     id="sc"
     inkscape:label="santa-catarina"
     style="display:inline"
     transform="translate(-36.05404,-190.90844)">
    <path
       fill="#9a9383"
       d="m 363.52044,597.00395 -1.60141,0.0843 -2.52854,0.25286 -2.27569,1.26427 -2.69712,-0.33714 -1.93855,1.26427 -2.52854,-0.92713 -1.6857,-1.34856 -2.35998,-0.84285 -1.34855,-0.58999 -1.34856,0 -1.51713,0 -1.34855,0.50571 -1.51713,0.92713 -3.03425,1.26427 -1.43285,0.84285 -1.93855,0.84285 -1.93855,1.34856 -1.76998,0.75856 -0.75856,1.01142 -2.02284,0.92713 -2.44426,0.25286 -2.02283,0 -1.26428,-0.67428 -1.68569,-0.67428 -1.26428,-0.67428 -1.51712,-0.16857 -0.75857,-0.16857 -1.26427,-0.67428 -0.75856,-0.50571 -0.67428,-0.42142 -1.93855,-0.25286 -1.01142,0.0843 -1.76998,0.16857 -2.69711,0.0843 -1.93856,-0.58999 -2.02283,-0.25285 -1.93855,-0.25286 -0.67428,0 -0.50571,0.67428 -0.84285,0.67428 0.33714,9.94561 c 0,0 4.55138,-0.42143 4.97281,-0.0843 0.42142,0.33714 1.17998,1.26427 1.51712,1.26427 0.33714,0 0.0843,0 1.17999,0 1.0957,0 3.37139,0 3.37139,0 l 2.27569,0.0843 2.27569,0.0843 c 0,0 1.09571,0.92714 1.76998,0.92714 0.67428,0 2.27569,0.0843 2.27569,0.0843 0,0 1.01142,-0.25285 2.02284,-0.16857 1.01142,0.0843 1.6857,0 2.10712,0.42143 0.42143,0.42142 1.34856,1.34855 1.6857,1.51712 0.33714,0.16857 1.68569,0.92714 1.68569,0.92714 0,0 2.35998,0.33714 2.69712,0.42142 0.33714,0.0843 1.60141,0.75856 1.68569,1.0957 0.0843,0.33714 1.85427,1.51713 1.85427,1.85427 0,0.33714 1.34856,0.92713 1.85427,1.17999 0.50571,0.25285 1.0957,0.67428 1.60141,1.34855 0.50571,0.67428 2.10712,1.76999 2.10712,2.10712 0,0.33714 0.42142,1.85427 0.42142,1.85427 l 1.34856,1.43284 c 0,0 1.51713,0.42143 1.93855,0.75857 0.42143,0.33714 2.02284,1.26427 2.02284,1.26427 l 0.84285,-0.0843 3.2871,0.0843 1.09571,0.67428 0.16857,1.17998 -0.59,1.60142 -1.01142,1.17998 -1.01141,1.6857 c 0,0 -0.75857,1.17999 -0.75857,1.51713 0,0.33714 -0.27311,1.81687 -0.18881,2.15401 0.0843,0.33714 -0.19521,0.2326 -0.0266,0.90688 0.16857,0.67428 1.56402,-0.36378 2.40687,-0.0266 0.84285,0.33714 1.8649,0.85773 2.79203,1.0263 0.92713,0.16857 1.12346,-1.15861 1.12346,-1.15861 l 0.80446,-1.4691 c 0,0 0.75856,-1.85427 1.17999,-2.10712 0.42142,-0.25286 0.92713,-1.34856 0.92713,-1.34856 l 2.44426,-1.17999 1.43284,-1.26427 2.19141,-1.60141 c 0,0 1.26427,-1.51713 2.10712,-1.6857 0.84285,-0.16857 1.85426,-1.17998 1.85426,-1.17998 0,0 0.16857,-2.35998 0.33714,-3.03426 0.16857,-0.67428 0.16857,-6.82707 0.16857,-6.82707 l -0.25285,-1.76998 -1.09571,-1.26427 c 0,0 0.67428,-4.4671 0.33714,-5.22566 -0.33714,-0.75856 -0.5057,-5.22566 -0.5057,-5.22566 l 0.0843,-1.93855 -0.0843,-1.17999 c 0,0 -0.84285,-0.33714 -0.92714,-0.84285 -0.0843,-0.50571 -0.0843,-1.51712 -0.0843,-1.51712 l 1.01142,-0.33714 1.01141,0.25285 1.01142,0.33714 c 0,0 0.42143,0.42142 0.75856,0 0.33714,-0.42142 0.75857,-1.26427 0.50571,-1.60141 -0.25285,-0.33714 -0.92713,-1.01142 -0.92713,-1.01142 z"
       id="path3916"
       inkscape:connector-curvature="0"
       sodipodi:nodetypes="cccccccccccccccccccccccccccccccccccccccccccsscccscccscccscssccsccccccccssssscccccccscscccscccccccccccc" />
  </g>
  <g
     inkscape:groupmode="layer"
     id="pr"
     inkscape:label="parana"
     style="display:inline"
     transform="translate(-36.05404,-190.90844)">
    <path
       fill="#ffd5bd"
       d="m 290.11429,576.3996 1.07582,-1.55397 0.23907,-1.79304 0,-2.03212 1.07583,-1.3149 c 0,0 1.43443,-2.27118 1.91258,-2.62979 0.47814,-0.35861 2.15165,-2.86887 2.15165,-2.86887 l 1.67351,-2.51026 1.19536,-2.51026 1.07582,-2.62979 1.07583,-1.3149 1.91258,-1.55397 3.10794,-0.83676 2.74933,-0.11953 c 0,0 2.74933,0.35861 3.46655,0.23907 0.71722,-0.11954 2.9884,-0.59768 2.9884,-0.59768 l 1.55397,-1.07583 0.95629,0 c 0,0 3.10794,0.83676 3.58609,0.71722 0.47814,-0.11954 2.15165,1.07583 2.15165,1.07583 l 2.27119,0.3586 3.10794,0.95629 3.82515,0.59768 1.91258,1.07583 1.79305,0.95629 2.27118,-0.35861 c 0,0 2.86887,-0.11953 3.46655,0 0.59768,0.11954 3.46655,0.23907 3.46655,0.23907 l 2.9884,1.19537 2.15166,0.95628 c 0,0 0.95628,1.07583 1.19536,1.91258 0.23907,0.83676 0.23907,1.67351 0.23907,1.67351 0,0 -0.35861,0.83675 -0.35861,1.67351 0,0.83675 -0.23907,1.79304 0.11954,2.27118 0.35861,0.47815 1.91258,2.6298 2.27118,3.46655 0.35861,0.83676 0.59769,1.67351 1.07583,2.39073 0.47814,0.71721 1.19536,1.43443 1.19536,2.03211 0,0.59768 0,1.91258 -0.23907,2.39072 -0.23907,0.47815 -0.59768,0.83676 -0.59768,0.83676 l 0.11953,2.51026 1.43444,0.59768 c 0,0 1.55397,0.47814 2.03211,-0.11954 0.47815,-0.59768 0.71722,-1.3149 0.71722,-1.3149 l 2.39072,0.23908 1.79305,0.59768 0.11953,1.79304 0,2.03211 1.91258,1.07583 2.51026,-0.11954 c 0,0 1.19536,0.47815 1.19536,0.95629 0,0.47815 -0.83675,3.10794 -0.83675,3.10794 l -1.55397,0.11954 -2.15165,-1.19536 -1.43444,0.83675 -1.55397,0.83675 0.35861,0.95629 1.67351,0.83676 1.07582,1.19536 -0.83675,1.19536 -1.07582,1.55397 -0.71722,1.79304 -1.43444,0 -1.19536,-0.11953 -1.43443,0.47814 -1.19536,0.23907 -1.79305,0.11954 -1.19536,0.11954 -0.95629,0.95629 -1.43443,0.47814 -3.22748,-0.83675 -1.07582,-0.95629 -0.83676,-0.47815 -1.55397,-1.07582 -2.03211,-0.35861 -2.51026,0.11954 -1.19536,0.71721 -2.27119,1.3149 -1.67351,0.71722 -2.9884,1.6735 -1.55397,0.71722 -2.03212,1.3149 -1.07582,1.19536 -2.03212,1.07583 -2.62979,0.23907 -2.98841,0 -1.55397,-0.83676 -2.86886,-0.95628 -1.91258,-0.23908 -2.27119,-1.31489 -0.71722,-0.47815 -4.90098,0.23907 -2.51026,-0.23907 -1.91258,-0.83675 -1.43443,-0.47815 -2.15165,0 -0.83676,-1.07582 -1.19536,-1.3149 c 0,0 -0.59768,-0.47815 -0.35861,-1.07583 0.23908,-0.59768 0.11954,-2.9884 0.11954,-2.9884 l -1.19536,-1.43443 -1.3149,-0.95629 -0.95629,-0.11954 -1.3149,1.07583 -1.55397,-0.23908 -1.91258,-0.23907 -1.91258,-0.83675 c 0,0 0.35861,-1.3149 0.59769,-1.79304 0.23907,-0.47815 0.47814,-2.74934 0.47814,-2.74934 l 1.43443,-3.58608 0.71722,-1.07583 0.59768,-2.15165 0.11954,-1.3149 z"
       id="path3913"
       inkscape:connector-curvature="0"
       sodipodi:nodetypes="cccccsccccccccscccscccccccccccccsssssscccscccccccsccccccccccccccccccccccccccccccccccccccccccccccccccccccccccccccc" />
  </g>
</g> <!-- Fim Região SUL -->  
</g>

</svg>
