<?xml version="1.0" standalone="no"?>
<!DOCTYPE svg PUBLIC "-//W3C//DTD SVG 1.1//EN" "http://www.w3.org/Graphics/SVG/1.1/DTD/svg11.dtd" >
<svg>
<metadata>
Created by FontForge 20110222 at Mon Dec 23 10:10:06 2013
 By Orthosie Webhosting
Copyright (c) 2013 by Absolut Foundry. All rights reserved.
</metadata>
<defs>
<font id="MohaveBold" horiz-adv-x="495" >
  <font-face 
    font-family="MohaveBold"
    font-weight="700"
    font-stretch="normal"
    units-per-em="1000"
    panose-1="0 0 0 0 0 0 0 0 0 0"
    ascent="901"
    descent="-99"
    x-height="817"
    cap-height="817"
    bbox="-46 -251 837 1012"
    underline-thickness="50"
    underline-position="-49"
    unicode-range="U+0020-2212"
  />
<missing-glyph horiz-adv-x="393" 
d="M346 801v-800h-300v800h300zM296 751h-200v-700h200v700z" />
    <glyph glyph-name=".notdef" horiz-adv-x="393" 
d="M346 801v-800h-300v800h300zM296 751h-200v-700h200v700z" />
    <glyph glyph-name=".null" horiz-adv-x="0" 
 />
    <glyph glyph-name="nonmarkingreturn" horiz-adv-x="333" 
 />
    <glyph glyph-name="space" unicode=" " horiz-adv-x="200" 
 />
    <glyph glyph-name="exclam" unicode="!" horiz-adv-x="184" 
d="M140 96v-96h-96v96h96zM144 817l-4 -654h-96l-4 654h104z" />
    <glyph glyph-name="quotedbl" unicode="&#x22;" horiz-adv-x="349" 
d="M127 637h-57l32 56h-49v124h106v-124zM264 637h-57l32 56h-49v124h106v-124z" />
    <glyph glyph-name="numbersign" unicode="#" horiz-adv-x="530" 
d="M225 452l-29 -153h110q5 27 14 75t15 79q-18 0 -53 -0.5t-57 -0.5zM452 549h47v-96h-65l-30 -154h73v-96h-90q-2 -12 -16.5 -87t-22.5 -116h-97l37 203h-110q-18 -96 -38 -203h-97l37 203h-55v96h72q5 28 14.5 75.5t15.5 78.5h-78v96h96l51 268h98l-51 -268h110
q6 30 24 125.5t27 142.5h99z" />
    <glyph glyph-name="dollar" unicode="$" horiz-adv-x="409" 
d="M281 148v128q0 36 -28 56v-244q28 26 28 60zM128 643v-131q0 -36 28 -55v246q-28 -22 -28 -60zM253 -19v-54h-97v54q-54 17 -89.5 64t-35.5 103v80h96v-80q0 -33 29 -60v265q-54 14 -89.5 58.5t-35.5 100.5v131q0 58 35 104t90 62v53h97v-53q56 -15 90.5 -61t34.5 -105
v-83h-96v83q0 40 -29 61v-271q53 -16 89 -59.5t36 -97.5v-128q0 -58 -35 -104t-90 -63z" />
    <glyph glyph-name="percent" unicode="%" horiz-adv-x="578" 
d="M89 -25l307 842h98l-307 -842h-98zM136 405q-43 0 -74 29t-31 72v180q0 42 31.5 71.5t73.5 29.5q41 0 72 -29.5t31 -71.5v-180q0 -43 -30.5 -72t-72.5 -29zM155 506v180q0 7 -6.5 12.5t-12.5 5.5q-20 0 -20 -18v-180q0 -7 6 -12.5t14 -5.5t13.5 5.5t5.5 12.5zM439 -25
q-43 0 -73.5 29t-30.5 72v181q0 43 30 72t74 29q42 0 72.5 -29.5t30.5 -71.5v-181q0 -42 -30.5 -71.5t-72.5 -29.5zM458 76v181q0 7 -5.5 12t-13.5 5q-20 0 -20 -17v-181q0 -17 20 -17q8 0 13.5 5t5.5 12z" />
    <glyph glyph-name="ampersand" unicode="&#x26;" horiz-adv-x="529" 
d="M241 462h74v55h108v-55h63v-105h-63v-199q0 -73 -55 -123.5t-127 -50.5t-126.5 50.5t-54.5 123.5v130q0 66 49 123q-49 63 -49 121v130q0 73 54.5 123.5t126.5 50.5q75 0 127 -59t55 -153h-108q-4 49 -23.5 77.5t-50.5 28.5t-52.5 -19t-21.5 -49v-130q1 -29 23.5 -49.5
t50.5 -20.5zM315 158v199h-74q-31 0 -52.5 -19.5t-21.5 -49.5v-130q0 -30 21.5 -49t52.5 -19t52.5 19t21.5 49z" />
    <glyph glyph-name="quotesingle" unicode="'" horiz-adv-x="213" 
d="M128 637h-57l32 56h-49v124h106v-124z" />
    <glyph glyph-name="parenleft" unicode="(" horiz-adv-x="364" 
d="M240 901h65v-100q-29 0 -50 -2t-42.5 -7.5t-32.5 -17.5t-11 -31v-648q0 -57 27 -74.5t109 -18.5v-100h-65q-77 0 -127.5 39.5t-50.5 116.5v685q0 78 50.5 118t127.5 40z" />
    <glyph glyph-name="parenright" unicode=")" horiz-adv-x="364" 
d="M62 901h65q77 0 127.5 -40t50.5 -118v-685q0 -77 -50.5 -116.5t-127.5 -39.5h-65v100q82 1 109 18.5t27 74.5v648q0 19 -11 31t-32.5 17.5t-42.5 7.5t-50 2v100z" />
    <glyph glyph-name="asterisk" unicode="*" horiz-adv-x="295" 
d="M260 742l-54 -36q7 -4 26 -16t28 -18q-8 -11 -20.5 -30t-15.5 -23l-44 30v-52h-66l1 55q-13 -10 -23 -17t-14.5 -10t-6.5 -5l-36 53l52 33l-52 35q6 8 36 52l43 -32v55h66l-1 -57q6 5 23.5 18t21.5 16z" />
    <glyph glyph-name="plus" unicode="+" horiz-adv-x="408" 
d="M393 444v-97h-140v-141h-97v141h-141v97h141v139h97v-139h140z" />
    <glyph glyph-name="comma" unicode="," horiz-adv-x="163" 
d="M133 112v-101l-96 -69v170h96z" />
    <glyph glyph-name="hyphen" unicode="-" horiz-adv-x="406" 
d="M348 347h-291v97h291v-97z" />
    <glyph glyph-name="period" unicode="." horiz-adv-x="192" 
d="M142 112v-112h-96v112h96z" />
    <glyph glyph-name="slash" unicode="/" horiz-adv-x="418" 
d="M411 829l-307 -842h-98l306 842h99z" />
    <glyph glyph-name="zero" unicode="0" horiz-adv-x="503" 
d="M252 -9q-82 0 -142 56.5t-60 138.5v436q0 82 60 138.5t142 56.5t141.5 -56.5t59.5 -138.5v-436q0 -82 -59.5 -138.5t-141.5 -56.5zM252 723q-43 0 -75 -29.5t-32 -71.5v-401l179 474q-32 28 -72 28zM252 85q43 0 74 29.5t31 71.5v330l-159 -417q26 -14 54 -14z" />
    <glyph glyph-name="one" unicode="1" horiz-adv-x="277" 
d="M245 0h-96v640q-13 -3 -29 -4.5t-28 -1.5t-32 0.5t-28 0.5v96h33q20 0 29.5 0.5t25 3.5t22.5 11t7 21v50h96v-817z" />
    <glyph glyph-name="two" unicode="2" horiz-adv-x="456" 
d="M150 649v-129h-96v129q0 70 51 119t121 49t121 -50t51 -118t0.5 -105.5t0.5 -40.5q0 -46 -11.5 -81.5t-35.5 -62.5t-43 -42t-53 -37q-136 -87 -114 -185h272v-95h-373v71q0 99 26 158t104 109q48 30 71 47.5t42.5 47.5t19.5 67l-2 149q-1 30 -23.5 51.5t-52.5 21.5
t-53 -22t-23 -51z" />
    <glyph glyph-name="three" unicode="3" horiz-adv-x="446" 
d="M181 367h-48v95h47q23 0 38 1t37.5 5.5t34.5 17t12 32.5v130q0 31 -23 52t-56 21q-32 0 -55.5 -21t-23.5 -52v-128h-98v128q0 71 53 120t124 49q72 0 124 -48.5t52 -120.5v-130q0 -34 -11.5 -53.5t-41.5 -50.5q53 -48 53 -121v-130q0 -72 -52 -120.5t-124 -48.5
q-71 0 -124 49t-53 120v127h98v-127q0 -32 24 -52.5t55 -20.5q33 0 56 21t23 52v130q0 79 -121 74z" />
    <glyph glyph-name="four" unicode="4" horiz-adv-x="454" 
d="M376 147v-147h-96v147h-259v77l266 593h89v-574h56v-96h-56zM280 243v325q-123 -271 -147 -325h147z" />
    <glyph glyph-name="five" unicode="5" horiz-adv-x="494" 
d="M247 554q83 0 141.5 -58.5t58.5 -141.5v-161q0 -83 -58.5 -141.5t-141.5 -58.5q-84 0 -142.5 58t-58.5 142v55h95v-55q0 -43 31.5 -73.5t74.5 -30.5t73.5 30.5t30.5 73.5v161q0 43 -30.5 74t-73.5 31q-41 0 -72 -35t-35 -85h-94v478h401v-96h-306v-195q45 28 106 28z" />
    <glyph glyph-name="six" unicode="6" horiz-adv-x="500" 
d="M250 537q81 0 141.5 -57t60.5 -138v-156q0 -82 -60 -138.5t-142 -56.5t-142 56.5t-60 138.5v436q0 82 60 138.5t142 56.5t142 -56.5t60 -138.5v-46h-96v46q0 43 -31.5 72t-74.5 29q-44 0 -74.5 -28.5t-30.5 -72.5v-113q47 28 105 28zM250 442q-43 0 -74 -28.5t-31 -71.5
v-156q0 -44 30.5 -72.5t74.5 -28.5q43 0 74.5 29t31.5 72v156q0 42 -31.5 71t-74.5 29z" />
    <glyph glyph-name="seven" unicode="7" horiz-adv-x="411" 
d="M389 731l-222 -731h-100l219 721h-264v96h367v-86z" />
    <glyph glyph-name="eight" unicode="8" horiz-adv-x="498" 
d="M47 560v65q0 81 60 136.5t142 55.5t141.5 -55t59.5 -137v-65q0 -90 -71 -146q71 -56 71 -146v-97q0 -75 -55.5 -126.5t-131.5 -51.5h-29q-76 0 -131.5 51.5t-55.5 126.5v97q0 87 72 146q-72 57 -72 146zM234 86h29q36 0 63.5 25t27.5 60v97q0 42 -31 70t-74 28t-74.5 -28
t-31.5 -70v-97q0 -35 27 -60t64 -25zM249 462q43 0 74 28t31 70v65q0 41 -31.5 70t-73.5 29q-43 0 -74.5 -29t-31.5 -70v-65q0 -42 31.5 -70t74.5 -28z" />
    <glyph glyph-name="nine" unicode="9" horiz-adv-x="499" 
d="M249 271q-81 0 -141.5 57t-60.5 138v156q0 82 60 138.5t142 56.5t142 -56.5t60 -138.5v-436q0 -82 -60 -138.5t-142 -56.5t-142 56.5t-60 138.5v46h96v-46q0 -43 31.5 -72t74.5 -29q44 0 74.5 28.5t30.5 72.5v113q-47 -28 -105 -28zM249 366q43 0 74 28.5t31 71.5v156
q0 44 -30.5 72.5t-74.5 28.5q-43 0 -74.5 -29t-31.5 -72v-156q0 -42 31.5 -71t74.5 -29z" />
    <glyph glyph-name="colon" unicode=":" horiz-adv-x="169" 
d="M133 112v-112h-96v112h96zM133 412v-112h-96v112h96z" />
    <glyph glyph-name="semicolon" unicode=";" horiz-adv-x="169" 
d="M133 412v-112h-96v112h96zM133 112v-101l-96 -69v170h96z" />
    <glyph glyph-name="less" unicode="&#x3c;" horiz-adv-x="428" 
d="M403 314v-100l-378 142v81l378 142v-100l-241 -83q20 -7 109 -37t132 -45z" />
    <glyph glyph-name="equal" unicode="=" horiz-adv-x="391" 
d="M351 422h-308v97h308v-97zM351 271h-308v97h308v-97z" />
    <glyph glyph-name="greater" unicode="&#x3e;" horiz-adv-x="428" 
d="M25 214v100q43 15 132 45t109 37l-241 83v100l378 -142v-81z" />
    <glyph glyph-name="question" unicode="?" horiz-adv-x="387" 
d="M367 643v-101q0 -44 -19 -81t-46.5 -63.5t-55 -52t-46.5 -58.5t-19 -72v-51h-97v51q0 45 29 93.5t64 82.5t64.5 73t29.5 69l-1 110q0 32 -22.5 55t-53.5 23q-32 0 -55 -23t-23 -55v-82h-96v82q0 72 51 123t123 51q71 0 122 -51t51 -123zM179 96v-96h-96v96h96z" />
    <glyph glyph-name="at" unicode="@" horiz-adv-x="668" 
d="M335 -5h77q57 0 150 86v-130q-78 -49 -150 -49h-77q-135 0 -230 94.5t-95 229.5v198q0 136 95 231t230 95h125q84 0 142.5 -58.5t58.5 -142.5v-216q0 -84 -45.5 -147.5t-128.5 -63.5q-31 0 -50 5q-59 -43 -115 -43q-66 0 -110.5 44.5t-44.5 110.5q0 22 2 45t5.5 50.5
t4.5 44.5q8 67 58 115t117 48h88q31 0 52 -21.5t23 -52.5l-24 -253q37 7 56 41t19 77v216q0 43 -32 75.5t-76 32.5h-125q-95 0 -163.5 -69t-68.5 -164v-198q0 -95 68.5 -163t163.5 -68zM354 449q-31 0 -55 -22.5t-27 -52.5l-12 -135q0 -26 18 -44t44 -18q35 0 57 23.5
t27 57.5l19 193z" />
    <glyph glyph-name="A" unicode="A" horiz-adv-x="465" 
d="M182 299h99l-51 246q-8 -39 -23.5 -119.5t-24.5 -126.5zM445 0h-99l-47 202h-135l-45 -202h-99l165 817h89z" />
    <glyph glyph-name="B" unicode="B" horiz-adv-x="476" 
d="M46 0v817h185q76 0 130 -53.5t54 -129.5v-103q0 -71 -51 -125q38 -28 59 -70.5t21 -89.5v-48q0 -83 -58 -140.5t-141 -57.5h-199zM245 348h-103v-252h103q42 0 72 30t30 72v48q0 42 -30 72t-72 30zM231 721h-89v-277h89q35 0 61 26t26 61v103q0 35 -26 61t-61 26z" />
    <glyph glyph-name="C" unicode="C" horiz-adv-x="480" 
d="M255 -7q-82 0 -143 51.5t-61 122.5v476q0 71 61 122.5t143 51.5q76 0 130 -51t54 -123v-54h-97v54q0 32 -26 55t-61 23q-43 0 -75 -23.5t-32 -54.5v-476q0 -31 32 -54.5t75 -23.5q35 0 61 23t26 55v58h97v-58q0 -72 -54 -123t-130 -51z" />
    <glyph glyph-name="D" unicode="D" horiz-adv-x="438" 
d="M221 723h-78v-629h78q31 0 54 20.5t23 50.5v487q0 30 -23 50.5t-54 20.5zM221 0h-174v817h174q70 0 122 -47.5t52 -117.5v-487q0 -70 -52 -117.5t-122 -47.5z" />
    <glyph glyph-name="E" unicode="E" horiz-adv-x="389" 
d="M47 817h314v-96h-218v-276h191v-96h-191v-253h218v-96h-314v817z" />
    <glyph glyph-name="F" unicode="F" horiz-adv-x="367" 
d="M144 445h191v-96h-191v-349h-96v817h314v-96h-218v-276z" />
    <glyph glyph-name="G" unicode="G" horiz-adv-x="489" 
d="M255 -7q-81 0 -142.5 48t-61.5 117v487q0 71 61 121.5t143 50.5q75 0 129.5 -50.5t54.5 -121.5v-118h-96v118q0 31 -26.5 53.5t-61.5 22.5q-43 0 -75 -22.5t-32 -53.5v-487q0 -30 32.5 -50.5t74.5 -20.5q35 0 61.5 20.5t26.5 50.5v194h-102v95h198v-289q0 -69 -55 -117
t-129 -48z" />
    <glyph glyph-name="H" unicode="H" horiz-adv-x="450" 
d="M401 817v-817h-97v349h-159v-349h-97v817h97v-372h159v372h97z" />
    <glyph glyph-name="I" unicode="I" horiz-adv-x="198" 
d="M145 817v-817h-96v817h96z" />
    <glyph glyph-name="J" unicode="J" horiz-adv-x="291" 
d="M70 0h-63v90q74 -1 107 14t33 49v664h96v-664q0 -75 -48.5 -114t-124.5 -39z" />
    <glyph glyph-name="K" unicode="K" horiz-adv-x="502" 
d="M146 380v-380h-96v817h96v-276q180 244 204 276h120l-235 -317l215 -500h-103l-180 410z" />
    <glyph glyph-name="L" unicode="L" horiz-adv-x="341" 
d="M317 96v-96h-267v817h96v-721h171z" />
    <glyph glyph-name="M" unicode="M" horiz-adv-x="606" 
d="M458 445l-107 -445h-86l-119 449v-449h-96v817h104l154 -619l155 619h92v-817h-97v445z" />
    <glyph glyph-name="N" unicode="N" horiz-adv-x="479" 
d="M147 538v-538h-96v817h104l176 -522v522h96v-817h-89z" />
    <glyph glyph-name="O" unicode="O" 
d="M247 88q43 0 74 20.5t31 50.5v493q0 30 -31 50.5t-74 20.5q-42 0 -73.5 -20.5t-31.5 -50.5v-493q0 -30 31.5 -50.5t73.5 -20.5zM448 652v-493q0 -69 -59.5 -117t-141.5 -48q-80 0 -140.5 48t-60.5 117v493q0 69 60.5 117t140.5 48q82 0 141.5 -48t59.5 -117z" />
    <glyph glyph-name="P" unicode="P" horiz-adv-x="411" 
d="M400 643v-122q0 -72 -51 -122.5t-123 -50.5h-77v-348h-97v817h174q71 0 122.5 -51t51.5 -123zM226 721h-77v-277h77q32 0 54.5 23t22.5 54v122q0 32 -23 55t-54 23z" />
    <glyph glyph-name="Q" unicode="Q" horiz-adv-x="486" 
d="M370 -92h-97l-22 86h-10q-82 0 -141.5 47t-59.5 117v493q0 70 59.5 117.5t141.5 47.5q83 0 142 -47.5t59 -117.5v-493q0 -94 -98 -137zM204 186h99l17 -69q26 22 26 41v493q0 29 -32 50t-73 21t-73 -20.5t-32 -50.5v-493q0 -28 27.5 -48.5t65.5 -22.5z" />
    <glyph glyph-name="R" unicode="R" horiz-adv-x="454" 
d="M149 348v-348h-97v817h174q72 0 123.5 -51t51.5 -123v-122q0 -68 -52 -122q59 -51 59 -132v-267h-97v267q0 33 -24 57t-56 24h-82zM226 721h-77v-277h81q30 0 51.5 23t21.5 54v122q0 32 -22.5 55t-54.5 23z" />
    <glyph glyph-name="S" unicode="S" horiz-adv-x="451" 
d="M139 643v-120q0 -30 25.5 -49.5t63.5 -21.5q73 -6 127 -51t54 -114v-117q0 -72 -54 -123t-129 -51q-76 0 -130 51t-54 123v79h96v-79q0 -32 26 -55t62 -23t61 23t25 55v117q0 31 -26 51t-62 20q-74 0 -128 47.5t-54 117.5v120q0 72 54 123t130 51t129.5 -51t53.5 -123
v-82h-96v82q0 32 -26 55t-61 23q-36 0 -61.5 -23t-25.5 -55z" />
    <glyph glyph-name="T" unicode="T" horiz-adv-x="431" 
d="M264 721v-721h-96v721h-130v96h354v-96h-128z" />
    <glyph glyph-name="U" unicode="U" horiz-adv-x="467" 
d="M232 91q35 0 60.5 22t25.5 53v651h97v-651q0 -70 -54 -120.5t-129 -50.5q-74 0 -127.5 50.5t-53.5 120.5v651h96v-651q0 -31 25 -53t60 -22z" />
    <glyph glyph-name="V" unicode="V" horiz-adv-x="475" 
d="M26 817h98l115 -606l112 606h98l-147 -817h-126z" />
    <glyph glyph-name="W" unicode="W" horiz-adv-x="673" 
d="M336 495l-75 -495h-103l-121 817h98l75 -494l75 494h103l75 -494l75 494h98l-121 -817h-103z" />
    <glyph glyph-name="X" unicode="X" horiz-adv-x="558" 
d="M332 397l182 -397h-104l-131 277q-22 -52 -66.5 -142t-64.5 -135h-104l183 396q-32 74 -97.5 225t-84.5 196h105l129 -298q24 56 69.5 160.5t59.5 137.5h105q-138 -325 -181 -420z" />
    <glyph glyph-name="Y" unicode="Y" horiz-adv-x="506" 
d="M301 0h-96v394q-33 75 -100 227.5t-86 195.5h105l129 -293q22 51 66 150.5t63 142.5h105l-186 -423v-394z" />
    <glyph glyph-name="Z" unicode="Z" horiz-adv-x="498" 
d="M156 96h300v-96h-415v77l298 644h-298v96h415v-77z" />
    <glyph glyph-name="bracketleft" unicode="[" horiz-adv-x="297" 
d="M139 804v-806h116v-97h-213v1000h213v-97h-116z" />
    <glyph glyph-name="backslash" unicode="\" horiz-adv-x="418" 
d="M313 -13l-307 842h99l306 -842h-98z" />
    <glyph glyph-name="bracketright" unicode="]" horiz-adv-x="297" 
d="M158 -2v806h-116v97h213v-1000h-213v97h116z" />
    <glyph glyph-name="asciicircum" unicode="^" horiz-adv-x="434" 
d="M186 821h66l157 -196h-108l-82 102l-89 -102h-106z" />
    <glyph glyph-name="underscore" unicode="_" horiz-adv-x="577" 
d="M519 -70h-462v60h462v-60z" />
    <glyph glyph-name="grave" unicode="`" horiz-adv-x="240" 
d="M18 817h128l63 -142h-98z" />
    <glyph glyph-name="a" unicode="a" horiz-adv-x="474" 
d="M177 219h119l-61 326q-10 -55 -29 -162.5t-29 -163.5zM450 0h-118l-27 122h-137l-25 -122h-118l165 817h89z" />
    <glyph glyph-name="b" unicode="b" horiz-adv-x="496" 
d="M46 0v817h185q76 0 130 -53.5t54 -129.5v-103q0 -71 -51 -125q38 -28 59 -70.5t21 -89.5v-48q0 -83 -58 -140.5t-141 -57.5h-199zM245 348h-103v-252h103q42 0 72 30t30 72v48q0 42 -30 72t-72 30zM231 721h-89v-277h89q35 0 61 26t26 61v103q0 35 -26 61t-61 26z" />
    <glyph glyph-name="c" unicode="c" horiz-adv-x="480" 
d="M255 -7q-82 0 -143 51.5t-61 122.5v476q0 71 61 122.5t143 51.5q76 0 130 -51t54 -123v-54h-97v54q0 32 -26 55t-61 23q-43 0 -75 -23.5t-32 -54.5v-476q0 -31 32 -54.5t75 -23.5q35 0 61 23t26 55v58h97v-58q0 -72 -54 -123t-130 -51z" />
    <glyph glyph-name="d" unicode="d" horiz-adv-x="438" 
d="M221 723h-78v-629h78q31 0 54 20.5t23 50.5v487q0 30 -23 50.5t-54 20.5zM221 0h-174v817h174q70 0 122 -47.5t52 -117.5v-487q0 -70 -52 -117.5t-122 -47.5z" />
    <glyph glyph-name="e" unicode="e" horiz-adv-x="404" 
d="M57 817h314v-96h-218v-196h191v-96h-191v-333h218v-96h-314v817z" />
    <glyph glyph-name="f" unicode="f" horiz-adv-x="377" 
d="M153 365h191v-96h-191v-269h-96v817h314v-96h-218v-356z" />
    <glyph glyph-name="g" unicode="g" horiz-adv-x="489" 
d="M255 -7q-81 0 -142.5 48t-61.5 117v487q0 71 61 121.5t143 50.5q75 0 129.5 -50.5t54.5 -121.5v-118h-96v118q0 31 -26.5 53.5t-61.5 22.5q-43 0 -75 -22.5t-32 -53.5v-487q0 -30 32.5 -50.5t74.5 -20.5q35 0 61.5 20.5t26.5 50.5v114h-102v95h198v-209q0 -69 -55 -117
t-129 -48z" />
    <glyph glyph-name="h" unicode="h" horiz-adv-x="450" 
d="M401 817v-817h-97v349h-159v-349h-97v817h97v-372h159v372h97z" />
    <glyph glyph-name="i" unicode="i" horiz-adv-x="198" 
d="M145 817v-817h-96v817h96z" />
    <glyph glyph-name="j" unicode="j" horiz-adv-x="291" 
d="M70 0h-63v90q74 -1 107 14t33 49v664h96v-664q0 -75 -48.5 -114t-124.5 -39z" />
    <glyph glyph-name="k" unicode="k" horiz-adv-x="502" 
d="M146 380v-380h-96v817h96v-276q180 244 204 276h120l-235 -317l215 -500h-103l-180 410z" />
    <glyph glyph-name="l" unicode="l" horiz-adv-x="341" 
d="M317 96v-96h-267v817h96v-721h171z" />
    <glyph glyph-name="m" unicode="m" horiz-adv-x="606" 
d="M458 445l-107 -445h-86l-119 449v-449h-96v817h104l154 -619l155 619h92v-817h-97v445z" />
    <glyph glyph-name="n" unicode="n" horiz-adv-x="479" 
d="M147 538v-538h-96v817h104l176 -522v522h96v-817h-89z" />
    <glyph glyph-name="o" unicode="o" 
d="M247 88q43 0 74 20.5t31 50.5v493q0 30 -31 50.5t-74 20.5q-42 0 -73.5 -20.5t-31.5 -50.5v-493q0 -30 31.5 -50.5t73.5 -20.5zM448 652v-493q0 -69 -59.5 -117t-141.5 -48q-80 0 -140.5 48t-60.5 117v493q0 69 60.5 117t140.5 48q82 0 141.5 -48t59.5 -117z" />
    <glyph glyph-name="p" unicode="p" horiz-adv-x="423" 
d="M405 643v-202q0 -72 -51 -122.5t-123 -50.5h-77v-268h-97v817h174q71 0 122.5 -51t51.5 -123zM231 721h-77v-357h77q31 0 54 23t23 54v202q0 32 -23 55t-54 23z" />
    <glyph glyph-name="q" unicode="q" horiz-adv-x="486" 
d="M370 -92h-97l-22 86h-10q-82 0 -141.5 47t-59.5 117v493q0 70 59.5 117.5t141.5 47.5q83 0 142 -47.5t59 -117.5v-493q0 -94 -98 -137zM204 186h99l17 -69q26 22 26 41v493q0 29 -32 50t-73 21t-73 -20.5t-32 -50.5v-493q0 -28 27.5 -48.5t65.5 -22.5z" />
    <glyph glyph-name="r" unicode="r" horiz-adv-x="464" 
d="M154 268v-268h-97v817h174q72 0 123.5 -51t51.5 -123v-202q0 -68 -52 -122q59 -53 59 -132v-187h-97v187q0 33 -24 57t-56 24h-82zM231 721h-77v-357h81q30 0 51.5 23t21.5 54v202q0 32 -22.5 55t-54.5 23z" />
    <glyph glyph-name="s" unicode="s" horiz-adv-x="451" 
d="M139 643v-120q0 -30 25.5 -49.5t63.5 -21.5q73 -6 127 -51t54 -114v-117q0 -72 -54 -123t-129 -51q-76 0 -130 51t-54 123v79h96v-79q0 -32 26 -55t62 -23t61 23t25 55v117q0 31 -26 51t-62 20q-74 0 -128 47.5t-54 117.5v120q0 72 54 123t130 51t129.5 -51t53.5 -123
v-82h-96v82q0 32 -26 55t-61 23q-36 0 -61.5 -23t-25.5 -55z" />
    <glyph glyph-name="t" unicode="t" horiz-adv-x="431" 
d="M264 721v-721h-96v721h-130v96h354v-96h-128z" />
    <glyph glyph-name="u" unicode="u" horiz-adv-x="467" 
d="M232 91q35 0 60.5 22t25.5 53v651h97v-651q0 -70 -54 -120.5t-129 -50.5q-74 0 -127.5 50.5t-53.5 120.5v651h96v-651q0 -31 25 -53t60 -22z" />
    <glyph glyph-name="v" unicode="v" horiz-adv-x="475" 
d="M26 817h98l115 -606l112 606h98l-147 -817h-126z" />
    <glyph glyph-name="w" unicode="w" horiz-adv-x="673" 
d="M336 495l-75 -495h-103l-121 817h98l75 -494l75 494h103l75 -494l75 494h98l-121 -817h-103z" />
    <glyph glyph-name="x" unicode="x" horiz-adv-x="558" 
d="M332 397l182 -397h-104l-131 277q-22 -52 -66.5 -142t-64.5 -135h-104l183 396q-32 74 -97.5 225t-84.5 196h105l129 -298q24 56 69.5 160.5t59.5 137.5h105q-138 -325 -181 -420z" />
    <glyph glyph-name="y" unicode="y" horiz-adv-x="506" 
d="M301 0h-96v394q-33 75 -100 227.5t-86 195.5h105l129 -293q22 51 66 150.5t63 142.5h105l-186 -423v-394z" />
    <glyph glyph-name="z" unicode="z" horiz-adv-x="498" 
d="M156 96h300v-96h-415v77l298 644h-298v96h415v-77z" />
    <glyph glyph-name="braceleft" unicode="{" horiz-adv-x="310" 
d="M284 -10v-86q-39 -3 -65 -3q-59 0 -91 31t-32 89v305q0 24 -16.5 33.5t-54.5 9.5v90q38 0 54.5 9.5t16.5 33.5v222q0 35 0.5 53t6.5 46t18.5 42.5t37 25.5t60.5 11h65v-90h-34q-23 0 -33 -1.5t-18.5 -11t-8.5 -29.5q0 -68 1 -156t1 -120q0 -55 -25 -80q25 -23 25 -80
v-303q0 -15 2.5 -24t11.5 -12.5t15.5 -4t24.5 -0.5h38z" />
    <glyph glyph-name="bar" unicode="|" horiz-adv-x="169" 
d="M128 890v-980h-96v980h96z" />
    <glyph glyph-name="braceright" unicode="}" horiz-adv-x="310" 
d="M25 -96v86h38q18 0 24.5 0.5t15.5 4t11.5 12.5t2.5 24v303q0 57 25 80q-25 24 -25 80q0 54 1 144.5t1 131.5q0 29 -13.5 35.5t-46.5 6.5h-34v90h65q36 0 60.5 -11t37 -25.5t18.5 -42.5t6.5 -46t0.5 -53v-222q0 -24 16.5 -33.5t54.5 -9.5v-90q-38 0 -54.5 -9.5
t-16.5 -33.5v-305q0 -58 -32 -89t-91 -31q-26 0 -65 3z" />
    <glyph glyph-name="asciitilde" unicode="~" horiz-adv-x="403" 
d="M264 328q-25 1 -66.5 18.5t-57.5 17.5q-23 0 -69 -46l-63 68q38 38 67 56.5t65 18.5q23 0 63 -18t61 -18t66 45l65 -65q-40 -40 -67.5 -58.5t-63.5 -18.5z" />
    <glyph glyph-name="exclamdown" unicode="&#xa1;" horiz-adv-x="184" 
d="M140 617v-96h-96v96h96zM140 454l4 -654h-104l4 654h96z" />
    <glyph glyph-name="cent" unicode="&#xa2;" horiz-adv-x="366" 
d="M115 82h-82l39 106q-45 52 -45 112v189q0 68 48 116t116 48q28 0 49 -6q1 2 2 5.5t4 13.5t9 25h82l-31 -83q33 -31 41 -65t8 -98h-77v23q0 34 -5 51l-110 -301q16 -6 28 -6q35 0 61 26.5t26 61.5v48h77v-48q0 -68 -48 -116t-116 -48q-28 0 -54 8q-4 -9 -22 -62zM105 283
l107 290q-11 4 -21 4q-35 0 -61 -26.5t-26 -61.5q0 -200 1 -206z" />
    <glyph glyph-name="sterling" unicode="&#xa3;" horiz-adv-x="406" 
d="M53 365h-44v97h44v176q0 72 51.5 123t122.5 51q72 0 123 -51t51 -123v-54h-97v54q0 32 -23 55t-54 23t-54 -23.5t-23 -54.5v-176h166v-97h-166v-253q36 7 78.5 -12.5t55.5 -19.5q19 0 50 31l68 -67q-38 -35 -59.5 -46.5t-58.5 -11.5q-25 0 -68 18t-66 18t-69 -46l-63 68
q28 28 35 33v288z" />
    <glyph glyph-name="currency" unicode="&#xa4;" horiz-adv-x="405" 
d="M105 204h-103l72 118q-29 44 -29 97q0 54 29 97q-1 2 -5 8t-21 35t-44 75h102l38 -63q30 11 58 11q30 0 57 -13l39 65h105l-73 -119q29 -43 29 -96q0 -54 -29 -97q65 -105 73 -118h-103l-39 62q-27 -10 -59 -10t-58 10zM202 492q-28 0 -47.5 -22.5t-19.5 -50.5
q0 -29 19.5 -51.5t47.5 -22.5t47.5 22.5t19.5 51.5q0 28 -19.5 50.5t-47.5 22.5z" />
    <glyph glyph-name="yen" unicode="&#xa5;" horiz-adv-x="506" 
d="M301 0h-96v209h-106v97h106v54h-106v97h78l-158 360h105l129 -293q18 42 62.5 142.5t66.5 150.5h105l-159 -360h79v-97h-106v-54h106v-97h-106v-209z" />
    <glyph glyph-name="brokenbar" unicode="&#xa6;" horiz-adv-x="193" 
d="M144 890v-386h-96v386h96zM144 296v-386h-96v386h96z" />
    <glyph glyph-name="section" unicode="&#xa7;" horiz-adv-x="369" 
d="M344 411v-51q0 -57 -46 -97q46 -36 46 -91v-99q0 -59 -49 -98t-109 -39t-109 39t-49 98v67h91v-67q0 -22 20.5 -36.5t46.5 -14.5q25 0 45.5 14.5t20.5 36.5v99q0 22 -21 35t-47 13q-71 0 -114 40.5t-43 110.5q-3 88 43 131q-42 39 -42 91v101q0 60 48.5 99.5t109.5 39.5
t109.5 -39t48.5 -100v-70h-91v70q0 23 -20.5 38t-46.5 15t-46.5 -15t-20.5 -38v-101q0 -22 20.5 -34.5t46.5 -12.5q58 0 108 -38.5t50 -96.5zM119 406v-53q0 -19 22 -33t45 -14q26 0 46 15t20 39v51q0 22 -21 36t-46 14q-26 0 -46 -15.5t-20 -39.5z" />
    <glyph glyph-name="dieresis" unicode="&#xa8;" horiz-adv-x="305" 
d="M134 816v-89h-76v89h76zM247 816v-89h-76v89h76z" />
    <glyph glyph-name="copyright" unicode="&#xa9;" horiz-adv-x="866" 
d="M29 394q0 167 118.5 285.5t285.5 118.5t285.5 -118.5t118.5 -285.5t-118.5 -285.5t-285.5 -118.5t-285.5 118.5t-118.5 285.5zM88 394q0 -142 101 -243.5t244 -101.5t244 101.5t101 243.5t-101 243.5t-244 101.5t-244 -101.5t-101 -243.5zM436 139q68 0 116 48.5
t48 115.5v48h-77v-48q0 -36 -25.5 -62t-61.5 -26q-44 0 -75.5 26t-31.5 62v176q0 36 31.5 62t75.5 26q36 0 61.5 -26t25.5 -62v-44h77v44q0 67 -48 115.5t-116 48.5q-74 0 -129 -48.5t-55 -115.5v-176q0 -67 55 -115.5t129 -48.5z" />
    <glyph glyph-name="guillemotleft" unicode="&#xab;" horiz-adv-x="483" 
d="M247 220v-120l-208 228v65l208 228v-120l-121 -141q110 -127 121 -140zM444 220v-120l-208 228v65l208 228v-120l-121 -141q110 -127 121 -140z" />
    <glyph glyph-name="logicalnot" unicode="&#xac;" horiz-adv-x="471" 
d="M424 444v-181h-97v84h-281v97h378z" />
    <glyph glyph-name="registered" unicode="&#xae;" horiz-adv-x="866" 
d="M377 127v171h47q35 0 60 -25.5t25 -60.5v-85h87v85q0 79 -61 132q54 56 54 122v25q0 70 -50 119.5t-120 49.5h-129v-533h87zM377 574h42q34 0 58 -24t24 -59v-25q0 -33 -22.5 -57.5t-55.5 -24.5h-46v190zM29 394q0 167 118.5 285.5t285.5 118.5t285.5 -118.5
t118.5 -285.5t-118.5 -285.5t-285.5 -118.5t-285.5 118.5t-118.5 285.5zM88 394q0 -142 101 -243.5t244 -101.5t244 101.5t101 243.5t-101 243.5t-244 101.5t-244 -101.5t-101 -243.5z" />
    <glyph glyph-name="degree" unicode="&#xb0;" horiz-adv-x="289" 
d="M249 712q0 -44 -30.5 -74t-74.5 -30q-45 0 -74.5 29.5t-29.5 74.5t30 75t74 30t74.5 -30.5t30.5 -74.5zM193 712q0 20 -14.5 34.5t-34.5 14.5q-19 0 -33.5 -15t-14.5 -34t14.5 -33.5t33.5 -14.5t34 14.5t15 33.5z" />
    <glyph glyph-name="plusminus" unicode="&#xb1;" horiz-adv-x="443" 
d="M410 444v-97h-140v-141h-97v141h-141v97h141v139h97v-139h140zM409 0h-376v96h376v-96z" />
    <glyph glyph-name="twosuperior" unicode="&#xb2;" horiz-adv-x="440" 
d="M184 697v-85h-75v85q0 45 32.5 76t77.5 31q43 0 75.5 -32t32.5 -75v-99q0 -37 -14.5 -65.5t-29.5 -41.5t-42 -30q-64 -40 -63 -89h158v-74h-234v51q0 57 17 94t63 68q36 23 53.5 41t17.5 44l-1 101q-1 13 -11 23t-22 10q-14 0 -24.5 -10.5t-10.5 -22.5z" />
    <glyph glyph-name="threesuperior" unicode="&#xb3;" horiz-adv-x="429" 
d="M185 513h-38v74h53q44 2 44 34v75q0 13 -10.5 23t-24.5 10t-25.5 -10t-11.5 -23v-84h-75v84q0 46 33.5 77t78.5 31t77.5 -31t32.5 -77v-75q0 -42 -26 -71q26 -26 26 -69v-75q0 -46 -32.5 -77t-77.5 -31t-78.5 31t-33.5 77v82h75v-82q1 -14 12 -23.5t25 -9.5t24.5 9.5
t10.5 23.5v75q-3 36 -59 32z" />
    <glyph glyph-name="acute" unicode="&#xb4;" horiz-adv-x="240" 
d="M91 817h128l-93 -142h-98z" />
    <glyph glyph-name="mu" unicode="&#xb5;" horiz-adv-x="436" 
d="M390 569l-1 -569h-96v33q-10 -14 -32.5 -23.5t-43.5 -9.5q-40 0 -76 17v-160h-96l1 712h96v-398q0 -31 22 -53t53 -22q29 0 51.5 20.5t24.5 50.5v402h97z" />
    <glyph glyph-name="mu" unicode="&#x3bc;" horiz-adv-x="436" 
d="M390 569l-1 -569h-96v33q-10 -14 -32.5 -23.5t-43.5 -9.5q-40 0 -76 17v-160h-96l1 712h96v-398q0 -31 22 -53t53 -22q29 0 51.5 20.5t24.5 50.5v402h97z" />
    <glyph glyph-name="paragraph" unicode="&#xb6;" horiz-adv-x="556" 
d="M520 714v-96h-71v-762h-96v762h-100v-762h-96v567q-53 7 -87 48.5t-34 96.5q0 62 42 104t104 42h338z" />
    <glyph glyph-name="periodcentered" unicode="&#xb7;" horiz-adv-x="192" 
d="M142 451v-112h-96v112h96z" />
    <glyph glyph-name="cedilla" unicode="&#xb8;" horiz-adv-x="146" 
d="M27 17h43v-32q28 3 47.5 -11t19.5 -46q0 -30 -20 -45t-50 -15q-25 0 -56 13l17 41q22 -11 38 -11q26 0 26 19q0 27 -65 16v71z" />
    <glyph glyph-name="onesuperior" unicode="&#xb9;" horiz-adv-x="265" 
d="M179 299h-74v382q-7 -1 -43 -1h-24v75h28q39 0 39 11v39h74v-506z" />
    <glyph glyph-name="guillemotright" unicode="&#xbb;" horiz-adv-x="483" 
d="M39 100v120q11 13 121 140l-121 141v120l208 -228v-65zM236 100v120q11 13 121 140l-121 141v120l208 -228v-65z" />
    <glyph glyph-name="onequarter" unicode="&#xbc;" horiz-adv-x="661" 
d="M549 100v-100h-74v100h-150v56l158 350h66v-332h33v-74h-33zM475 174v135q-27 -59 -60 -135h60zM189 299h-74v382q-8 -1 -43 -1h-24v75h27q40 0 40 11v39h74v-506zM108 -13l514 842h-71l-513 -842h70z" />
    <glyph glyph-name="onehalf" unicode="&#xbd;" horiz-adv-x="680" 
d="M191 299h-74v382q-7 -1 -43 -1h-24v75h28q39 0 39 11v39h74v-506zM624 829l-514 -842h-70l513 842h71zM501 399v-85h-75v85q0 45 32.5 76t77.5 31q43 0 75.5 -32t32.5 -75v-99q0 -37 -14.5 -65.5t-29.5 -41.5t-42 -30q-64 -40 -63 -89h158v-74h-234v51q0 57 17 94t63 68
q36 23 53.5 41t17.5 44l-1 101q-1 13 -11 23t-22 10q-14 0 -24.5 -10.5t-10.5 -22.5z" />
    <glyph glyph-name="threequarters" unicode="&#xbe;" horiz-adv-x="689" 
d="M647 829l-514 -842h-70l513 842h71zM118 526h-38v74h53q44 2 44 34v75q0 13 -10.5 23t-24.5 10t-25.5 -10t-11.5 -23v-84h-75v84q0 46 33.5 77t78.5 31t77.5 -31t32.5 -77v-75q0 -42 -26 -71q26 -26 26 -69v-75q0 -46 -32.5 -77t-77.5 -31t-78.5 31t-33.5 77v82h75v-82
q1 -14 12 -23.5t25 -9.5t24.5 9.5t10.5 23.5v75q-3 36 -59 32zM574 100v-100h-74v100h-150v56l158 350h66v-332h33v-74h-33zM500 174v135q-27 -59 -60 -135h60z" />
    <glyph glyph-name="questiondown" unicode="&#xbf;" horiz-adv-x="387" 
d="M20 -22v101q0 44 19 81t46.5 63.5t55 52t46.5 58.5t19 72v51h97v-51q0 -45 -29 -93.5t-64 -82.5t-64.5 -73t-29.5 -69l1 -110q0 -32 22.5 -55.5t53.5 -23.5q32 0 55 23.5t23 55.5v82h96v-82q0 -72 -51 -123t-123 -51q-71 0 -122 51t-51 123zM208 525v96h96v-96h-96z" />
    <glyph glyph-name="Agrave" unicode="&#xc0;" horiz-adv-x="465" 
d="M182 299h99l-51 246q-8 -39 -23.5 -119.5t-24.5 -126.5zM445 0h-99l-47 202h-135l-45 -202h-99l165 817h89zM93 1002h128l63 -142h-98z" />
    <glyph glyph-name="Aacute" unicode="&#xc1;" horiz-adv-x="465" 
d="M182 299h99l-51 246q-8 -39 -23.5 -119.5t-24.5 -126.5zM445 0h-99l-47 202h-135l-45 -202h-99l165 817h89zM248 1003h128l-93 -142h-98z" />
    <glyph glyph-name="Acircumflex" unicode="&#xc2;" horiz-adv-x="465" 
d="M281 299h-99q9 46 24.5 126.5t23.5 119.5zM346 0h99l-171 817h-89l-165 -817h99l45 202h135zM261 959l79 -99h-70l-36 42l-37 -42h-73l84 99h53z" />
    <glyph glyph-name="Atilde" unicode="&#xc3;" horiz-adv-x="465" 
d="M182 299h99l-51 246q-8 -39 -23.5 -119.5t-24.5 -126.5zM445 0h-99l-47 202h-135l-45 -202h-99l165 817h89zM284 868q-13 0 -50 12.5t-48 12.5q-9 0 -17.5 -4t-13 -7.5t-11 -11.5t-8.5 -10l-34 46q15 17 21.5 24t21 16t28.5 9q17 0 51 -12.5t60 -12.5q22 0 42 30l37 -49
q-31 -43 -79 -43z" />
    <glyph glyph-name="Adieresis" unicode="&#xc4;" horiz-adv-x="465" 
d="M182 299h99l-51 246q-8 -39 -23.5 -119.5t-24.5 -126.5zM445 0h-99l-47 202h-135l-45 -202h-99l165 817h89zM214 949v-89h-76v89h76zM327 949v-89h-76v89h76z" />
    <glyph glyph-name="Aring" unicode="&#xc5;" horiz-adv-x="465" 
d="M182 299h99l-51 246q-8 -39 -23.5 -119.5t-24.5 -126.5zM445 0h-99l-47 202h-135l-45 -202h-99l165 817h89zM308 935q0 -32 -22 -54t-54 -22q-33 0 -54.5 21.5t-21.5 54.5q0 32 22 54t54 22t54 -22.5t22 -53.5zM260 935q0 11 -8.5 19.5t-19.5 8.5t-19.5 -8.5t-8.5 -19.5
t8.5 -19.5t19.5 -8.5t19.5 8.5t8.5 19.5z" />
    <glyph glyph-name="AE" unicode="&#xc6;" horiz-adv-x="716" 
d="M347 545l-98 -246h98v246zM18 0l338 817h316v-96h-227q0 -113 0.5 -189.5t0.5 -86.5h199v-96h-199q0 -51 -1 -125.5t-1 -127.5h228v-96h-326v202h-135l-92 -202h-101z" />
    <glyph glyph-name="Ccedilla" unicode="&#xc7;" horiz-adv-x="480" 
d="M439 589h-97v54q0 32 -26 55t-61 23q-43 0 -75 -23.5t-32 -54.5v-476q0 -31 32 -54.5t75 -23.5q35 0 61 23t26 55v58h97v-58q0 -68 -48.5 -118t-119.5 -55v-9q28 3 47.5 -11t19.5 -46q0 -30 -20 -45t-50 -15q-25 0 -56 13l17 41q22 -11 38 -11q26 0 26 19q0 27 -65 16v49
q-74 8 -125.5 57.5t-51.5 114.5v476q0 71 61 122.5t143 51.5q76 0 130 -51t54 -123v-54z" />
    <glyph glyph-name="Egrave" unicode="&#xc8;" horiz-adv-x="389" 
d="M47 817h314v-96h-218v-276h191v-96h-191v-253h218v-96h-314v817zM86 1002h128l63 -142h-98z" />
    <glyph glyph-name="Eacute" unicode="&#xc9;" horiz-adv-x="389" 
d="M47 817h314v-96h-218v-276h191v-96h-191v-253h218v-96h-314v817zM220 1002h128l-93 -142h-98z" />
    <glyph glyph-name="Ecircumflex" unicode="&#xca;" horiz-adv-x="389" 
d="M361 817h-314v-817h314v96h-218v253h191v96h-191v276h218v96zM223 959l79 -99h-70l-36 42l-37 -42h-73l84 99h53z" />
    <glyph glyph-name="Edieresis" unicode="&#xcb;" horiz-adv-x="389" 
d="M47 817h314v-96h-218v-276h191v-96h-191v-253h218v-96h-314v817zM185 949v-89h-76v89h76zM298 949v-89h-76v89h76z" />
    <glyph glyph-name="Igrave" unicode="&#xcc;" horiz-adv-x="198" 
d="M145 817v-817h-96v817h96zM-46 1002h128l63 -142h-98z" />
    <glyph glyph-name="Iacute" unicode="&#xcd;" horiz-adv-x="198" 
d="M145 817v-817h-96v817h96zM113 1002h128l-93 -142h-98z" />
    <glyph glyph-name="Icircumflex" unicode="&#xce;" horiz-adv-x="198" 
d="M145 0v817h-96v-817h96zM128 960l79 -99h-70l-36 42l-37 -42h-73l84 99h53z" />
    <glyph glyph-name="Idieresis" unicode="&#xcf;" horiz-adv-x="198" 
d="M145 817v-817h-96v817h96zM81 950v-89h-76v89h76zM194 950v-89h-76v89h76z" />
    <glyph glyph-name="Eth" unicode="&#xd0;" horiz-adv-x="481" 
d="M90 347h-64v97h64v373h174q70 0 122 -47.5t52 -117.5v-487q0 -70 -52 -117.5t-122 -47.5h-174v347zM264 723h-78v-279h102v-97h-102v-253h78q31 0 54 20.5t23 50.5v487q0 30 -23 50.5t-54 20.5z" />
    <glyph glyph-name="Ntilde" unicode="&#xd1;" horiz-adv-x="479" 
d="M147 538v-538h-96v817h104l176 -522v522h96v-817h-89zM291 869q-13 0 -50 12.5t-48 12.5q-9 0 -17.5 -4t-13 -7.5t-11 -11.5t-8.5 -10l-34 46q15 17 21.5 24t21 16t28.5 9q17 0 51.5 -12.5t59.5 -12.5q22 0 42 30l37 -49q-31 -43 -79 -43z" />
    <glyph glyph-name="Ograve" unicode="&#xd2;" 
d="M247 88q43 0 74 20.5t31 50.5v493q0 30 -31 50.5t-74 20.5q-42 0 -73.5 -20.5t-31.5 -50.5v-493q0 -30 31.5 -50.5t73.5 -20.5zM448 652v-493q0 -69 -59.5 -117t-141.5 -48q-80 0 -140.5 48t-60.5 117v493q0 69 60.5 117t140.5 48q82 0 141.5 -48t59.5 -117zM100 1002
h128l63 -142h-98z" />
    <glyph glyph-name="Oacute" unicode="&#xd3;" 
d="M247 88q43 0 74 20.5t31 50.5v493q0 30 -31 50.5t-74 20.5q-42 0 -73.5 -20.5t-31.5 -50.5v-493q0 -30 31.5 -50.5t73.5 -20.5zM448 652v-493q0 -69 -59.5 -117t-141.5 -48q-80 0 -140.5 48t-60.5 117v493q0 69 60.5 117t140.5 48q82 0 141.5 -48t59.5 -117zM261 1002
h128l-93 -142h-98z" />
    <glyph glyph-name="Ocircumflex" unicode="&#xd4;" 
d="M247 88q-42 0 -73.5 20.5t-31.5 50.5v493q0 30 31.5 50.5t73.5 20.5q43 0 74 -20.5t31 -50.5v-493q0 -30 -31 -50.5t-74 -20.5zM448 159v493q0 69 -59.5 117t-141.5 48q-80 0 -140.5 -48t-60.5 -117v-493q0 -69 60.5 -117t140.5 -48q82 0 141.5 48t59.5 117zM276 959
l79 -99h-70l-36 42l-37 -42h-73l84 99h53z" />
    <glyph glyph-name="Otilde" unicode="&#xd5;" 
d="M247 88q43 0 74 20.5t31 50.5v493q0 30 -31 50.5t-74 20.5q-42 0 -73.5 -20.5t-31.5 -50.5v-493q0 -30 31.5 -50.5t73.5 -20.5zM448 652v-493q0 -69 -59.5 -117t-141.5 -48q-80 0 -140.5 48t-60.5 117v493q0 69 60.5 117t140.5 48q82 0 141.5 -48t59.5 -117zM299 868
q-13 0 -50 12.5t-48 12.5q-9 0 -17.5 -4t-13 -7.5t-11 -11.5t-8.5 -10l-34 46q15 17 21.5 24t21 16t28.5 9q16 0 51 -12.5t60 -12.5q22 0 42 30l37 -49q-31 -43 -79 -43z" />
    <glyph glyph-name="Odieresis" unicode="&#xd6;" 
d="M247 88q43 0 74 20.5t31 50.5v493q0 30 -31 50.5t-74 20.5q-42 0 -73.5 -20.5t-31.5 -50.5v-493q0 -30 31.5 -50.5t73.5 -20.5zM448 652v-493q0 -69 -59.5 -117t-141.5 -48q-80 0 -140.5 48t-60.5 117v493q0 69 60.5 117t140.5 48q82 0 141.5 -48t59.5 -117zM229 949v-89
h-76v89h76zM342 949v-89h-76v89h76z" />
    <glyph glyph-name="multiply" unicode="&#xd7;" horiz-adv-x="408" 
d="M303 563l68 -68l-99 -99l100 -100l-69 -69l-99 100l-100 -100l-69 69l100 100l-98 98l68 68l99 -98z" />
    <glyph glyph-name="Oslash" unicode="&#xd8;" 
d="M448 652v-493q0 -69 -59.5 -117t-141.5 -48q-87 0 -148 54l-29 -61h-57l50 106q-17 31 -17 66v493q0 69 60.5 117t140.5 48q78 0 136 -44l26 56h58l-45 -96q26 -39 26 -81zM247 88q43 0 74 20.5t31 50.5v427l-208 -442q7 -25 36.5 -40.5t66.5 -15.5zM247 723
q-42 0 -73.5 -20.5t-31.5 -50.5v-392l199 424q-29 39 -94 39z" />
    <glyph glyph-name="Ugrave" unicode="&#xd9;" horiz-adv-x="467" 
d="M232 91q35 0 60.5 22t25.5 53v651h97v-651q0 -70 -54 -120.5t-129 -50.5q-74 0 -127.5 50.5t-53.5 120.5v651h96v-651q0 -31 25 -53t60 -22zM91 1003h128l63 -142h-98z" />
    <glyph glyph-name="Uacute" unicode="&#xda;" horiz-adv-x="467" 
d="M232 91q35 0 60.5 22t25.5 53v651h97v-651q0 -70 -54 -120.5t-129 -50.5q-74 0 -127.5 50.5t-53.5 120.5v651h96v-651q0 -31 25 -53t60 -22zM247 1002h128l-93 -142h-98z" />
    <glyph glyph-name="Ucircumflex" unicode="&#xdb;" horiz-adv-x="467" 
d="M232 91q-35 0 -60 22t-25 53v651h-96v-651q0 -70 53.5 -120.5t127.5 -50.5q75 0 129 50.5t54 120.5v651h-97v-651q0 -31 -25.5 -53t-60.5 -22zM262 959l79 -99h-70l-36 42l-37 -42h-73l84 99h53z" />
    <glyph glyph-name="Udieresis" unicode="&#xdc;" horiz-adv-x="467" 
d="M232 91q35 0 60.5 22t25.5 53v651h97v-651q0 -70 -54 -120.5t-129 -50.5q-74 0 -127.5 50.5t-53.5 120.5v651h96v-651q0 -31 25 -53t60 -22zM215 949v-89h-76v89h76zM328 949v-89h-76v89h76z" />
    <glyph glyph-name="Yacute" unicode="&#xdd;" horiz-adv-x="506" 
d="M301 0h-96v394q-33 75 -100 227.5t-86 195.5h105l129 -293q22 51 66 150.5t63 142.5h105l-186 -423v-394zM268 1002h128l-93 -142h-98z" />
    <glyph glyph-name="Thorn" unicode="&#xde;" horiz-adv-x="413" 
d="M231 530h-77v-276h77q32 0 54.5 22.5t22.5 53.5v123q0 31 -23 54t-54 23zM231 157h-77v-157h-97v817h97v-190h77q71 0 122.5 -51.5t51.5 -122.5v-123q0 -72 -51 -122.5t-123 -50.5z" />
    <glyph glyph-name="germandbls" unicode="&#xdf;" horiz-adv-x="861" 
d="M544 643v-120q0 -30 26 -49.5t64 -21.5q73 -6 127 -51t54 -114v-117q0 -72 -54 -123t-129 -51q-76 0 -130 51t-54 123v79h95v-79q0 -32 26.5 -55t62.5 -23t61 23t25 55v117q0 31 -26 51t-62 20q-74 0 -128 47.5t-54 117.5v120q0 72 54 123t130 51t129.5 -51t53.5 -123
v-82h-96v82q0 32 -26 55t-61 23q-36 0 -62 -23t-26 -55zM145 643v-120q0 -30 25.5 -49.5t63.5 -21.5q73 -6 127 -51t54 -114v-117q0 -72 -54 -123t-129 -51q-76 0 -130 51t-54 123v79h96v-79q0 -32 26 -55t62 -23t61.5 23t25.5 55v117q0 31 -26.5 51t-62.5 20
q-74 0 -128 47.5t-54 117.5v120q0 72 54 123t130 51t129.5 -51t53.5 -123v-82h-95v82q0 32 -26 55t-62 23t-61.5 -23t-25.5 -55z" />
    <glyph glyph-name="agrave" unicode="&#xe0;" horiz-adv-x="474" 
d="M177 219h119l-61 326q-10 -55 -29 -162.5t-29 -163.5zM450 0h-118l-27 122h-137l-25 -122h-118l165 817h89zM94 1002h128l63 -142h-98z" />
    <glyph glyph-name="aacute" unicode="&#xe1;" horiz-adv-x="474" 
d="M177 219h119l-61 326q-10 -55 -29 -162.5t-29 -163.5zM450 0h-118l-27 122h-137l-25 -122h-118l165 817h89zM251 1002h128l-93 -142h-98z" />
    <glyph glyph-name="acircumflex" unicode="&#xe2;" horiz-adv-x="474" 
d="M296 219h-119q10 56 29 163.5t29 162.5zM332 0h118l-171 817h-89l-165 -817h118l25 122h137zM263 959l79 -99h-70l-36 42l-37 -42h-73l84 99h53z" />
    <glyph glyph-name="atilde" unicode="&#xe3;" horiz-adv-x="474" 
d="M177 219h119l-61 326q-10 -55 -29 -162.5t-29 -163.5zM450 0h-118l-27 122h-137l-25 -122h-118l165 817h89zM288 868q-13 0 -50 12.5t-48 12.5q-9 0 -17.5 -4t-13 -7.5t-11 -11.5t-8.5 -10l-34 46q15 17 21.5 24t21 16t28.5 9q17 0 51 -12.5t60 -12.5q22 0 42 30l37 -49
q-31 -43 -79 -43z" />
    <glyph glyph-name="adieresis" unicode="&#xe4;" horiz-adv-x="474" 
d="M177 219h119l-61 326q-10 -55 -29 -162.5t-29 -163.5zM450 0h-118l-27 122h-137l-25 -122h-118l165 817h89zM218 949v-89h-76v89h76zM331 949v-89h-76v89h76z" />
    <glyph glyph-name="aring" unicode="&#xe5;" horiz-adv-x="474" 
d="M177 219h119l-61 326q-10 -55 -29 -162.5t-29 -163.5zM450 0h-118l-27 122h-137l-25 -122h-118l165 817h89zM313 936q0 -32 -22 -54t-54 -22q-33 0 -54.5 21.5t-21.5 54.5q0 32 22 54t54 22q31 0 53.5 -22t22.5 -54zM265 936q0 11 -8.5 19.5t-19.5 8.5t-19.5 -8.5
t-8.5 -19.5t8.5 -19.5t19.5 -8.5t19.5 8.5t8.5 19.5z" />
    <glyph glyph-name="ae" unicode="&#xe6;" horiz-adv-x="716" 
d="M347 545l-98 -246h98v246zM18 0l338 817h316v-96h-227q0 -113 0.5 -189.5t0.5 -86.5h199v-96h-199q0 -51 -1 -125.5t-1 -127.5h228v-96h-326v202h-135l-92 -202h-101z" />
    <glyph glyph-name="ccedilla" unicode="&#xe7;" horiz-adv-x="480" 
d="M439 589h-97v54q0 32 -26 55t-61 23q-43 0 -75 -23.5t-32 -54.5v-476q0 -31 32 -54.5t75 -23.5q35 0 61 23t26 55v58h97v-58q0 -68 -48.5 -118t-119.5 -55v-9q28 3 47.5 -11t19.5 -46q0 -30 -20 -45t-50 -15q-25 0 -56 13l17 41q22 -11 38 -11q26 0 26 19q0 27 -65 16v49
q-74 8 -125.5 57.5t-51.5 114.5v476q0 71 61 122.5t143 51.5q76 0 130 -51t54 -123v-54z" />
    <glyph glyph-name="egrave" unicode="&#xe8;" horiz-adv-x="404" 
d="M57 817h314v-96h-218v-196h191v-96h-191v-333h218v-96h-314v817zM91 1002h128l63 -142h-98z" />
    <glyph glyph-name="eacute" unicode="&#xe9;" horiz-adv-x="404" 
d="M57 817h314v-96h-218v-196h191v-96h-191v-333h218v-96h-314v817zM218 1003h128l-93 -142h-98z" />
    <glyph glyph-name="ecircumflex" unicode="&#xea;" horiz-adv-x="404" 
d="M371 817h-314v-817h314v96h-218v333h191v96h-191v196h218v96zM247 959l79 -99h-70l-36 42l-37 -42h-73l84 99h53z" />
    <glyph glyph-name="edieresis" unicode="&#xeb;" horiz-adv-x="404" 
d="M57 817h314v-96h-218v-196h191v-96h-191v-333h218v-96h-314v817zM198 949v-89h-76v89h76zM311 949v-89h-76v89h76z" />
    <glyph glyph-name="igrave" unicode="&#xec;" horiz-adv-x="198" 
d="M145 817v-817h-96v817h96zM-46 1002h128l63 -142h-98z" />
    <glyph glyph-name="iacute" unicode="&#xed;" horiz-adv-x="198" 
d="M145 817v-817h-96v817h96zM113 1002h128l-93 -142h-98z" />
    <glyph glyph-name="icircumflex" unicode="&#xee;" horiz-adv-x="198" 
d="M145 0v817h-96v-817h96zM128 960l79 -99h-70l-36 42l-37 -42h-73l84 99h53z" />
    <glyph glyph-name="idieresis" unicode="&#xef;" horiz-adv-x="198" 
d="M145 817v-817h-96v817h96zM81 950v-89h-76v89h76zM194 950v-89h-76v89h76z" />
    <glyph glyph-name="eth" unicode="&#xf0;" horiz-adv-x="481" 
d="M90 347h-64v97h64v373h174q70 0 122 -47.5t52 -117.5v-487q0 -70 -52 -117.5t-122 -47.5h-174v347zM264 723h-78v-279h102v-97h-102v-253h78q31 0 54 20.5t23 50.5v487q0 30 -23 50.5t-54 20.5z" />
    <glyph glyph-name="ntilde" unicode="&#xf1;" horiz-adv-x="479" 
d="M147 538v-538h-96v817h104l176 -522v522h96v-817h-89zM291 869q-13 0 -50 12.5t-48 12.5q-9 0 -17.5 -4t-13 -7.5t-11 -11.5t-8.5 -10l-34 46q15 17 21.5 24t21 16t28.5 9q17 0 51.5 -12.5t59.5 -12.5q22 0 42 30l37 -49q-31 -43 -79 -43z" />
    <glyph glyph-name="ograve" unicode="&#xf2;" 
d="M247 88q43 0 74 20.5t31 50.5v493q0 30 -31 50.5t-74 20.5q-42 0 -73.5 -20.5t-31.5 -50.5v-493q0 -30 31.5 -50.5t73.5 -20.5zM448 652v-493q0 -69 -59.5 -117t-141.5 -48q-80 0 -140.5 48t-60.5 117v493q0 69 60.5 117t140.5 48q82 0 141.5 -48t59.5 -117zM100 1002
h128l63 -142h-98z" />
    <glyph glyph-name="oacute" unicode="&#xf3;" 
d="M247 88q43 0 74 20.5t31 50.5v493q0 30 -31 50.5t-74 20.5q-42 0 -73.5 -20.5t-31.5 -50.5v-493q0 -30 31.5 -50.5t73.5 -20.5zM448 652v-493q0 -69 -59.5 -117t-141.5 -48q-80 0 -140.5 48t-60.5 117v493q0 69 60.5 117t140.5 48q82 0 141.5 -48t59.5 -117zM261 1002
h128l-93 -142h-98z" />
    <glyph glyph-name="ocircumflex" unicode="&#xf4;" 
d="M247 88q-42 0 -73.5 20.5t-31.5 50.5v493q0 30 31.5 50.5t73.5 20.5q43 0 74 -20.5t31 -50.5v-493q0 -30 -31 -50.5t-74 -20.5zM448 159v493q0 69 -59.5 117t-141.5 48q-80 0 -140.5 -48t-60.5 -117v-493q0 -69 60.5 -117t140.5 -48q82 0 141.5 48t59.5 117zM276 959
l79 -99h-70l-36 42l-37 -42h-73l84 99h53z" />
    <glyph glyph-name="otilde" unicode="&#xf5;" 
d="M247 88q43 0 74 20.5t31 50.5v493q0 30 -31 50.5t-74 20.5q-42 0 -73.5 -20.5t-31.5 -50.5v-493q0 -30 31.5 -50.5t73.5 -20.5zM448 652v-493q0 -69 -59.5 -117t-141.5 -48q-80 0 -140.5 48t-60.5 117v493q0 69 60.5 117t140.5 48q82 0 141.5 -48t59.5 -117zM299 868
q-13 0 -50 12.5t-48 12.5q-9 0 -17.5 -4t-13 -7.5t-11 -11.5t-8.5 -10l-34 46q15 17 21.5 24t21 16t28.5 9q16 0 51 -12.5t60 -12.5q22 0 42 30l37 -49q-31 -43 -79 -43z" />
    <glyph glyph-name="odieresis" unicode="&#xf6;" 
d="M247 88q43 0 74 20.5t31 50.5v493q0 30 -31 50.5t-74 20.5q-42 0 -73.5 -20.5t-31.5 -50.5v-493q0 -30 31.5 -50.5t73.5 -20.5zM448 652v-493q0 -69 -59.5 -117t-141.5 -48q-80 0 -140.5 48t-60.5 117v493q0 69 60.5 117t140.5 48q82 0 141.5 -48t59.5 -117zM229 949v-89
h-76v89h76zM342 949v-89h-76v89h76z" />
    <glyph glyph-name="divide" unicode="&#xf7;" horiz-adv-x="406" 
d="M348 347h-291v97h291v-97zM247 303v-112h-96v112h96zM247 603v-112h-96v112h96z" />
    <glyph glyph-name="oslash" unicode="&#xf8;" 
d="M448 652v-493q0 -69 -59.5 -117t-141.5 -48q-87 0 -148 54l-29 -61h-57l50 106q-17 31 -17 66v493q0 69 60.5 117t140.5 48q78 0 136 -44l26 56h58l-45 -96q26 -39 26 -81zM247 88q43 0 74 20.5t31 50.5v427l-208 -442q7 -25 36.5 -40.5t66.5 -15.5zM247 723
q-42 0 -73.5 -20.5t-31.5 -50.5v-392l199 424q-29 39 -94 39z" />
    <glyph glyph-name="ugrave" unicode="&#xf9;" horiz-adv-x="467" 
d="M232 91q35 0 60.5 22t25.5 53v651h97v-651q0 -70 -54 -120.5t-129 -50.5q-74 0 -127.5 50.5t-53.5 120.5v651h96v-651q0 -31 25 -53t60 -22zM91 1003h128l63 -142h-98z" />
    <glyph glyph-name="uacute" unicode="&#xfa;" horiz-adv-x="467" 
d="M232 91q35 0 60.5 22t25.5 53v651h97v-651q0 -70 -54 -120.5t-129 -50.5q-74 0 -127.5 50.5t-53.5 120.5v651h96v-651q0 -31 25 -53t60 -22zM247 1002h128l-93 -142h-98z" />
    <glyph glyph-name="ucircumflex" unicode="&#xfb;" horiz-adv-x="467" 
d="M232 91q-35 0 -60 22t-25 53v651h-96v-651q0 -70 53.5 -120.5t127.5 -50.5q75 0 129 50.5t54 120.5v651h-97v-651q0 -31 -25.5 -53t-60.5 -22zM262 959l79 -99h-70l-36 42l-37 -42h-73l84 99h53z" />
    <glyph glyph-name="udieresis" unicode="&#xfc;" horiz-adv-x="467" 
d="M232 91q35 0 60.5 22t25.5 53v651h97v-651q0 -70 -54 -120.5t-129 -50.5q-74 0 -127.5 50.5t-53.5 120.5v651h96v-651q0 -31 25 -53t60 -22zM215 949v-89h-76v89h76zM328 949v-89h-76v89h76z" />
    <glyph glyph-name="yacute" unicode="&#xfd;" horiz-adv-x="506" 
d="M301 0h-96v394q-33 75 -100 227.5t-86 195.5h105l129 -293q22 51 66 150.5t63 142.5h105l-186 -423v-394zM268 1002h128l-93 -142h-98z" />
    <glyph glyph-name="thorn" unicode="&#xfe;" horiz-adv-x="413" 
d="M231 530h-77v-276h77q32 0 54.5 22.5t22.5 53.5v123q0 31 -23 54t-54 23zM231 157h-77v-157h-97v817h97v-190h77q71 0 122.5 -51.5t51.5 -122.5v-123q0 -72 -51 -122.5t-123 -50.5z" />
    <glyph glyph-name="ydieresis" unicode="&#xff;" horiz-adv-x="506" 
d="M301 0h-96v394q-33 75 -100 227.5t-86 195.5h105l129 -293q22 51 66 150.5t63 142.5h105l-186 -423v-394zM234 950v-89h-76v89h76zM347 950v-89h-76v89h76z" />
    <glyph glyph-name="Lslash" unicode="&#x141;" horiz-adv-x="341" 
d="M317 96v-96h-267v371l-68 -24v97l68 24v349h96v-315l100 36v-97l-100 -36v-309h171z" />
    <glyph glyph-name="lslash" unicode="&#x142;" horiz-adv-x="341" 
d="M317 96v-96h-267v371l-68 -24v97l68 24v349h96v-315l100 36v-97l-100 -36v-309h171z" />
    <glyph glyph-name="OE" unicode="&#x152;" horiz-adv-x="717" 
d="M359 817h314v-96h-218v-276h191v-96h-191v-253h218v-96h-314v24q-47 -24 -105 -24q-80 0 -140.5 48t-60.5 117v487q0 69 60.5 117t140.5 48q58 0 105 -25v25zM254 94q43 0 74 20.5t31 50.5v490q-1 29 -32.5 48.5t-72.5 19.5q-42 0 -73.5 -20.5t-31.5 -50.5v-487
q0 -30 31.5 -50.5t73.5 -20.5z" />
    <glyph glyph-name="oe" unicode="&#x153;" horiz-adv-x="717" 
d="M359 817h314v-96h-218v-276h191v-96h-191v-253h218v-96h-314v24q-47 -24 -105 -24q-80 0 -140.5 48t-60.5 117v487q0 69 60.5 117t140.5 48q58 0 105 -25v25zM254 94q43 0 74 20.5t31 50.5v490q-1 29 -32.5 48.5t-72.5 19.5q-42 0 -73.5 -20.5t-31.5 -50.5v-487
q0 -30 31.5 -50.5t73.5 -20.5z" />
    <glyph glyph-name="Scaron" unicode="&#x160;" horiz-adv-x="451" 
d="M139 643q0 32 25.5 55t61.5 23q35 0 61 -23t26 -55v-82h96v82q0 72 -53.5 123t-129.5 51t-130 -51t-54 -123v-120q0 -70 54 -117.5t128 -47.5q36 0 62 -20t26 -51v-117q0 -32 -25 -55t-61 -23t-62 23t-26 55v79h-96v-79q0 -72 54 -123t130 -51q75 0 129 51t54 123v117
q0 69 -54 114t-127 51q-38 2 -63.5 21.5t-25.5 49.5v120zM333 959l-79 -99h-53l-84 99h73l37 -42l36 42h70z" />
    <glyph glyph-name="scaron" unicode="&#x161;" horiz-adv-x="457" 
d="M139 643q0 32 25.5 55t61.5 23q35 0 61 -23t26 -55v-82h96v82q0 72 -53.5 123t-129.5 51t-130 -51t-54 -123v-120q0 -70 54 -117.5t128 -47.5q36 0 62 -20t26 -51v-117q0 -32 -25 -55t-61 -23t-62 23t-26 55v79h-96v-79q0 -72 54 -123t130 -51q75 0 129 51t54 123v117
q0 69 -54 114t-127 51q-38 2 -63.5 21.5t-25.5 49.5v120zM336 959l-79 -99h-53l-84 99h73l37 -42l36 42h70z" />
    <glyph glyph-name="Ydieresis" unicode="&#x178;" horiz-adv-x="506" 
d="M301 0h-96v394q-33 75 -100 227.5t-86 195.5h105l129 -293q22 51 66 150.5t63 142.5h105l-186 -423v-394zM234 950v-89h-76v89h76zM347 950v-89h-76v89h76z" />
    <glyph glyph-name="Zcaron" unicode="&#x17d;" horiz-adv-x="498" 
d="M456 96h-300l300 644v77h-415v-96h298l-298 -644v-77h415v96zM357 959l-79 -99h-53l-84 99h73l37 -42l36 42h70z" />
    <glyph glyph-name="zcaron" unicode="&#x17e;" horiz-adv-x="498" 
d="M456 96h-300l300 644v77h-415v-96h298l-298 -644v-77h415v96zM357 959l-79 -99h-53l-84 99h73l37 -42l36 42h70z" />
    <glyph glyph-name="circumflex" unicode="&#x2c6;" horiz-adv-x="274" 
d="M166 817l79 -99h-70l-36 42l-37 -42h-73l84 99h53z" />
    <glyph glyph-name="caron" unicode="&#x2c7;" horiz-adv-x="274" 
d="M245 817l-79 -99h-53l-84 99h73l37 -42l36 42h70z" />
    <glyph glyph-name="breve" unicode="&#x2d8;" horiz-adv-x="209" 
d="M13 817h58q0 -16 10 -27.5t24 -11.5q13 0 23 11.5t10 27.5h58q0 -41 -26.5 -69t-64.5 -28q-40 0 -66 26.5t-26 70.5z" />
    <glyph glyph-name="dotaccent" unicode="&#x2d9;" horiz-adv-x="192" 
d="M142 817v-112h-96v112h96z" />
    <glyph glyph-name="ring" unicode="&#x2da;" horiz-adv-x="213" 
d="M182 741q0 -32 -22 -54t-54 -22q-33 0 -54.5 21.5t-21.5 54.5q0 32 22 54t54 22t54 -22.5t22 -53.5zM134 741q0 11 -8.5 19.5t-19.5 8.5t-19.5 -8.5t-8.5 -19.5t8.5 -19.5t19.5 -8.5t19.5 8.5t8.5 19.5z" />
    <glyph glyph-name="ogonek" unicode="&#x2db;" horiz-adv-x="154" 
d="M97 -251h-101l95 152h63z" />
    <glyph glyph-name="tilde" unicode="&#x2dc;" horiz-adv-x="337" 
d="M220 720q-13 0 -50 12.5t-48 12.5q-9 0 -17.5 -4t-13 -7.5t-11 -11.5t-8.5 -10l-34 46q15 17 21.5 24t21 16t28.5 9q17 0 51 -12.5t60 -12.5q22 0 42 30l37 -49q-31 -43 -79 -43z" />
    <glyph glyph-name="hungarumlaut" unicode="&#x2dd;" horiz-adv-x="305" 
d="M90 700h-46l40 92h66zM212 700h-47l41 92h66z" />
    <glyph glyph-name="endash" unicode="&#x2013;" horiz-adv-x="471" 
d="M424 347h-378v97h378v-97z" />
    <glyph glyph-name="emdash" unicode="&#x2014;" horiz-adv-x="591" 
d="M533 347h-476v97h476v-97z" />
    <glyph glyph-name="quoteleft" unicode="&#x2018;" horiz-adv-x="213" 
d="M86 817h57l-32 -56h49v-124h-106v124z" />
    <glyph glyph-name="quoteright" unicode="&#x2019;" horiz-adv-x="213" 
d="M128 637h-57l32 56h-49v124h106v-124z" />
    <glyph glyph-name="quotesinglbase" unicode="&#x201a;" horiz-adv-x="213" 
d="M128 -56h-57l32 56h-49v124h106v-124z" />
    <glyph glyph-name="quotedblleft" unicode="&#x201c;" horiz-adv-x="349" 
d="M222 817h57l-32 -56h49v-124h-106v124zM85 817h57l-32 -56h49v-124h-106v124z" />
    <glyph glyph-name="quotedblright" unicode="&#x201d;" horiz-adv-x="349" 
d="M127 637h-57l32 56h-49v124h106v-124zM264 637h-57l32 56h-49v124h106v-124z" />
    <glyph glyph-name="quotedblbase" unicode="&#x201e;" horiz-adv-x="349" 
d="M127 -56h-57l32 56h-49v124h106v-124zM264 -56h-57l32 56h-49v124h106v-124z" />
    <glyph glyph-name="dagger" unicode="&#x2020;" horiz-adv-x="395" 
d="M149 596h-141v97h141v197h96v-197h141v-97h-141v-686h-96v686z" />
    <glyph glyph-name="daggerdbl" unicode="&#x2021;" horiz-adv-x="402" 
d="M153 596h-141v97h141v197h96v-197h141v-97h-141v-392h141v-97h-141v-197h-96v197h-141v97h141v392z" />
    <glyph glyph-name="bullet" unicode="&#x2022;" horiz-adv-x="260" 
d="M28 394q0 41 30 71t71 30q43 0 73 -29t30 -72t-30 -73t-73 -30t-72 30t-29 73z" />
    <glyph glyph-name="ellipsis" unicode="&#x2026;" horiz-adv-x="576" 
d="M142 112v-112h-96v112h96zM334 112v-112h-96v112h96zM526 112v-112h-96v112h96z" />
    <glyph glyph-name="perthousand" unicode="&#x2030;" horiz-adv-x="826" 
d="M89 -25l307 842h98l-307 -842h-98zM136 405q-43 0 -74 29t-31 72v180q0 42 31.5 71.5t73.5 29.5q41 0 72 -29.5t31 -71.5v-180q0 -43 -30.5 -72t-72.5 -29zM155 506v180q0 7 -6.5 12.5t-12.5 5.5q-20 0 -20 -18v-180q0 -7 6 -12.5t14 -5.5t13.5 5.5t5.5 12.5zM439 -25
q-43 0 -73.5 29t-30.5 72v181q0 43 30 72t74 29q42 0 72.5 -29.5t30.5 -71.5v-181q0 -42 -30.5 -71.5t-72.5 -29.5zM458 76v181q0 7 -5.5 12t-13.5 5q-20 0 -20 -17v-181q0 -17 20 -17q8 0 13.5 5t5.5 12zM693 -25q-43 0 -73.5 29t-30.5 72v181q0 43 30 72t74 29
q42 0 72.5 -29.5t30.5 -71.5v-181q0 -42 -30.5 -71.5t-72.5 -29.5zM712 76v181q0 7 -5.5 12t-13.5 5q-20 0 -20 -17v-181q0 -17 20 -17q8 0 13.5 5t5.5 12z" />
    <glyph glyph-name="guilsinglleft" unicode="&#x2039;" horiz-adv-x="253" 
d="M230 220v-120l-208 228v65l208 228v-120l-121 -141q110 -127 121 -140z" />
    <glyph glyph-name="guilsinglright" unicode="&#x203a;" horiz-adv-x="253" 
d="M22 100v120q11 13 121 140l-121 141v120l208 -228v-65z" />
    <glyph glyph-name="fraction" unicode="&#x2044;" horiz-adv-x="590" 
d="M587 829l-514 -842h-70l513 842h71z" />
    <glyph glyph-name="Euro" unicode="&#x20ac;" horiz-adv-x="531" 
d="M307 -7q-82 0 -143 51.5t-61 122.5v104h-64v97h64v54h-64v97h64v124q0 71 61 122.5t143 51.5q76 0 130 -51t54 -123v-73h-97v73q0 32 -26 55t-61 23q-43 0 -75 -23.5t-32 -54.5v-124h147v-97h-147v-54h147v-97h-147v-104q0 -31 32 -54.5t75 -23.5q35 0 61 23t26 55v69h97
v-69q0 -72 -54 -123t-130 -51z" />
    <glyph glyph-name="trademark" unicode="&#x2122;" horiz-adv-x="656" 
d="M185 759v-433h-58v433h-78v58h213v-58h-77zM547 596l-64 -270h-51l-72 270v-270h-57v491h62l92 -372l93 372h56v-491h-59v270z" />
    <glyph glyph-name="minus" unicode="&#x2212;" horiz-adv-x="406" 
d="M348 347h-291v97h291v-97z" />
    </font>
</defs>
</svg>
