<?xml version="1.0" standalone="no"?>
<!DOCTYPE svg PUBLIC "-//W3C//DTD SVG 1.1//EN" "http://www.w3.org/Graphics/SVG/1.1/DTD/svg11.dtd" >
<svg>
<metadata>
Created by FontForge 20110222 at Mon Dec 23 10:09:14 2013
 By Orthosie Webhosting
Copyright (c) 2013 by Absolut Foundry. All rights reserved.
</metadata>
<defs>
<font id="MohaveRegular" horiz-adv-x="495" >
  <font-face 
    font-family="MohaveRegular"
    font-weight="400"
    font-stretch="normal"
    units-per-em="1000"
    panose-1="0 0 0 0 0 0 0 0 0 0"
    ascent="901"
    descent="-99"
    x-height="817"
    cap-height="817"
    bbox="-36 -251 837 1012"
    underline-thickness="50"
    underline-position="-49"
    unicode-range="U+0020-2212"
  />
<missing-glyph horiz-adv-x="393" 
d="M345 801v-800h-299l-1 800h300zM295 751h-200v-700h200v700z" />
    <glyph glyph-name=".notdef" horiz-adv-x="393" 
d="M345 801v-800h-299l-1 800h300zM295 751h-200v-700h200v700z" />
    <glyph glyph-name=".null" horiz-adv-x="0" 
 />
    <glyph glyph-name="nonmarkingreturn" horiz-adv-x="333" 
 />
    <glyph glyph-name="space" unicode=" " horiz-adv-x="200" 
 />
    <glyph glyph-name="exclam" unicode="!" horiz-adv-x="184" 
d="M129 86v-86h-75v86h75zM133 817l-14 -654h-56l-14 654h84z" />
    <glyph glyph-name="quotedbl" unicode="&#x22;" horiz-adv-x="349" 
d="M116 637h-37l32 66h-49v114h86v-114zM253 637h-37l32 66h-49v114h86v-114z" />
    <glyph glyph-name="numbersign" unicode="#" horiz-adv-x="530" 
d="M194 472l-29 -183h170q5 30 14 87.5t15 96.5q-26 0 -80.5 -0.5t-89.5 -0.5zM451 539h47v-66h-65l-30 -184h73v-66h-90q-6 -36 -19 -109t-20 -114h-67l37 223h-170q-5 -27 -17.5 -103t-20.5 -120h-66l36 223h-54l-1 66h72q5 35 15 91.5t15 92.5h-78v66h96l51 278h68
l-51 -278h170q5 28 23.5 128.5t27.5 149.5h69z" />
    <glyph glyph-name="dollar" unicode="$" horiz-adv-x="409" 
d="M310 148v128q0 48 -78 76v-294q32 16 55 41t23 49zM97 643v-131q0 -49 78 -75v296q-36 -15 -57 -39t-21 -51zM232 -19v-54h-57v54q-63 17 -103.5 63.5t-40.5 103.5l-1 80h66v-80q0 -25 22 -49.5t57 -40.5v315q-63 13 -104 51.5t-41 87.5v131q0 58 40.5 104t104.5 62v53
h57v-53q65 -15 105 -61t40 -105v-83h-66v83q0 62 -79 91v-321q61 -15 103 -52.5t42 -84.5v-128q0 -58 -40.5 -104t-104.5 -63z" />
    <glyph glyph-name="percent" unicode="%" horiz-adv-x="578" 
d="M108 -25l307 842h58l-307 -842h-58zM135 405q-43 0 -74 29t-31 72v180q0 42 31.5 71.5t73.5 29.5q41 0 72 -29.5t31 -71.5v-180q0 -43 -30.5 -72t-72.5 -29zM184 506v180q0 20 -16 34t-33 14q-22 0 -36 -13.5t-14 -34.5v-180q0 -21 14 -34.5t36 -13.5q19 0 34 14t15 34z
M438 -25q-43 0 -73.5 29t-30.5 72v181q0 43 30 72t74 29q42 0 72.5 -29.5t30.5 -71.5v-181q0 -42 -30.5 -71.5t-72.5 -29.5zM487 76v181q0 18 -15 32.5t-34 14.5q-22 0 -36 -13t-14 -34v-181q0 -21 14 -34t36 -13q21 0 35 14t14 33z" />
    <glyph glyph-name="ampersand" unicode="&#x26;" horiz-adv-x="529" 
d="M240 442h104v75h78v-75h63v-65h-63v-219q0 -73 -55 -123.5t-127 -50.5t-126 50t-55 124v130q0 67 59 123q-59 64 -59 121v130q0 73 54.5 123.5t126.5 50.5q75 0 127 -59t55 -153h-78q-6 63 -33 99.5t-71 36.5q-45 0 -74.5 -27.5t-29.5 -70.5v-130q4 -36 37 -63t67 -27z
M344 158v219h-104q-45 0 -74.5 -25t-29.5 -64v-130q0 -43 29.5 -70.5t74.5 -27.5t74.5 27.5t29.5 70.5z" />
    <glyph glyph-name="quotesingle" unicode="'" horiz-adv-x="213" 
d="M117 637h-37l32 66h-49v114h86v-114z" />
    <glyph glyph-name="parenleft" unicode="(" horiz-adv-x="364" 
d="M239 901h65v-70q-36 0 -61.5 -3t-51.5 -11.5t-39.5 -27t-13.5 -46.5v-648q0 -75 33 -98.5t133 -24.5v-70h-65q-76 0 -126.5 39.5t-51.5 116.5v685q0 78 50.5 118t127.5 40z" />
    <glyph glyph-name="parenright" unicode=")" horiz-adv-x="364" 
d="M61 901h65q77 0 127.5 -40t50.5 -118v-685q0 -77 -50.5 -116.5t-127.5 -39.5h-64v70q99 1 132 24.5t33 98.5v648q0 28 -13.5 46.5t-39.5 27t-51.5 11.5t-61.5 3v70z" />
    <glyph glyph-name="asterisk" unicode="*" horiz-adv-x="295" 
d="M249 742l-54 -36q7 -4 26 -16t28 -18q-13 -15 -26 -33l-54 33v-75h-46l1 75q-16 -10 -28 -17t-17.5 -10t-8.5 -5l-26 33l52 33l-52 35q4 5 8.5 10.5t9.5 11.5t8 10l53 -34v77h46l-1 -77q8 5 30 18.5t25 15.5q4 -6 13 -15.5t13 -15.5z" />
    <glyph glyph-name="plus" unicode="+" horiz-adv-x="408" 
d="M392 424v-57h-160v-161h-57v161h-161v57h161v159h57v-159h160z" />
    <glyph glyph-name="comma" unicode="," horiz-adv-x="163" 
d="M122 102v-91l-76 -59v150h76z" />
    <glyph glyph-name="hyphen" unicode="-" horiz-adv-x="406" 
d="M347 367h-291v57h291v-57z" />
    <glyph glyph-name="period" unicode="." horiz-adv-x="192" 
d="M131 102v-102h-76v102h76z" />
    <glyph glyph-name="slash" unicode="/" horiz-adv-x="418" 
d="M390 829l-307 -842h-57l305 842h59z" />
    <glyph glyph-name="zero" unicode="0" horiz-adv-x="503" 
d="M251 -9q-82 0 -141.5 56.5t-60.5 138.5v436q0 82 60 138.5t142 56.5t141.5 -56.5t59.5 -138.5v-436q0 -82 -59.5 -138.5t-141.5 -56.5zM251 753q-55 0 -96 -38t-41 -93v-481l229 574q-41 38 -92 38zM251 55q54 0 94.5 38t40.5 93v488l-228 -575q35 -44 93 -44z" />
    <glyph glyph-name="one" unicode="1" horiz-adv-x="277" 
d="M244 0h-66v660q-16 -3 -36.5 -4.5t-35.5 -1.5t-40 0.5t-35 0.5v56h33q27 0 39.5 0.5t34 3.5t31 11t9.5 21v70h66v-817z" />
    <glyph glyph-name="two" unicode="2" horiz-adv-x="456" 
d="M119 649v-129h-66v129q0 70 51 119t121 49t121 -50t51 -118t0.5 -105.5t0.5 -40.5q0 -46 -11.5 -81.5t-35.5 -62.5t-43 -42t-53 -37q-58 -42 -92 -98t-22 -117h272v-65h-342l-1 71q0 91 26 146t104 101q37 26 55 40.5t39.5 37.5t30 48t8.5 56l-2 149q-1 43 -32.5 73
t-73.5 30q-41 0 -73.5 -31.5t-32.5 -71.5z" />
    <glyph glyph-name="three" unicode="3" horiz-adv-x="446" 
d="M210 387h-48v55h47h15.5h20t19.5 1.5t20.5 4.5t17.5 8.5t16 13.5t9 20t4 28v130q0 45 -31 74t-78 29q-44 0 -76.5 -29.5t-32.5 -73.5v-128h-68v128q0 71 53 120t124 49q72 0 124 -48.5t52 -120.5v-130q0 -24 -9 -42.5t-19 -29t-35 -32.5q63 -49 63 -121v-130
q0 -72 -52 -120.5t-124 -48.5q-71 0 -123.5 49t-53.5 120v127h68v-127q0 -45 33 -74t76 -29q47 0 78 29t31 74v130q0 28 -8.5 48t-22 28.5t-30 13.5t-32 4t-28.5 0z" />
    <glyph glyph-name="four" unicode="4" horiz-adv-x="454" 
d="M375 167v-167h-66v167h-288v57l265 593h89v-594h56v-56h-56zM309 223v503q-192 -425 -226 -503h226z" />
    <glyph glyph-name="five" unicode="5" horiz-adv-x="494" 
d="M246 554q83 0 141.5 -58.5t58.5 -141.5v-161q0 -83 -58.5 -141.5t-141.5 -58.5q-84 0 -142 58t-59 142v55h65v-55q0 -54 41 -94t95 -40t94 40t40 94v161q0 54 -40 94.5t-94 40.5q-53 0 -93 -43.5t-44 -106.5h-64v478h401v-66h-336v-255q58 58 136 58z" />
    <glyph glyph-name="six" unicode="6" horiz-adv-x="500" 
d="M249 537q81 0 141.5 -57t60.5 -138v-156q0 -82 -60 -138.5t-142 -56.5q-81 0 -141 56.5t-61 138.5v436q0 82 60 138.5t142 56.5t142 -56.5t60 -138.5v-46h-66v46q0 56 -40.5 93.5t-95.5 37.5t-95 -37t-40 -94v-133q62 48 135 48zM249 472q-55 0 -95 -37t-40 -93v-156
q0 -57 40 -94t95 -37t95.5 37.5t40.5 93.5v156q0 55 -40.5 92.5t-95.5 37.5z" />
    <glyph glyph-name="seven" unicode="7" horiz-adv-x="411" 
d="M388 731l-222 -731h-70l219 751h-294v66h367v-86z" />
    <glyph glyph-name="eight" unicode="8" horiz-adv-x="498" 
d="M46 560v65q0 81 60 136.5t142 55.5t141.5 -55t59.5 -137v-65q0 -90 -71 -146q71 -56 71 -146v-97q0 -75 -55.5 -126.5t-131.5 -51.5h-29q-76 0 -131 51.5t-56 126.5v97q0 87 72 146q-72 57 -72 146zM233 56h29q48 0 84.5 33.5t36.5 81.5v97q0 51 -40 84.5t-95 33.5
t-95.5 -34t-40.5 -84v-97q0 -48 36.5 -81.5t84.5 -33.5zM248 442q55 0 95 33.5t40 84.5v65q0 54 -40.5 91.5t-94.5 37.5t-95 -37.5t-41 -91.5v-65q0 -50 40.5 -84t95.5 -34z" />
    <glyph glyph-name="nine" unicode="9" horiz-adv-x="499" 
d="M248 271q-81 0 -141.5 57t-60.5 138v156q0 82 60 138.5t142 56.5t142 -56.5t60 -138.5v-436q0 -82 -60 -138.5t-142 -56.5q-81 0 -141 56.5t-61 138.5v46h66v-46q0 -56 40.5 -93.5t95.5 -37.5t95 37t40 94v133q-62 -48 -135 -48zM248 336q55 0 95 37t40 93v156
q0 57 -40 94t-95 37t-95.5 -37.5t-40.5 -93.5v-156q0 -55 40.5 -92.5t95.5 -37.5z" />
    <glyph glyph-name="colon" unicode=":" horiz-adv-x="169" 
d="M122 102v-102h-76v102h76zM122 412v-102h-76v102h76z" />
    <glyph glyph-name="semicolon" unicode=";" horiz-adv-x="169" 
d="M122 412v-102h-76v102h76zM122 102v-91l-76 -69v160h76z" />
    <glyph glyph-name="less" unicode="&#x3c;" horiz-adv-x="428" 
d="M402 284v-70l-378 142v81l378 142v-70l-300 -113q229 -85 300 -112z" />
    <glyph glyph-name="equal" unicode="=" horiz-adv-x="391" 
d="M350 452h-308v67h308v-67zM350 271h-308v67h308v-67z" />
    <glyph glyph-name="greater" unicode="&#x3e;" horiz-adv-x="428" 
d="M25 214l-1 70q71 27 300 112l-300 113v70l378 -142v-81z" />
    <glyph glyph-name="question" unicode="?" horiz-adv-x="387" 
d="M346 643v-101q0 -44 -19 -81t-46.5 -63.5t-55 -52t-46.5 -58.5t-19 -72v-51h-57v51q0 45 29 93.5t64 82.5t64.5 73t29.5 69l-1 110q0 43 -29 75.5t-67 32.5q-46 0 -77 -31t-31 -77v-82h-66v82q0 72 51 123t123 51q63 0 108 -51t45 -123zM168 86v-86h-76v86h76z" />
    <glyph glyph-name="at" unicode="@" horiz-adv-x="668" 
d="M334 -35h77q57 0 150 86v-100q-78 -49 -150 -49h-77q-135 0 -229.5 94t-94.5 230l-1 198q0 136 95 231t230 95h125q84 0 142.5 -58.5t58.5 -142.5v-216q0 -84 -45.5 -147.5t-128.5 -63.5q-31 0 -50 5q-59 -43 -115 -43q-66 0 -110.5 44.5t-44.5 110.5q0 22 2 45t5.5 50.5
t4.5 44.5q8 67 58 115t117 48h88q31 0 52 -21.5t23 -52.5l-24 -283q51 9 78 52t27 96v216q0 55 -41.5 96.5t-96.5 41.5h-125q-106 0 -184 -78.5t-78 -184.5v-198q0 -106 78 -183.5t184 -77.5zM353 479q-42 0 -75.5 -32t-36.5 -73l-12 -135q0 -39 27.5 -65.5t64.5 -26.5
q47 0 77 32t37 79l19 223z" />
    <glyph glyph-name="A" unicode="A" horiz-adv-x="465" 
d="M142 279h177l-90 424q-5 -23 -87 -424zM444 0h-69l-47 222h-195l-45 -222h-68l164 817h89z" />
    <glyph glyph-name="B" unicode="B" horiz-adv-x="476" 
d="M46 0l-1 817h195q72 0 123 -53.5t51 -129.5v-103q0 -71 -71 -125q47 -28 73.5 -70.5t26.5 -89.5v-48q0 -83 -55.5 -140.5t-133.5 -57.5h-208zM254 368h-143v-302h143q50 0 86 30t36 72v78q0 50 -36 86t-86 36zM240 751h-129v-327h129q43 0 75 32t32 75v133q0 35 -32 61
t-75 26z" />
    <glyph glyph-name="C" unicode="C" horiz-adv-x="480" 
d="M254 -7q-82 0 -142.5 51t-61.5 123v476q0 71 61 122.5t143 51.5q76 0 130 -51t54 -123v-54h-67v54q0 43 -35.5 75.5t-81.5 32.5q-54 0 -95.5 -32.5t-41.5 -75.5v-476q0 -43 41.5 -75.5t95.5 -32.5q46 0 81.5 32.5t35.5 75.5v58h67v-58q0 -72 -54 -123t-130 -51z" />
    <glyph glyph-name="D" unicode="D" horiz-adv-x="438" 
d="M220 753h-108v-689h108q43 0 75 29t32 72v487q0 43 -32 72t-75 29zM220 0h-173l-1 817h174q70 0 122 -47.5t52 -117.5v-487q0 -70 -52 -117.5t-122 -47.5z" />
    <glyph glyph-name="E" unicode="E" horiz-adv-x="389" 
d="M46 817h314v-66h-248v-326h221v-56h-221v-303h248v-66h-313z" />
    <glyph glyph-name="F" unicode="F" horiz-adv-x="367" 
d="M113 425h221v-56h-221v-369h-65l-1 817h314v-66h-248v-326z" />
    <glyph glyph-name="G" unicode="G" horiz-adv-x="489" 
d="M254 -7q-81 0 -142 48t-62 117v487q0 71 61 121.5t143 50.5q75 0 129.5 -50.5t54.5 -121.5v-118h-66v118q0 42 -35.5 74t-82.5 32q-54 0 -95.5 -32t-41.5 -74v-487q0 -43 41.5 -72t95.5 -29q47 0 82.5 29t35.5 72v214h-102v55h168v-269q0 -69 -55 -117t-129 -48z" />
    <glyph glyph-name="H" unicode="H" horiz-adv-x="450" 
d="M400 817v-817h-67v369h-219v-369h-66l-1 817h67v-392h219v392h67z" />
    <glyph glyph-name="I" unicode="I" horiz-adv-x="198" 
d="M131 817v-817h-69l-1 817h70z" />
    <glyph glyph-name="J" unicode="J" horiz-adv-x="291" 
d="M70 0h-63v60q89 -1 129 21t40 72v664h66v-664q0 -75 -48.5 -114t-123.5 -39z" />
    <glyph glyph-name="K" unicode="K" horiz-adv-x="502" 
d="M115 360v-360h-65l-1 817h66v-365q217 291 273 365h81l-235 -317l215 -500h-64l-199 449z" />
    <glyph glyph-name="L" unicode="L" horiz-adv-x="341" 
d="M316 66v-66h-266l-1 817h66v-751h201z" />
    <glyph glyph-name="M" unicode="M" horiz-adv-x="606" 
d="M487 544l-137 -544h-86l-149 548v-548h-65l-1 817h74l184 -717l185 717h62v-817h-67v544z" />
    <glyph glyph-name="N" unicode="N" horiz-adv-x="479" 
d="M116 656v-656h-65l-1 817h74l236 -630v630h66v-817h-59z" />
    <glyph glyph-name="O" unicode="O" 
d="M246 58q55 0 95 29t40 72v493q0 43 -40 72t-95 29q-54 0 -94.5 -29t-40.5 -72v-493q0 -43 40.5 -72t94.5 -29zM447 652v-493q0 -69 -59.5 -117t-141.5 -48q-80 0 -140 48t-61 117v493q0 69 60.5 117t140.5 48q82 0 141.5 -48t59.5 -117z" />
    <glyph glyph-name="P" unicode="P" horiz-adv-x="411" 
d="M399 643v-122q0 -72 -51 -122.5t-123 -50.5h-107v-348h-66l-1 817h174q71 0 122.5 -51t51.5 -123zM225 751h-107v-337h107q43 0 75 32t32 75v122q0 43 -32 75.5t-75 32.5z" />
    <glyph glyph-name="Q" unicode="Q" horiz-adv-x="486" 
d="M349 -92h-57l-22 86h-30q-82 0 -141 47t-60 117v493q0 70 59.5 117.5t141.5 47.5q83 0 142 -47.5t59 -117.5v-493q0 -48 -29.5 -85.5t-86.5 -58.5zM228 186h53l30 -115q64 32 64 87v493q0 42 -41 71.5t-94 29.5t-94 -29t-41 -72v-493q0 -43 39.5 -72t113.5 -29z" />
    <glyph glyph-name="R" unicode="R" horiz-adv-x="454" 
d="M118 368v-368h-66l-1 817h174q72 0 123.5 -51t51.5 -123v-122q0 -68 -72 -122q37 -25 58 -60t21 -72v-267h-67v267q0 40 -33 70.5t-77 30.5h-112zM255 751h-137v-327h111q43 0 73 29t30 68v122q0 46 -22.5 77t-54.5 31z" />
    <glyph glyph-name="S" unicode="S" horiz-adv-x="451" 
d="M108 643v-120q0 -39 35 -64t84 -27q73 -6 127 -45.5t54 -99.5v-117q0 -72 -54 -123t-129 -51q-76 0 -129.5 51t-54.5 123v79h66v-79q0 -43 35.5 -75.5t82.5 -32.5q49 0 82.5 32t33.5 76v117q0 35 -35 58t-83 23q-74 0 -128 44.5t-54 110.5v120q0 72 54 123t130 51
t129.5 -51t53.5 -123v-82h-66v82q0 45 -35 76.5t-82 31.5q-49 0 -83 -32t-34 -76z" />
    <glyph glyph-name="T" unicode="T" horiz-adv-x="431" 
d="M249 751v-751h-66v751h-146v66h354v-66h-142z" />
    <glyph glyph-name="U" unicode="U" horiz-adv-x="467" 
d="M231 61q46 0 81 31.5t35 73.5v651h67v-651q0 -70 -54 -120.5t-129 -50.5q-74 0 -127 50t-54 121v651h66v-651q0 -42 34.5 -73.5t80.5 -31.5z" />
    <glyph glyph-name="V" unicode="V" horiz-adv-x="475" 
d="M25 817h68l145 -734l142 734h68l-147 -817h-126z" />
    <glyph glyph-name="W" unicode="W" horiz-adv-x="673" 
d="M335 603l-105 -603h-73l-121 817h68l95 -602l105 602h63l105 -602l95 602h68l-121 -817h-73z" />
    <glyph glyph-name="X" unicode="X" horiz-adv-x="558" 
d="M321 397l192 -397h-74l-161 336q-29 -68 -84.5 -178.5t-76.5 -157.5h-73l192 396q-35 75 -104.5 228t-87.5 193h75l159 -357q28 64 83 186.5t76 170.5h75q-147 -329 -191 -420z" />
    <glyph glyph-name="Y" unicode="Y" horiz-adv-x="506" 
d="M284 0h-66v394q-29 61 -98 207.5t-102 215.5h75l159 -332q25 53 79.5 166t79.5 166h75l-202 -423v-394z" />
    <glyph glyph-name="Z" unicode="Z" horiz-adv-x="498" 
d="M135 66h320v-66h-394l-1 77l308 674h-328v66h405v-77z" />
    <glyph glyph-name="bracketleft" unicode="[" horiz-adv-x="297" 
d="M108 834v-866h146v-67h-212l-1 1000h213v-67h-146z" />
    <glyph glyph-name="backslash" unicode="\" horiz-adv-x="418" 
d="M332 -13l-307 842h59l306 -842h-58z" />
    <glyph glyph-name="bracketright" unicode="]" horiz-adv-x="297" 
d="M187 -32v866h-146v67h213v-1000h-212v67h145z" />
    <glyph glyph-name="asciicircum" unicode="^" horiz-adv-x="434" 
d="M185 821h66l157 -196h-78l-112 132l-119 -132h-76z" />
    <glyph glyph-name="underscore" unicode="_" horiz-adv-x="577" 
d="M518 -50h-462v40h462v-40z" />
    <glyph glyph-name="grave" unicode="`" horiz-adv-x="240" 
d="M27 817h98l63 -142h-68z" />
    <glyph glyph-name="a" unicode="a" horiz-adv-x="474" 
d="M137 199h197l-100 504q-17 -84 -97 -504zM449 0h-69l-37 142h-215l-35 -142h-68l164 817h89z" />
    <glyph glyph-name="b" unicode="b" horiz-adv-x="496" 
d="M46 0l-1 817h195q72 0 123 -53.5t51 -129.5v-103q0 -71 -71 -125q47 -28 73.5 -70.5t26.5 -89.5v-48q0 -83 -55.5 -140.5t-133.5 -57.5h-208zM254 368h-143v-302h143q50 0 86 30t36 72v78q0 50 -36 86t-86 36zM240 751h-129v-327h129q43 0 75 32t32 75v133q0 35 -32 61
t-75 26z" />
    <glyph glyph-name="c" unicode="c" horiz-adv-x="480" 
d="M254 -7q-82 0 -142.5 51t-61.5 123v476q0 71 61 122.5t143 51.5q76 0 130 -51t54 -123v-54h-67v54q0 43 -35.5 75.5t-81.5 32.5q-54 0 -95.5 -32.5t-41.5 -75.5v-476q0 -43 41.5 -75.5t95.5 -32.5q46 0 81.5 32.5t35.5 75.5v58h67v-58q0 -72 -54 -123t-130 -51z" />
    <glyph glyph-name="d" unicode="d" horiz-adv-x="438" 
d="M220 753h-108v-689h108q43 0 75 29t32 72v487q0 43 -32 72t-75 29zM220 0h-173l-1 817h174q70 0 122 -47.5t52 -117.5v-487q0 -70 -52 -117.5t-122 -47.5z" />
    <glyph glyph-name="e" unicode="e" horiz-adv-x="404" 
d="M56 817h314v-66h-248v-246h221v-56h-221v-383h248v-66h-313z" />
    <glyph glyph-name="f" unicode="f" horiz-adv-x="377" 
d="M122 345h221v-56h-221v-289h-65l-1 817h314v-66h-248v-406z" />
    <glyph glyph-name="g" unicode="g" horiz-adv-x="489" 
d="M254 -7q-81 0 -142 48t-62 117v487q0 71 61 121.5t143 50.5q75 0 129.5 -50.5t54.5 -121.5v-118h-66v118q0 42 -35.5 74t-82.5 32q-54 0 -95.5 -32t-41.5 -74v-487q0 -43 41.5 -72t95.5 -29q47 0 82.5 29t35.5 72v134h-102v55h168v-189q0 -69 -55 -117t-129 -48z" />
    <glyph glyph-name="h" unicode="h" horiz-adv-x="450" 
d="M400 817v-817h-67v369h-219v-369h-66l-1 817h67v-392h219v392h67z" />
    <glyph glyph-name="i" unicode="i" horiz-adv-x="198" 
d="M131 817v-817h-69l-1 817h70z" />
    <glyph glyph-name="j" unicode="j" horiz-adv-x="291" 
d="M70 0h-63v60q89 -1 129 21t40 72v664h66v-664q0 -75 -48.5 -114t-123.5 -39z" />
    <glyph glyph-name="k" unicode="k" horiz-adv-x="502" 
d="M115 360v-360h-65l-1 817h66v-365q217 291 273 365h81l-235 -317l215 -500h-64l-199 449z" />
    <glyph glyph-name="l" unicode="l" horiz-adv-x="341" 
d="M316 66v-66h-266l-1 817h66v-751h201z" />
    <glyph glyph-name="m" unicode="m" horiz-adv-x="606" 
d="M487 534l-137 -534h-86l-149 538v-538h-65l-1 817h74l184 -717l185 717h62v-817h-67v534z" />
    <glyph glyph-name="n" unicode="n" horiz-adv-x="479" 
d="M116 646v-646h-65l-1 817h74l236 -630v630h66v-817h-59z" />
    <glyph glyph-name="o" unicode="o" 
d="M246 58q55 0 95 29t40 72v493q0 43 -40 72t-95 29q-54 0 -94.5 -29t-40.5 -72v-493q0 -43 40.5 -72t94.5 -29zM447 652v-493q0 -69 -59.5 -117t-141.5 -48q-80 0 -140 48t-61 117v493q0 69 60.5 117t140.5 48q82 0 141.5 -48t59.5 -117z" />
    <glyph glyph-name="p" unicode="p" horiz-adv-x="423" 
d="M404 643v-202q0 -72 -51 -122.5t-123 -50.5h-107v-268h-66l-1 817h174q71 0 122.5 -51t51.5 -123zM230 751h-107v-417h107q43 0 75 32t32 75v202q0 43 -32 75.5t-75 32.5z" />
    <glyph glyph-name="q" unicode="q" horiz-adv-x="486" 
d="M349 -92h-57l-22 86h-30q-82 0 -141 47t-60 117v493q0 70 59.5 117.5t141.5 47.5q83 0 142 -47.5t59 -117.5v-493q0 -48 -29.5 -85.5t-86.5 -58.5zM228 186h53l30 -115q64 32 64 87v493q0 42 -41 71.5t-94 29.5t-94 -29t-41 -72v-493q0 -43 39.5 -72t113.5 -29z" />
    <glyph glyph-name="r" unicode="r" horiz-adv-x="464" 
d="M123 288v-288h-66l-1 817h174q72 0 123.5 -51t51.5 -123v-202q0 -68 -72 -122q79 -54 79 -132v-187h-67v187q0 40 -33 70.5t-77 30.5h-112zM230 751h-107v-407h111q43 0 73 29t30 68v202q0 46 -30.5 77t-76.5 31z" />
    <glyph glyph-name="s" unicode="s" horiz-adv-x="451" 
d="M108 643v-120q0 -39 35 -64t84 -27q73 -6 127 -45.5t54 -99.5v-117q0 -72 -54 -123t-129 -51q-76 0 -129.5 51t-54.5 123v79h66v-79q0 -43 35.5 -75.5t82.5 -32.5q49 0 82.5 32t33.5 76v117q0 35 -35 58t-83 23q-74 0 -128 44.5t-54 110.5v120q0 72 54 123t130 51
t129.5 -51t53.5 -123v-82h-66v82q0 45 -35 76.5t-82 31.5q-49 0 -83 -32t-34 -76z" />
    <glyph glyph-name="t" unicode="t" horiz-adv-x="431" 
d="M249 751v-751h-66v751h-146v66h354v-66h-142z" />
    <glyph glyph-name="u" unicode="u" horiz-adv-x="467" 
d="M231 61q46 0 81 31.5t35 73.5v651h67v-651q0 -70 -54 -120.5t-129 -50.5q-74 0 -127 50t-54 121v651h66v-651q0 -42 34.5 -73.5t80.5 -31.5z" />
    <glyph glyph-name="v" unicode="v" horiz-adv-x="475" 
d="M25 817h68l145 -734l142 734h68l-147 -817h-126z" />
    <glyph glyph-name="w" unicode="w" horiz-adv-x="673" 
d="M335 603l-105 -603h-73l-121 817h68l95 -602l105 602h63l105 -602l95 602h68l-121 -817h-73z" />
    <glyph glyph-name="x" unicode="x" horiz-adv-x="558" 
d="M321 397l192 -397h-74l-161 346q-29 -70 -84.5 -184.5t-76.5 -161.5h-73l192 396q-35 75 -104.5 228t-87.5 193h75l159 -367q28 66 83 192.5t76 174.5h75q-147 -329 -191 -420z" />
    <glyph glyph-name="y" unicode="y" horiz-adv-x="506" 
d="M284 0h-66v394q-29 61 -98 207.5t-102 215.5h75l159 -332q25 53 79.5 166t79.5 166h75l-202 -423v-394z" />
    <glyph glyph-name="z" unicode="z" horiz-adv-x="498" 
d="M135 66h320v-66h-394l-1 77l308 674h-328v66h405v-77z" />
    <glyph glyph-name="braceleft" unicode="{" horiz-adv-x="310" 
d="M283 -40v-56q-39 -3 -65 -3q-59 0 -91 31t-32 89v315q0 24 -16.5 33.5t-54.5 9.5v70q38 0 54.5 9.5t16.5 33.5v232q0 35 0.5 53t6.5 46t18.5 42.5t37 25.5t60.5 11h65v-60h-34q-26 0 -38 -0.5t-26.5 -4.5t-20 -13t-5.5 -24q0 -76 1 -177t1 -139q0 -49 -44 -70
q27 -13 35.5 -28.5t8.5 -41.5v-343q0 -12 4 -20t8 -12.5t18 -6.5t22.5 -2h31.5h38z" />
    <glyph glyph-name="bar" unicode="|" horiz-adv-x="169" 
d="M107 890v-980h-55l-1 980h56z" />
    <glyph glyph-name="braceright" unicode="}" horiz-adv-x="310" 
d="M25 -96v56h38h31.5t22 2t17.5 6.5t8 12.5t4 20v333q0 30 6.5 48t27.5 32q-34 24 -34 80q0 61 1 161t1 145q0 15 -5.5 24t-20 13t-26.5 4.5t-38 0.5h-34v60h65q36 0 60.5 -11t37 -25.5t18.5 -42.5t6.5 -46t0.5 -53v-232q0 -24 16.5 -33.5t54.5 -9.5v-70q-38 0 -54.5 -9.5
t-16.5 -33.5v-315q0 -58 -32 -89t-91 -31q-25 0 -64 3z" />
    <glyph glyph-name="asciitilde" unicode="~" horiz-adv-x="403" 
d="M243 348q-25 1 -66.5 18.5t-57.5 17.5q-21 0 -69 -46l-43 48q38 38 67 56.5t65 18.5q23 0 63 -18t61 -18t66 45l45 -45q-40 -40 -67.5 -58.5t-63.5 -18.5z" />
    <glyph glyph-name="exclamdown" unicode="&#xa1;" horiz-adv-x="184" 
d="M129 617v-86h-76v86h76zM119 454l14 -654h-83l13 654h56z" />
    <glyph glyph-name="cent" unicode="&#xa2;" horiz-adv-x="366" 
d="M104 82h-61l38 106q-55 52 -55 112v189q0 68 48 116t116 48q34 0 59 -6q1 2 2 5.5t4 13.5t9 25h62l-28 -79q21 -16 33 -33t17 -42.5t5.5 -40t0.5 -51.5h-57v23q0 60 -19 92l-138 -356q21 -12 50 -12q43 0 75 32.5t32 75.5v48h57v-48q0 -68 -48 -116t-116 -48q-34 0 -64 8
q-3 -7 -9 -25.5t-13 -36.5zM104 263l127 330q-21 4 -41 4q-42 0 -74.5 -32.5t-32.5 -75.5q0 -161 2.5 -191.5t18.5 -34.5z" />
    <glyph glyph-name="sterling" unicode="&#xa3;" horiz-adv-x="406" 
d="M52 385h-44v57h44v196q0 72 51.5 123t122.5 51q72 0 123 -51t51 -123v-54h-67v54q0 43 -32 75.5t-75 32.5q-42 0 -74.5 -33t-32.5 -75v-196h196v-57h-196v-303q44 7 96 -12.5t68 -19.5q30 0 80 31l38 -37q-38 -35 -59.5 -46.5t-58.5 -11.5q-25 0 -68 18t-66 18t-69 -46
l-51 56q21 20 24 25z" />
    <glyph glyph-name="currency" unicode="&#xa4;" horiz-adv-x="405" 
d="M65 204h-63l71 118q-30 45 -28 97q-2 53 28 97q-1 2 -5 8t-21 35t-44 75h63l47 -73q45 21 88 21q47 0 87 -23l48 75h66l-73 -119q28 -42 30 -96q-2 -55 -30 -97q65 -105 73 -118h-64l-48 72q-40 -20 -89 -20t-88 20zM201 525q-40 0 -68 -33t-27 -73q-1 -41 27 -73.5
t68 -32.5t68 32.5t29 73.5q-1 41 -29 73.5t-68 32.5z" />
    <glyph glyph-name="yen" unicode="&#xa5;" horiz-adv-x="506" 
d="M286 0h-68v239h-120v67h120v84h-120v67h78l-158 360h75l159 -352q24 54 78.5 174t80.5 178h75l-159 -360h79v-67h-120v-84h120v-67h-120v-239z" />
    <glyph glyph-name="brokenbar" unicode="&#xa6;" horiz-adv-x="193" 
d="M123 890v-386h-56v386h56zM123 296v-386h-55l-1 386h56z" />
    <glyph glyph-name="section" unicode="&#xa7;" horiz-adv-x="369" 
d="M343 411v-51q0 -57 -46 -97q46 -36 46 -91v-99q0 -59 -49 -98t-109 -39t-108.5 39t-48.5 98v67h60v-67q0 -35 30 -58t67 -23t66.5 23t29.5 58v99q0 22 -30 35t-68 13q-71 0 -114 40.5t-43 110.5q-3 88 43 131q-42 39 -42 91v101q0 60 48.5 99.5t109.5 39.5t109.5 -39
t48.5 -100v-70h-61v70q0 36 -29.5 59.5t-67.5 23.5q-37 0 -67 -23.5t-30 -59.5v-101q0 -22 29.5 -34.5t67.5 -12.5q58 0 108 -38.5t50 -96.5zM88 406v-53q0 -32 32 -54.5t65 -22.5q37 0 66.5 23.5t29.5 60.5v51q0 34 -31 57t-66 23q-38 0 -67 -24t-29 -61z" />
    <glyph glyph-name="dieresis" unicode="&#xa8;" horiz-adv-x="305" 
d="M123 816v-79h-56v79h56zM236 816v-79h-56v79h56z" />
    <glyph glyph-name="copyright" unicode="&#xa9;" horiz-adv-x="866" 
d="M29 394q-1 167 117.5 285.5t285.5 118.5t285.5 -118.5t119.5 -285.5q-1 -167 -119.5 -285.5t-285.5 -118.5t-285 118.5t-118 285.5zM68 394q-1 -151 105.5 -258t258.5 -107q151 0 258 106.5t108 258.5q-1 152 -108 258.5t-258 106.5q-152 0 -258.5 -107t-105.5 -258z
M435 139q67 0 115.5 48.5t48.5 115.5v48h-57v-48q0 -44 -31 -76t-76 -32q-51 0 -89 32.5t-38 75.5v176q0 43 38 75.5t89 32.5q45 0 76 -32t31 -76v-44h57v44q0 67 -48.5 115.5t-115.5 48.5q-74 0 -129 -48.5t-55 -115.5v-176q0 -67 55 -115.5t129 -48.5z" />
    <glyph glyph-name="guillemotleft" unicode="&#xab;" horiz-adv-x="483" 
d="M246 190v-90l-208 228v65l208 228v-90l-151 -171q146 -165 151 -170zM443 190v-90l-208 228v65l208 228v-90l-151 -171q146 -165 151 -170z" />
    <glyph glyph-name="logicalnot" unicode="&#xac;" horiz-adv-x="471" 
d="M423 444v-181h-67v114h-311v67h378z" />
    <glyph glyph-name="registered" unicode="&#xae;" horiz-adv-x="866" 
d="M356 127v181h67q42 0 73.5 -28.5t31.5 -67.5v-85h67v85q0 78 -71 132q64 56 64 122v25q0 70 -50 119.5t-120 49.5h-129v-533h67zM356 594h62q43 0 72.5 -29.5t29.5 -73.5v-25q0 -41 -28.5 -71.5t-69.5 -30.5h-66v230zM29 394q-1 167 117.5 285.5t285.5 118.5
t285.5 -118.5t119.5 -285.5q-1 -167 -119.5 -285.5t-285.5 -118.5t-285 118.5t-118 285.5zM68 394q-1 -151 105.5 -258t258.5 -107q151 0 258 106.5t108 258.5q-1 152 -108 258.5t-258 106.5q-152 0 -258.5 -107t-105.5 -258z" />
    <glyph glyph-name="degree" unicode="&#xb0;" horiz-adv-x="289" 
d="M248 712q0 -44 -30.5 -74t-74.5 -30q-45 0 -74.5 29.5t-29.5 74.5t30 75t74 30q43 0 74 -30.5t31 -74.5zM203 712q0 24 -18 42t-42 18q-23 0 -41 -18t-18 -42q0 -23 18 -41t41 -18q24 0 42 18t18 41z" />
    <glyph glyph-name="plusminus" unicode="&#xb1;" horiz-adv-x="443" 
d="M409 424v-57h-160v-161h-57v161h-161v57h161v159h57v-159h160zM408 0h-375v57h375v-57z" />
    <glyph glyph-name="twosuperior" unicode="&#xb2;" horiz-adv-x="440" 
d="M163 697v-85h-55v85q0 45 32.5 76t77.5 31q43 0 75.5 -32t32.5 -75v-99q0 -37 -14.5 -65.5t-29.5 -41.5t-42 -30q-74 -48 -73 -109h168v-54h-234v31q0 57 17 94t63 68q31 19 47 31.5t30 32t14 41.5l-1 101q-1 21 -17 37t-36 16q-21 0 -38 -16.5t-17 -36.5z" />
    <glyph glyph-name="threesuperior" unicode="&#xb3;" horiz-adv-x="429" 
d="M184 523h-38v54h53q64 2 64 44v75q0 21 -16.5 37t-38.5 16t-39.5 -16t-17.5 -37v-84h-55v84q0 46 33.5 77t78.5 31t77.5 -31t32.5 -77v-75q0 -42 -26 -71q26 -26 26 -69v-75q0 -46 -32.5 -77t-77.5 -31t-78.5 31t-33.5 77v82h55v-82q1 -23 18 -38t39 -15t38.5 15t16.5 38
v75q-2 15 -9 24t-20.5 12.5t-23 4.5t-26.5 1z" />
    <glyph glyph-name="acute" unicode="&#xb4;" horiz-adv-x="240" 
d="M100 817h98l-93 -142h-68z" />
    <glyph glyph-name="mu" unicode="&#xb5;" horiz-adv-x="436" 
d="M389 569l-1 -569h-66v33q-15 -15 -45.5 -24t-60.5 -9q-55 0 -106 27v-170h-65v712h66v-398q0 -42 31.5 -73.5t73.5 -31.5q41 0 72.5 29t33.5 72v402h67z" />
    <glyph glyph-name="mu" unicode="&#x3bc;" horiz-adv-x="436" 
d="M389 569l-1 -569h-66v33q-15 -15 -45.5 -24t-60.5 -9q-55 0 -106 27v-170h-65v712h66v-398q0 -42 31.5 -73.5t73.5 -31.5q41 0 72.5 29t33.5 72v402h67z" />
    <glyph glyph-name="paragraph" unicode="&#xb6;" horiz-adv-x="556" 
d="M519 714v-66h-71v-792h-66v792h-160v-792h-66v567q-53 7 -87 48.5t-34 96.5q0 62 42.5 104t103.5 42h338z" />
    <glyph glyph-name="periodcentered" unicode="&#xb7;" horiz-adv-x="192" 
d="M131 441v-102h-76v102h76z" />
    <glyph glyph-name="cedilla" unicode="&#xb8;" horiz-adv-x="146" 
d="M36 17h33v-32q28 3 47.5 -11t19.5 -46q0 -30 -20 -45t-50 -15q-25 0 -56 13l17 31q22 -11 38 -11q36 0 36 29q0 19 -22.5 24t-42.5 2v61z" />
    <glyph glyph-name="onesuperior" unicode="&#xb9;" horiz-adv-x="265" 
d="M178 299h-54v392q-10 -1 -63 -1h-24v55h28q59 0 59 11v49h54v-506z" />
    <glyph glyph-name="guillemotright" unicode="&#xbb;" horiz-adv-x="483" 
d="M39 100l-1 90q5 5 151 170l-151 171v90l208 -228v-65zM235 100v90q5 5 151 170l-151 171v90l208 -228v-65z" />
    <glyph glyph-name="onequarter" unicode="&#xbc;" horiz-adv-x="661" 
d="M548 100v-100h-54v100h-170v56l158 350h66v-352h33v-54h-33zM494 154l1 254q-90 -198 -111 -254h110zM188 299h-54v392q-11 -1 -63 -1h-24v55h27q60 0 60 11v49h54v-506zM97 -13l514 842h-51l-512 -842h49z" />
    <glyph glyph-name="onehalf" unicode="&#xbd;" horiz-adv-x="680" 
d="M190 299h-54v392q-10 -1 -63 -1h-24v55h28q59 0 59 11v49h54v-506zM613 829l-514 -842h-49l512 842h51zM480 399v-85h-55v85q0 45 32.5 76t77.5 31q43 0 75.5 -32t32.5 -75v-99q0 -37 -14.5 -65.5t-29.5 -41.5t-42 -30q-74 -48 -73 -109h168v-54h-234v31q0 58 17 94.5
t63 67.5q31 19 47 31.5t30 32t14 41.5l-1 101q-1 21 -17 37t-36 16q-21 0 -38 -16.5t-17 -36.5z" />
    <glyph glyph-name="threequarters" unicode="&#xbe;" horiz-adv-x="689" 
d="M636 829l-514 -842h-49l512 842h51zM117 536h-38v54h53q64 2 64 44v75q0 21 -16.5 37t-38.5 16t-39.5 -16t-17.5 -37v-84h-55v84q0 46 33.5 77t78.5 31t77.5 -31t32.5 -77v-75q0 -42 -26 -71q26 -26 26 -69v-75q0 -46 -32.5 -77t-77.5 -31t-78.5 31t-33.5 77v82h55v-82
q1 -23 18 -38t39 -15t38.5 15t16.5 38v75q-2 15 -9 24t-20.5 12.5t-23 4.5t-26.5 1zM573 100v-100h-54v100h-170v56l158 350h66v-352h33v-54h-33zM519 154l1 254q-90 -198 -111 -254h110z" />
    <glyph glyph-name="questiondown" unicode="&#xbf;" horiz-adv-x="387" 
d="M39 -26l-1 101q0 44 19 81t46.5 63.5t55 52t46.5 58.5t19 72v51h57v-51q0 -45 -29 -93.5t-64 -82.5t-64.5 -73t-29.5 -69l1 -110q0 -43 29 -75.5t67 -32.5q46 0 77 31t31 77v82h66v-82q0 -72 -51 -123t-123 -51q-63 0 -107.5 51t-44.5 123zM216 531v86h76v-86h-76z" />
    <glyph glyph-name="Agrave" unicode="&#xc0;" horiz-adv-x="465" 
d="M142 279h177l-90 424q-5 -23 -87 -424zM444 0h-69l-47 222h-195l-45 -222h-68l164 817h89zM102 1002h98l63 -142h-68z" />
    <glyph glyph-name="Aacute" unicode="&#xc1;" horiz-adv-x="465" 
d="M142 279h177l-90 424q-5 -23 -87 -424zM444 0h-69l-47 222h-195l-45 -222h-68l164 817h89zM257 1003h98l-93 -142h-68z" />
    <glyph glyph-name="Acircumflex" unicode="&#xc2;" horiz-adv-x="465" 
d="M319 279h-177q82 401 87 424zM375 0h69l-171 817h-89l-164 -817h68l45 222h195zM260 959l79 -99h-50l-56 62l-57 -62h-53l84 99h53z" />
    <glyph glyph-name="Atilde" unicode="&#xc3;" horiz-adv-x="465" 
d="M142 279h177l-90 424q-5 -23 -87 -424zM444 0h-69l-47 222h-195l-45 -222h-68l164 817h89zM276 878q-13 0 -50 12.5t-48 12.5q-9 0 -17.5 -4t-13 -7.5t-11 -11.5t-8.5 -10l-22 29q15 17 21.5 24t21 16t28.5 9q17 0 51 -12.5t60 -12.5q22 0 42 30l25 -32q-31 -43 -79 -43z
" />
    <glyph glyph-name="Adieresis" unicode="&#xc4;" horiz-adv-x="465" 
d="M142 279h177l-90 424q-5 -23 -87 -424zM444 0h-69l-47 222h-195l-45 -222h-68l164 817h89zM203 949v-79h-56v79h56zM316 949v-79h-56v79h56z" />
    <glyph glyph-name="Aring" unicode="&#xc5;" horiz-adv-x="465" 
d="M142 279h177l-90 424q-5 -23 -87 -424zM444 0h-69l-47 222h-195l-44 -222h-69l164 817h89zM307 935q0 -32 -22 -54t-54 -22q-33 0 -54.5 21.5t-21.5 54.5q0 32 22 54t54 22q31 0 53.5 -22.5t22.5 -53.5zM275 935q0 18 -13 31t-31 13t-31 -13t-13 -31t13 -31t31 -13t31 13
t13 31z" />
    <glyph glyph-name="AE" unicode="&#xc6;" horiz-adv-x="716" 
d="M346 604l-137 -335h137v335zM18 0l337 817h316v-66h-257q0 -134 0.5 -224t0.5 -102h229v-56h-229q0 -61 -1 -150.5t-1 -152.5h258v-66h-326v202h-165l-92 -202h-70z" />
    <glyph glyph-name="Ccedilla" unicode="&#xc7;" horiz-adv-x="480" 
d="M438 589h-67v54q0 43 -35.5 75.5t-81.5 32.5q-54 0 -95.5 -32.5t-41.5 -75.5v-476q0 -43 41.5 -75.5t95.5 -32.5q46 0 81.5 32.5t35.5 75.5v58h67v-58q0 -68 -48.5 -118t-119.5 -55v-9q28 3 47.5 -11t19.5 -46q0 -30 -20 -45t-50 -15q-25 0 -56 13l13 31q22 -11 42 -11
q14 0 25 8t11 19q0 22 -20.5 24.5t-44.5 -4.5v46q-78 5 -132.5 56t-54.5 117v476q0 71 61 122.5t143 51.5q76 0 130 -51t54 -123v-54z" />
    <glyph glyph-name="Egrave" unicode="&#xc8;" horiz-adv-x="389" 
d="M46 817h314v-66h-248v-326h221v-56h-221v-303h248v-66h-313zM95 1002h98l63 -142h-68z" />
    <glyph glyph-name="Eacute" unicode="&#xc9;" horiz-adv-x="389" 
d="M46 817h314v-66h-248v-326h221v-56h-221v-303h248v-66h-313zM229 1002h98l-93 -142h-68z" />
    <glyph glyph-name="Ecircumflex" unicode="&#xca;" horiz-adv-x="389" 
d="M360 817h-314l1 -817h313v66h-248v303h221v56h-221v326h248v66zM222 959l79 -99h-50l-56 62l-57 -62h-53l84 99h53z" />
    <glyph glyph-name="Edieresis" unicode="&#xcb;" horiz-adv-x="389" 
d="M46 817h314v-66h-248v-326h221v-56h-221v-303h248v-66h-313zM174 949v-79h-56v79h56zM287 949v-79h-56v79h56z" />
    <glyph glyph-name="Igrave" unicode="&#xcc;" horiz-adv-x="198" 
d="M131 817v-817h-69l-1 817h70zM-36 1002h97l63 -142h-68z" />
    <glyph glyph-name="Iacute" unicode="&#xcd;" horiz-adv-x="198" 
d="M131 817v-817h-69l-1 817h70zM122 1002h98l-93 -142h-68z" />
    <glyph glyph-name="Icircumflex" unicode="&#xce;" horiz-adv-x="198" 
d="M131 0v817h-70l1 -817h69zM127 960l79 -99h-50l-56 62l-57 -62h-52l83 99h53z" />
    <glyph glyph-name="Idieresis" unicode="&#xcf;" horiz-adv-x="198" 
d="M131 817v-817h-69l-1 817h70zM70 950v-79h-56v79h56zM183 950v-79h-56v79h56z" />
    <glyph glyph-name="Eth" unicode="&#xd0;" horiz-adv-x="481" 
d="M89 367h-64v57h64v393h174q70 0 122 -47.5t52 -117.5v-487q0 -70 -52 -117.5t-122 -47.5h-174v367zM263 753h-108v-329h132v-57h-132v-303h108q43 0 75 29t32 72v487q0 43 -32 72t-75 29z" />
    <glyph glyph-name="Ntilde" unicode="&#xd1;" horiz-adv-x="479" 
d="M116 656v-656h-65l-1 817h74l236 -630v630h66v-817h-59zM283 879q-13 0 -50 12.5t-48 12.5q-9 0 -17.5 -4t-13 -7.5t-11 -11.5t-8.5 -10l-22 29q15 17 21.5 24t21 16t28.5 9q16 0 51 -12.5t60 -12.5q22 0 42 30l25 -32q-31 -43 -79 -43z" />
    <glyph glyph-name="Ograve" unicode="&#xd2;" 
d="M246 58q55 0 95 29t40 72v493q0 43 -40 72t-95 29q-54 0 -94.5 -29t-40.5 -72v-493q0 -43 40.5 -72t94.5 -29zM447 652v-493q0 -69 -59.5 -117t-141.5 -48q-80 0 -140 48t-60 117l-1 493q0 69 60.5 117t140.5 48q82 0 141.5 -48t59.5 -117zM109 1002h98l63 -142h-68z" />
    <glyph glyph-name="Oacute" unicode="&#xd3;" 
d="M246 58q55 0 95 29t40 72v493q0 43 -40 72t-95 29q-54 0 -94.5 -29t-40.5 -72v-493q0 -43 40.5 -72t94.5 -29zM447 652v-493q0 -69 -59.5 -117t-141.5 -48q-80 0 -140 48t-60 117l-1 493q0 69 60.5 117t140.5 48q82 0 141.5 -48t59.5 -117zM270 1002h98l-93 -142h-68z
" />
    <glyph glyph-name="Ocircumflex" unicode="&#xd4;" 
d="M246 58q-54 0 -94.5 29t-40.5 72v493q0 43 40.5 72t94.5 29q55 0 95 -29t40 -72v-493q0 -43 -40 -72t-95 -29zM447 159v493q0 69 -59.5 117t-141.5 48q-80 0 -140.5 -48t-60.5 -117l1 -493q0 -69 60 -117t140 -48q82 0 141.5 48t59.5 117zM275 959l79 -99h-50l-56 62
l-57 -62h-53l84 99h53z" />
    <glyph glyph-name="Otilde" unicode="&#xd5;" 
d="M246 58q55 0 95 29t40 72v493q0 43 -40 72t-95 29q-54 0 -94.5 -29t-40.5 -72v-493q0 -43 40.5 -72t94.5 -29zM447 652v-493q0 -69 -59.5 -117t-141.5 -48q-80 0 -140 48t-60 117l-1 493q0 69 60.5 117t140.5 48q82 0 141.5 -48t59.5 -117zM291 878q-13 0 -50 12.5
t-48 12.5q-9 0 -17.5 -4t-13 -7.5t-11 -11.5t-8.5 -10l-22 29q15 17 21.5 24t21 16t28.5 9q16 0 51 -12.5t60 -12.5q22 0 42 30l25 -32q-31 -43 -79 -43z" />
    <glyph glyph-name="Odieresis" unicode="&#xd6;" 
d="M246 58q55 0 95 29t40 72v493q0 43 -40 72t-95 29q-54 0 -94.5 -29t-40.5 -72v-493q0 -43 40.5 -72t94.5 -29zM447 652v-493q0 -69 -59.5 -117t-141.5 -48q-80 0 -140 48t-60 117l-1 493q0 69 60.5 117t140.5 48q82 0 141.5 -48t59.5 -117zM218 949v-79h-56v79h56z
M331 949v-79h-56v79h56z" />
    <glyph glyph-name="multiply" unicode="&#xd7;" horiz-adv-x="408" 
d="M316 549l40 -40l-113 -113l114 -114l-41 -41l-113 114l-114 -114l-41 41l114 114l-112 112l40 40l113 -112z" />
    <glyph glyph-name="Oslash" unicode="&#xd8;" 
d="M447 652v-493q0 -69 -59.5 -117t-141.5 -48q-87 0 -148 54l-28 -61h-57l49 106q-16 31 -17 66v493q0 69 60.5 117t140.5 48q78 0 136 -44l26 56h58l-45 -96q26 -39 26 -81zM246 58q55 0 95 29t40 72v490l-238 -525q7 -29 36.5 -47.5t66.5 -18.5zM246 753q-54 0 -94.5 -29
t-40.5 -72v-452l229 503q-4 21 -33 35.5t-61 14.5z" />
    <glyph glyph-name="Ugrave" unicode="&#xd9;" horiz-adv-x="467" 
d="M231 61q46 0 81 31.5t35 73.5v651h67v-651q0 -70 -54 -120.5t-129 -50.5q-74 0 -127 50t-53 121l-1 651h66v-651q0 -42 34.5 -73.5t80.5 -31.5zM100 1003h98l63 -142h-68z" />
    <glyph glyph-name="Uacute" unicode="&#xda;" horiz-adv-x="467" 
d="M231 61q46 0 81 31.5t35 73.5v651h67v-651q0 -70 -54 -120.5t-129 -50.5q-74 0 -127 50t-53 121l-1 651h66v-651q0 -42 34.5 -73.5t80.5 -31.5zM256 1002h98l-93 -142h-68z" />
    <glyph glyph-name="Ucircumflex" unicode="&#xdb;" horiz-adv-x="467" 
d="M231 61q-46 0 -80.5 31.5t-34.5 73.5v651h-66l1 -651q0 -71 53 -121t127 -50q75 0 129 50.5t54 120.5v651h-67v-651q0 -42 -35 -73.5t-81 -31.5zM261 959l79 -99h-50l-56 62l-57 -62h-53l84 99h53z" />
    <glyph glyph-name="Udieresis" unicode="&#xdc;" horiz-adv-x="467" 
d="M231 61q46 0 81 31.5t35 73.5v651h67v-651q0 -70 -54 -120.5t-129 -50.5q-74 0 -127 50t-53 121l-1 651h66v-651q0 -42 34.5 -73.5t80.5 -31.5zM204 949v-79h-56v79h56zM317 949v-79h-56v79h56z" />
    <glyph glyph-name="Yacute" unicode="&#xdd;" horiz-adv-x="506" 
d="M284 0h-66v394q-29 61 -98 207.5t-102 215.5h75l159 -332q25 53 79.5 166t79.5 166h75l-202 -423v-394zM277 1002h98l-93 -142h-68z" />
    <glyph glyph-name="Thorn" unicode="&#xde;" horiz-adv-x="413" 
d="M230 560h-107v-336h107q43 0 75 31t32 75v123q0 43 -32 75t-75 32zM230 157h-107v-157h-66l-1 817h67v-190h107q71 0 122.5 -51.5t51.5 -122.5v-123q0 -72 -51 -122.5t-123 -50.5z" />
    <glyph glyph-name="germandbls" unicode="&#xdf;" horiz-adv-x="861" 
d="M108 643v-120q0 -39 35 -64t84 -27q73 -6 127 -45.5t54 -99.5v-117q0 -72 -54 -123t-129 -51q-76 0 -129.5 51t-54.5 123v79h66v-79q0 -43 35.5 -75.5t82.5 -32.5q49 0 82.5 32t33.5 76v117q0 35 -35 58t-83 23q-74 0 -128 44.5t-54 110.5v120q0 72 54 123t130 51
t129.5 -51t53.5 -123v-82h-66v82q0 45 -35 76.5t-82 31.5q-49 0 -83 -32t-34 -76zM520 643v-120q0 -39 35 -64t84 -27q73 -6 127 -45.5t54 -99.5v-117q0 -72 -54 -123t-129 -51q-76 0 -130 51t-54 123v79h66v-79q0 -43 35.5 -75.5t82.5 -32.5q49 0 82.5 32t33.5 76v117
q0 35 -35 58t-83 23q-74 0 -128 44.5t-54 110.5v120q0 72 54 123t130 51t129.5 -51t53.5 -123v-82h-66v82q0 45 -35 76.5t-82 31.5q-49 0 -83 -32t-34 -76z" />
    <glyph glyph-name="agrave" unicode="&#xe0;" horiz-adv-x="474" 
d="M137 199h197l-100 504q-17 -84 -97 -504zM449 0h-69l-37 142h-215l-35 -142h-68l164 817h89zM103 1002h98l63 -142h-68z" />
    <glyph glyph-name="aacute" unicode="&#xe1;" horiz-adv-x="474" 
d="M137 199h197l-100 504q-17 -84 -97 -504zM449 0h-69l-37 142h-215l-35 -142h-68l164 817h89zM260 1002h98l-93 -142h-68z" />
    <glyph glyph-name="acircumflex" unicode="&#xe2;" horiz-adv-x="474" 
d="M334 199h-197q80 420 97 504zM380 0h69l-171 817h-89l-164 -817h68l35 142h215zM262 959l79 -99h-50l-56 62l-57 -62h-53l84 99h53z" />
    <glyph glyph-name="atilde" unicode="&#xe3;" horiz-adv-x="474" 
d="M137 199h197l-100 504q-17 -84 -97 -504zM449 0h-69l-37 142h-215l-35 -142h-68l164 817h89zM280 878q-13 0 -50 12.5t-48 12.5q-9 0 -17.5 -4t-13 -7.5t-11 -11.5t-8.5 -10l-22 29q15 17 21.5 24t21 16t28.5 9q16 0 50.5 -12.5t60.5 -12.5q22 0 42 30l25 -32
q-31 -43 -79 -43z" />
    <glyph glyph-name="adieresis" unicode="&#xe4;" horiz-adv-x="474" 
d="M137 199h197l-100 504q-17 -84 -97 -504zM449 0h-69l-37 142h-215l-35 -142h-68l164 817h89zM207 949v-79h-56v79h56zM320 949v-79h-56v79h56z" />
    <glyph glyph-name="aring" unicode="&#xe5;" horiz-adv-x="474" 
d="M137 199h197l-100 504q-17 -84 -97 -504zM449 0h-69l-37 142h-215l-35 -142h-68l164 817h89zM312 936q0 -32 -22 -54t-54 -22q-33 0 -54.5 21.5t-21.5 54.5q0 32 22 54t54 22t54 -22t22 -54zM280 936q0 18 -13 31t-31 13t-31 -13t-13 -31t13 -31t31 -13t31 13t13 31z" />
    <glyph glyph-name="ae" unicode="&#xe6;" horiz-adv-x="716" 
d="M346 604l-137 -335h137v335zM18 0l337 817h316v-66h-257q0 -134 0.5 -224t0.5 -102h229v-56h-229q0 -61 -1 -150.5t-1 -152.5h258v-66h-326v202h-165l-92 -202h-70z" />
    <glyph glyph-name="ccedilla" unicode="&#xe7;" horiz-adv-x="480" 
d="M438 589h-67v54q0 43 -35.5 75.5t-81.5 32.5q-54 0 -95.5 -32.5t-41.5 -75.5v-476q0 -43 41.5 -75.5t95.5 -32.5q46 0 81.5 32.5t35.5 75.5v58h67v-58q0 -68 -48.5 -118t-119.5 -55v-9q28 3 47.5 -11t19.5 -46q0 -30 -20 -45t-50 -15q-25 0 -56 13l13 31q22 -11 42 -11
q14 0 25 8t11 19q0 22 -20.5 24.5t-44.5 -4.5v46q-78 5 -132.5 56t-54.5 117v476q0 71 61 122.5t143 51.5q76 0 130 -51t54 -123v-54z" />
    <glyph glyph-name="egrave" unicode="&#xe8;" horiz-adv-x="404" 
d="M56 817h314v-66h-248v-246h221v-56h-221v-383h248v-66h-313zM100 1002h98l63 -142h-68z" />
    <glyph glyph-name="eacute" unicode="&#xe9;" horiz-adv-x="404" 
d="M56 817h314v-66h-248v-246h221v-56h-221v-383h248v-66h-313zM227 1003h98l-93 -142h-68z" />
    <glyph glyph-name="ecircumflex" unicode="&#xea;" horiz-adv-x="404" 
d="M370 817h-314l1 -817h313v66h-248v383h221v56h-221v246h248v66zM246 959l79 -99h-50l-56 62l-57 -62h-53l84 99h53z" />
    <glyph glyph-name="edieresis" unicode="&#xeb;" horiz-adv-x="404" 
d="M56 817h314v-66h-248v-246h221v-56h-221v-383h248v-66h-313zM187 949v-79h-56v79h56zM300 949v-79h-56v79h56z" />
    <glyph glyph-name="igrave" unicode="&#xec;" horiz-adv-x="198" 
d="M131 817v-817h-69l-1 817h70zM-36 1002h97l63 -142h-68z" />
    <glyph glyph-name="iacute" unicode="&#xed;" horiz-adv-x="198" 
d="M131 817v-817h-69l-1 817h70zM122 1002h98l-93 -142h-68z" />
    <glyph glyph-name="icircumflex" unicode="&#xee;" horiz-adv-x="198" 
d="M131 0v817h-70l1 -817h69zM127 960l79 -99h-50l-56 62l-57 -62h-52l83 99h53z" />
    <glyph glyph-name="idieresis" unicode="&#xef;" horiz-adv-x="198" 
d="M131 817v-817h-69l-1 817h70zM70 950v-79h-56v79h56zM183 950v-79h-56v79h56z" />
    <glyph glyph-name="eth" unicode="&#xf0;" horiz-adv-x="481" 
d="M89 367h-64v57h64v393h174q70 0 122 -47.5t52 -117.5v-487q0 -70 -52 -117.5t-122 -47.5h-174v367zM263 753h-108v-329h132v-57h-132v-303h108q43 0 75 29t32 72v487q0 43 -32 72t-75 29z" />
    <glyph glyph-name="ntilde" unicode="&#xf1;" horiz-adv-x="479" 
d="M116 656v-656h-65l-1 817h74l236 -630v630h66v-817h-59zM283 879q-13 0 -50 12.5t-48 12.5q-9 0 -17.5 -4t-13 -7.5t-11 -11.5t-8.5 -10l-22 29q15 17 21.5 24t21 16t28.5 9q16 0 51 -12.5t60 -12.5q22 0 42 30l25 -32q-31 -43 -79 -43z" />
    <glyph glyph-name="ograve" unicode="&#xf2;" 
d="M246 58q55 0 95 29t40 72v493q0 43 -40 72t-95 29q-54 0 -94.5 -29t-40.5 -72v-493q0 -43 40.5 -72t94.5 -29zM447 652v-493q0 -69 -59.5 -117t-141.5 -48q-80 0 -140 48t-60 117l-1 493q0 69 60.5 117t140.5 48q82 0 141.5 -48t59.5 -117zM109 1002h98l63 -142h-68z" />
    <glyph glyph-name="oacute" unicode="&#xf3;" 
d="M246 58q55 0 95 29t40 72v493q0 43 -40 72t-95 29q-54 0 -94.5 -29t-40.5 -72v-493q0 -43 40.5 -72t94.5 -29zM447 652v-493q0 -69 -59.5 -117t-141.5 -48q-80 0 -140 48t-60 117l-1 493q0 69 60.5 117t140.5 48q82 0 141.5 -48t59.5 -117zM270 1002h98l-93 -142h-68z
" />
    <glyph glyph-name="ocircumflex" unicode="&#xf4;" 
d="M246 58q-54 0 -94.5 29t-40.5 72v493q0 43 40.5 72t94.5 29q55 0 95 -29t40 -72v-493q0 -43 -40 -72t-95 -29zM447 159v493q0 69 -59.5 117t-141.5 48q-80 0 -140.5 -48t-60.5 -117l1 -493q0 -69 60 -117t140 -48q82 0 141.5 48t59.5 117zM275 959l79 -99h-50l-56 62
l-57 -62h-53l84 99h53z" />
    <glyph glyph-name="otilde" unicode="&#xf5;" 
d="M246 58q55 0 95 29t40 72v493q0 43 -40 72t-95 29q-54 0 -94.5 -29t-40.5 -72v-493q0 -43 40.5 -72t94.5 -29zM447 652v-493q0 -69 -59.5 -117t-141.5 -48q-80 0 -140 48t-60 117l-1 493q0 69 60.5 117t140.5 48q82 0 141.5 -48t59.5 -117zM291 878q-13 0 -50 12.5
t-48 12.5q-9 0 -17.5 -4t-13 -7.5t-11 -11.5t-8.5 -10l-22 29q15 17 21.5 24t21 16t28.5 9q16 0 51 -12.5t60 -12.5q22 0 42 30l25 -32q-31 -43 -79 -43z" />
    <glyph glyph-name="odieresis" unicode="&#xf6;" 
d="M246 58q55 0 95 29t40 72v493q0 43 -40 72t-95 29q-54 0 -94.5 -29t-40.5 -72v-493q0 -43 40.5 -72t94.5 -29zM447 652v-493q0 -69 -59.5 -117t-141.5 -48q-80 0 -140 48t-60 117l-1 493q0 69 60.5 117t140.5 48q82 0 141.5 -48t59.5 -117zM218 949v-79h-56v79h56z
M331 949v-79h-56v79h56z" />
    <glyph glyph-name="divide" unicode="&#xf7;" horiz-adv-x="406" 
d="M347 367h-291v57h291v-57zM236 293v-102h-76v102h76zM236 603v-102h-76v102h76z" />
    <glyph glyph-name="oslash" unicode="&#xf8;" 
d="M447 652v-493q0 -69 -59.5 -117t-141.5 -48q-87 0 -148 54l-28 -61h-57l49 106q-16 31 -17 66v493q0 69 60.5 117t140.5 48q78 0 136 -44l26 56h58l-45 -96q26 -39 26 -81zM246 58q55 0 95 29t40 72v490l-238 -525q7 -29 36.5 -47.5t66.5 -18.5zM246 753q-54 0 -94.5 -29
t-40.5 -72v-452l229 503q-4 21 -33 35.5t-61 14.5z" />
    <glyph glyph-name="ugrave" unicode="&#xf9;" horiz-adv-x="467" 
d="M231 61q46 0 81 31.5t35 73.5v651h67v-651q0 -70 -54 -120.5t-129 -50.5q-74 0 -127 50t-53 121l-1 651h66v-651q0 -42 34.5 -73.5t80.5 -31.5zM100 1003h98l63 -142h-68z" />
    <glyph glyph-name="uacute" unicode="&#xfa;" horiz-adv-x="467" 
d="M231 61q46 0 81 31.5t35 73.5v651h67v-651q0 -70 -54 -120.5t-129 -50.5q-74 0 -127 50t-53 121l-1 651h66v-651q0 -42 34.5 -73.5t80.5 -31.5zM256 1002h98l-93 -142h-68z" />
    <glyph glyph-name="ucircumflex" unicode="&#xfb;" horiz-adv-x="467" 
d="M231 61q-46 0 -80.5 31.5t-34.5 73.5v651h-66l1 -651q0 -71 53 -121t127 -50q75 0 129 50.5t54 120.5v651h-67v-651q0 -42 -35 -73.5t-81 -31.5zM261 959l79 -99h-50l-56 62l-57 -62h-53l84 99h53z" />
    <glyph glyph-name="udieresis" unicode="&#xfc;" horiz-adv-x="467" 
d="M231 61q46 0 81 31.5t35 73.5v651h67v-651q0 -70 -54 -120.5t-129 -50.5q-74 0 -127 50t-53 121l-1 651h66v-651q0 -42 34.5 -73.5t80.5 -31.5zM204 949v-79h-56v79h56zM317 949v-79h-56v79h56z" />
    <glyph glyph-name="yacute" unicode="&#xfd;" horiz-adv-x="506" 
d="M284 0h-66v394q-29 61 -98 207.5t-102 215.5h75l159 -332q25 53 79.5 166t79.5 166h75l-202 -423v-394zM277 1002h98l-93 -142h-68z" />
    <glyph glyph-name="thorn" unicode="&#xfe;" horiz-adv-x="413" 
d="M230 560h-107v-336h107q43 0 75 31t32 75v123q0 43 -32 75t-75 32zM230 157h-107v-157h-66l-1 817h67v-190h107q71 0 122.5 -51.5t51.5 -122.5v-123q0 -72 -51 -122.5t-123 -50.5z" />
    <glyph glyph-name="ydieresis" unicode="&#xff;" horiz-adv-x="506" 
d="M284 0h-66v394q-29 61 -98 207.5t-102 215.5h75l159 -332q25 53 79.5 166t79.5 166h75l-202 -423v-394zM223 950v-79h-56v79h56zM336 950v-79h-56v79h56z" />
    <glyph glyph-name="Lslash" unicode="&#x141;" horiz-adv-x="341" 
d="M316 66v-66h-266l-1 391l-66 -24v57l66 24v369h66v-345l130 46v-57l-130 -46v-349h201z" />
    <glyph glyph-name="lslash" unicode="&#x142;" horiz-adv-x="341" 
d="M316 66v-66h-266l-1 391l-66 -24v57l66 24v369h66v-345l130 46v-57l-130 -46v-349h201z" />
    <glyph glyph-name="OE" unicode="&#x152;" horiz-adv-x="717" 
d="M358 817h314v-66h-248v-326h221v-56h-221v-303h248v-66h-314v24q-46 -24 -105 -24q-80 0 -140 48t-61 117v487q0 69 60.5 117t140.5 48q58 0 105 -25v25zM253 64q43 0 74 29t31 72v490q-1 42 -32.5 70t-72.5 28q-54 0 -94.5 -29t-40.5 -72v-487q0 -43 40.5 -72t94.5 -29z
" />
    <glyph glyph-name="oe" unicode="&#x153;" horiz-adv-x="717" 
d="M358 817h314v-66h-248v-326h221v-66h-221v-293h248v-66h-314v24q-46 -24 -105 -24q-80 0 -140 48t-61 117v487q0 69 60.5 117t140.5 48q58 0 105 -25v25zM253 64q43 0 74 29t31 72v490q-1 42 -32.5 70t-72.5 28q-54 0 -94.5 -29t-40.5 -72v-487q0 -43 40.5 -72t94.5 -29z
" />
    <glyph glyph-name="Scaron" unicode="&#x160;" horiz-adv-x="451" 
d="M108 643q0 44 34 76t83 32q47 0 82 -31.5t35 -76.5v-82h66v82q0 72 -53.5 123t-129.5 51t-130 -51t-54 -123v-120q0 -66 54 -110.5t128 -44.5q48 0 83 -23t35 -58v-117q0 -44 -33.5 -76t-82.5 -32q-47 0 -82.5 32.5t-35.5 75.5v79h-66l1 -79q0 -72 53.5 -123t129.5 -51
q75 0 129 51t54 123v117q0 60 -54 99.5t-127 45.5q-49 2 -84 27t-35 64v120zM332 959l-79 -99h-53l-84 99h53l57 -62l56 62h50z" />
    <glyph glyph-name="scaron" unicode="&#x161;" horiz-adv-x="457" 
d="M108 643q0 44 34 76t83 32q47 0 82 -31.5t35 -76.5v-82h66v82q0 72 -53.5 123t-129.5 51t-130 -51t-54 -123v-120q0 -66 54 -110.5t128 -44.5q48 0 83 -23t35 -58v-117q0 -44 -33.5 -76t-82.5 -32q-47 0 -82.5 32.5t-35.5 75.5v79h-66l1 -79q0 -72 53.5 -123t129.5 -51
q75 0 129 51t54 123v117q0 60 -54 99.5t-127 45.5q-49 2 -84 27t-35 64v120zM335 959l-79 -99h-53l-84 99h53l57 -62l56 62h50z" />
    <glyph glyph-name="Ydieresis" unicode="&#x178;" horiz-adv-x="506" 
d="M284 0h-66v394q-29 61 -98 207.5t-102 215.5h75l159 -332q25 53 79.5 166t79.5 166h75l-202 -423v-394zM223 950v-79h-56v79h56zM336 950v-79h-56v79h56z" />
    <glyph glyph-name="Zcaron" unicode="&#x17d;" horiz-adv-x="498" 
d="M455 66h-320l310 674v77h-405v-66h328l-307 -674v-77h394v66zM356 959l-79 -99h-53l-84 99h53l57 -62l56 62h50z" />
    <glyph glyph-name="zcaron" unicode="&#x17e;" horiz-adv-x="498" 
d="M455 66h-320l310 674v77h-405v-66h328l-307 -674v-77h394v66zM356 959l-79 -99h-53l-84 99h53l57 -62l56 62h50z" />
    <glyph glyph-name="circumflex" unicode="&#x2c6;" horiz-adv-x="274" 
d="M165 817l79 -99h-50l-56 62l-57 -62h-53l84 99h53z" />
    <glyph glyph-name="caron" unicode="&#x2c7;" horiz-adv-x="274" 
d="M244 817l-79 -99h-53l-84 99h53l57 -62l56 62h50z" />
    <glyph glyph-name="breve" unicode="&#x2d8;" horiz-adv-x="209" 
d="M12 817h38q0 -25 16 -42t38 -17q21 0 37 17t16 42h38q0 -41 -26.5 -69t-64.5 -28q-40 0 -66 26.5t-26 70.5z" />
    <glyph glyph-name="dotaccent" unicode="&#x2d9;" horiz-adv-x="192" 
d="M131 817v-102h-76v102h76z" />
    <glyph glyph-name="ring" unicode="&#x2da;" horiz-adv-x="213" 
d="M182 741q-1 -32 -23 -54t-54 -22q-33 0 -54.5 21.5t-20.5 54.5q-1 32 21 54t54 22q31 0 53.5 -22t23.5 -54zM150 741q-1 18 -14 31t-31 13t-31 -13t-12 -31q-1 -18 12 -31t31 -13t31 13t14 31z" />
    <glyph glyph-name="ogonek" unicode="&#x2db;" horiz-adv-x="154" 
d="M86 -251h-80l94 152h43z" />
    <glyph glyph-name="tilde" unicode="&#x2dc;" horiz-adv-x="337" 
d="M212 730q-13 0 -50 12.5t-48 12.5q-9 0 -17.5 -4t-13 -7.5t-11 -11.5t-8.5 -10l-22 29q15 17 21.5 24t21 16t28.5 9q17 0 51 -12.5t60 -12.5q22 0 42 30l25 -32q-31 -43 -79 -43z" />
    <glyph glyph-name="hungarumlaut" unicode="&#x2dd;" horiz-adv-x="305" 
d="M89 700h-46l40 92h66zM211 700h-47l41 92h66z" />
    <glyph glyph-name="endash" unicode="&#x2013;" horiz-adv-x="471" 
d="M423 367h-378v57h378v-57z" />
    <glyph glyph-name="emdash" unicode="&#x2014;" horiz-adv-x="591" 
d="M532 367h-476v57h476v-57z" />
    <glyph glyph-name="quoteleft" unicode="&#x2018;" horiz-adv-x="213" 
d="M95 817h37l-32 -66h49v-114h-86v114z" />
    <glyph glyph-name="quoteright" unicode="&#x2019;" horiz-adv-x="213" 
d="M117 637h-37l32 66h-49v114h86v-114z" />
    <glyph glyph-name="quotesinglbase" unicode="&#x201a;" horiz-adv-x="210" 
d="M117 -56h-37l32 56h-49v114h86v-114z" />
    <glyph glyph-name="quotedblleft" unicode="&#x201c;" horiz-adv-x="349" 
d="M231 817h37l-32 -66h49v-114h-86v114zM94 817h37l-32 -66h49v-114h-86v114z" />
    <glyph glyph-name="quotedblright" unicode="&#x201d;" horiz-adv-x="349" 
d="M116 637h-37l32 66h-49v114h86v-114zM253 637h-37l32 66h-49v114h86v-114z" />
    <glyph glyph-name="quotedblbase" unicode="&#x201e;" horiz-adv-x="349" 
d="M116 -56h-37l32 56h-49v114h86v-114zM253 -56h-37l32 56h-49v114h86v-114z" />
    <glyph glyph-name="dagger" unicode="&#x2020;" horiz-adv-x="395" 
d="M168 616h-161v57h161v217h56v-217h161v-57h-161v-706h-56v706z" />
    <glyph glyph-name="daggerdbl" unicode="&#x2021;" horiz-adv-x="402" 
d="M172 616h-161v57h161v217h56v-217h161v-57h-161v-432h161v-57h-161v-217h-56v217h-160v57h160v432z" />
    <glyph glyph-name="bullet" unicode="&#x2022;" horiz-adv-x="260" 
d="M50 394q0 32 23 55t55 23q33 0 56.5 -22.5t23.5 -55.5t-23.5 -56.5t-56.5 -23.5t-55.5 23.5t-22.5 56.5z" />
    <glyph glyph-name="ellipsis" unicode="&#x2026;" horiz-adv-x="576" 
d="M131 102v-102h-76v102h76zM323 102v-102h-76v102h76zM515 102v-102h-76v102h76z" />
    <glyph glyph-name="perthousand" unicode="&#x2030;" horiz-adv-x="826" 
d="M108 -25l307 842h58l-307 -842h-58zM135 405q-43 0 -74 29t-31 72v180q0 42 31.5 71.5t73.5 29.5q41 0 72 -29.5t31 -71.5v-180q0 -43 -30.5 -72t-72.5 -29zM184 506v180q0 20 -16 34t-33 14q-22 0 -36 -13.5t-14 -34.5v-180q0 -21 14 -34.5t36 -13.5q19 0 34 14t15 34z
M438 358q42 0 72.5 -29.5t30.5 -71.5v-181q0 -42 -30.5 -71.5t-72.5 -29.5q-43 0 -73.5 29t-30.5 72v181q0 43 30 72t74 29zM487 76v181q0 18 -15 32.5t-34 14.5q-22 0 -36 -13t-14 -34v-181q0 -21 14 -34t36 -13q21 0 35 14t14 33zM692 358q42 0 72.5 -29.5t30.5 -71.5
v-181q0 -42 -30.5 -71.5t-72.5 -29.5q-43 0 -73.5 29t-30.5 72v181q0 43 30 72t74 29zM741 76v181q0 18 -15 32.5t-34 14.5q-22 0 -36 -13t-14 -34v-181q0 -21 14 -34t36 -13q21 0 35 14t14 33z" />
    <glyph glyph-name="guilsinglleft" unicode="&#x2039;" horiz-adv-x="253" 
d="M229 190v-90l-208 228v65l208 228v-90l-151 -171q146 -165 151 -170z" />
    <glyph glyph-name="guilsinglright" unicode="&#x203a;" horiz-adv-x="253" 
d="M22 100v90q24 28 150 170l-151 171v90l208 -228v-65z" />
    <glyph glyph-name="fraction" unicode="&#x2044;" horiz-adv-x="590" 
d="M576 829l-513 -842h-50l512 842h51z" />
    <glyph glyph-name="Euro" unicode="&#x20ac;" horiz-adv-x="531" 
d="M306 -7q-82 0 -143 51.5t-61 122.5v124h-64v57h64v94h-64v57h64v144q0 71 61 122.5t143 51.5q76 0 130 -51t54 -123v-73h-67v73q0 43 -35.5 75.5t-81.5 32.5q-54 0 -95.5 -32.5t-41.5 -75.5v-144h177v-57h-177v-94h177v-57h-177v-124q0 -43 41.5 -75.5t95.5 -32.5
q46 0 81.5 32.5t35.5 75.5v69h67v-69q0 -72 -54 -123t-130 -51z" />
    <glyph glyph-name="trademark" unicode="&#x2122;" horiz-adv-x="656" 
d="M174 779v-453h-38v453h-88v38h213v-38h-87zM566 665l-84 -339h-51l-92 339v-339h-37v491h42l112 -441l113 441h36v-491h-39v339z" />
    <glyph glyph-name="minus" unicode="&#x2212;" horiz-adv-x="406" 
d="M347 367h-291v57h291v-57z" />
    </font>
</defs>
</svg>
